<svg width="1em" height="1em" viewBox="0 0 60 46" fill="none" xmlns="http://www.w3.org/2000/svg">
<g clip-path="url(#clip0_2244_776)">
<path fill-rule="evenodd" clip-rule="evenodd" d="M32.7442 12.8679C30.126 11.2955 26.763 12.2149 25.2315 14.9743L16.2085 31.2311C15.2138 33.0233 15.2468 35.1312 16.1032 36.8271L16.4742 37.4597C16.9234 38.1252 17.5144 38.7007 18.2319 39.1316C20.8501 40.704 24.2131 39.7847 25.7447 37.0252L34.7676 20.7684C36.3098 17.9898 35.3818 14.452 32.7442 12.8679ZM11.6042 29.1567C11.683 28.9973 11.7659 28.8391 11.8529 28.6822L17.8403 17.8947L16.2194 14.9743C14.6879 12.2149 11.3249 11.2955 8.70671 12.8679C6.07687 14.4473 5.14657 17.969 6.66976 20.7439L11.6042 29.1567ZM20.7255 12.6965L20.575 12.4254C17.6771 7.20414 11.2297 5.3891 6.17565 8.42439C1.14107 11.448 -0.559607 18.1152 2.32772 23.3173L2.34267 23.3442L11.722 39.3352C12.6137 41.044 13.9574 42.5281 15.7009 43.5751C20.7549 46.6104 27.2023 44.7954 30.1003 39.5741L30.2526 39.2996C31.1442 41.0234 32.4944 42.5208 34.25 43.5751C39.304 46.6104 45.7514 44.7954 48.6494 39.5741L57.6723 23.3173C60.5596 18.1152 58.859 11.448 53.8244 8.42439C48.7704 5.3891 42.323 7.20415 39.425 12.4254L39.2727 12.6999C38.381 10.9761 37.0308 9.47875 35.2753 8.42439C30.2212 5.3891 23.7738 7.20414 20.8759 12.4254L20.7255 12.6965ZM51.2933 12.8679C48.6751 11.2955 45.3122 12.2149 43.7806 14.9743L34.7577 31.2311C33.2155 34.0097 34.1435 37.5476 36.7811 39.1316C39.3992 40.704 42.7622 39.7847 44.2938 37.0252L53.3167 20.7684C54.8589 17.9898 53.9309 14.452 51.2933 12.8679Z" fill="black"/>
</g>
<defs>
<clipPath id="clip0_2244_776">
<rect width="60" height="40" fill="white" transform="translate(0 6)"/>
</clipPath>
</defs>
</svg>
