<svg width="1em" height="1em" viewBox="0 0 413 92" fill="none" xmlns="http://www.w3.org/2000/svg">
<path fill-rule="evenodd" clip-rule="evenodd" d="M44.5792 13.4939L44.9051 14.0631L45.231 13.4939C51.51 2.52919 65.4793 -1.28241 76.4297 5.09172C80.2334 7.30586 83.1589 10.4504 85.0907 14.0704L85.4208 13.4939C91.6997 2.52919 105.669 -1.28241 116.619 5.09172C127.528 11.4413 131.213 25.4423 124.957 36.3668L105.407 70.5061C99.128 81.4708 85.1587 85.2824 74.2083 78.9083C70.4046 76.6941 67.4791 73.5497 65.5473 69.9296L65.2172 70.5061C58.9383 81.4708 44.9689 85.2824 34.0185 78.9083C30.241 76.7094 27.3297 73.593 25.3976 70.0044L5.07574 36.4234L5.04336 36.3668C-1.21252 25.4423 2.47227 11.4413 13.3805 5.09172C24.3309 -1.28241 38.3003 2.52919 44.5792 13.4939ZM54.6681 18.8466C57.9866 13.0517 65.273 11.121 70.9457 14.4231C76.6605 17.7496 78.6712 25.1791 75.3298 31.0142L55.7801 65.1534C52.4617 70.9483 45.1752 72.879 39.5025 69.5769C37.9478 68.672 36.6673 67.4634 35.694 66.0658L34.8902 64.7375C33.0346 61.1761 32.9633 56.7493 35.1185 52.9858L54.6681 18.8466ZM25.6813 47.6332C25.4927 47.9626 25.3131 48.2949 25.1424 48.6296L14.4511 30.9627C11.1509 25.1354 13.1665 17.7398 18.8645 14.4231C24.5372 11.121 31.8237 13.0517 35.1421 18.8466L38.654 24.9793L25.6813 47.6332ZM94.8579 18.8466C98.1763 13.0517 105.463 11.121 111.135 14.4231C116.85 17.7496 118.861 25.1791 115.52 31.0142L95.9698 65.1534C92.6514 70.9483 85.365 72.879 79.6923 69.5769C73.9775 66.2504 71.9668 58.8209 75.3082 52.9858L94.8579 18.8466Z" fill="black"/>
<path d="M195.146 10L183.854 10.0001L171.306 53.3001L159.007 10.0001H148L165.541 74.0001H176.83L189.5 30.7001L202.17 74.0001H213.459L231 10.0001H219.993L207.694 53.3001L195.146 10Z" fill="black"/>
<path d="M342 10V74H353V10H342Z" fill="black"/>
<path d="M281 74L281 44.9999C281 34.7202 274.171 27 264 27C257.01 27 250.916 31.7819 248 35.5V10H237V74H248V48C248 41.9249 252.925 37 259 37C265.075 37 270 41.9249 270 48V74H281Z" fill="black"/>
<path fill-rule="evenodd" clip-rule="evenodd" d="M311.5 75C319.671 75 326.868 70.7409 331.079 64.2778L320.122 61.1361C317.88 63.5302 314.843 65 311.5 65C306.169 65 301.618 61.2627 299.821 56H334.489C334.824 54.3872 335 52.7146 335 51C335 37.7452 324.479 27 311.5 27C298.521 27 288 37.7452 288 51C288 64.2548 298.521 75 311.5 75ZM311.5 37C305.203 37 299.993 41.2154 299.127 48H323.873C323.007 41.2154 317.797 37 311.5 37Z" fill="black"/>
<path fill-rule="evenodd" clip-rule="evenodd" d="M374 35.4547V27H363V90H374V66.5453C377.852 71.7185 383.591 75 390 75C401.598 75 411 64.2548 411 51C411 37.7452 401.598 27 390 27C383.591 27 377.852 30.2815 374 35.4547ZM374 51C374 58.732 379.82 65 387 65C394.18 65 400 58.732 400 51C400 43.268 394.18 37 387 37C379.82 37 374 43.268 374 51Z" fill="black"/>
</svg>
