<svg width="1em" height="1em" viewBox="0 0 24 24" fill="none" xmlns="http://www.w3.org/2000/svg">
<path fill="currentColor" fill-rule="evenodd" clip-rule="evenodd" d="M12 3C11.521 3 11.0535 3.13081 10.643 3.37534C10.233 3.61959 9.89333 3.97219 9.65676 4.38486L2.36064 17.273L2.35308 17.2866C2.12177 17.7104 2.00129 18.187 2.00001 18.6694C1.99873 19.1519 2.11669 19.6291 2.34569 20.0542C2.57483 20.4795 2.90905 20.841 3.32057 21.0972C3.73259 21.3537 4.20565 21.4943 4.69225 21.5L19.2961 21.5001L19.3077 21.4999C19.7943 21.4943 20.2674 21.3537 20.6794 21.0972C21.091 20.841 21.4252 20.4795 21.6543 20.0542C21.8833 19.6291 22.0013 19.1519 22 18.6694C21.9987 18.187 21.8782 17.7104 21.6469 17.2866L21.6394 17.273L14.3432 4.38485L14.3406 4.38016C14.104 3.9675 13.767 3.61959 13.357 3.37534C12.9465 3.13081 12.479 3 12 3ZM11.3945 5.37485L11.3956 5.37299C11.4661 5.25081 11.5611 5.15641 11.6666 5.09356C11.7721 5.03068 11.8868 5 12 5C12.1132 5 12.2279 5.03068 12.3334 5.09356C12.4389 5.15641 12.5339 5.25081 12.6044 5.37299L12.6055 5.37485L19.8943 18.2502C19.962 18.3764 19.9996 18.5228 20 18.6747C20.0004 18.8289 19.9625 18.9777 19.8935 19.1056C19.8248 19.2333 19.7294 19.3328 19.6223 19.3994C19.5172 19.4649 19.4025 19.4979 19.2889 19.5H4.71105C4.5975 19.4979 4.48279 19.4649 4.37765 19.3994C4.27064 19.3328 4.17525 19.2333 4.10646 19.1056C4.03752 18.9777 3.9996 18.8289 4 18.6747C4.00041 18.5228 4.03801 18.3764 4.10567 18.2502L11.3945 5.37485ZM12 8C12.5523 8 13 8.44772 13 9V13C13 13.5523 12.5523 14 12 14C11.4477 14 11 13.5523 11 13V9C11 8.44772 11.4477 8 12 8ZM13.1998 16.7996C13.1998 16.1369 12.6625 15.5996 11.9998 15.5996C11.3371 15.5996 10.7998 16.1369 10.7998 16.7996C10.7998 17.4624 11.3371 17.9996 11.9998 17.9996C12.6625 17.9996 13.1998 17.4624 13.1998 16.7996Z" />
</svg>
