<svg width="1em" height="1em" viewBox="0 0 24 24" fill="none" xmlns="http://www.w3.org/2000/svg">
<path fill="currentColor" fill-rule="evenodd" clip-rule="evenodd" d="M12 3C11.521 3 11.0535 3.13081 10.643 3.37534C10.233 3.61959 9.89333 3.97219 9.65676 4.38486L2.36064 17.273L2.35308 17.2866C2.12177 17.7104 2.00129 18.187 2.00001 18.6694C1.99873 19.1519 2.11669 19.6291 2.34569 20.0542C2.57483 20.4795 2.90905 20.841 3.32057 21.0972C3.73259 21.3537 4.20565 21.4943 4.69225 21.5L19.2961 21.5001L19.3077 21.4999C19.7943 21.4943 20.2674 21.3537 20.6794 21.0972C21.091 20.841 21.4252 20.4795 21.6543 20.0542C21.8833 19.6291 22.0013 19.1519 22 18.6694C21.9987 18.187 21.8782 17.7104 21.6469 17.2866L21.6394 17.273L14.3432 4.38485L14.3406 4.38016C14.104 3.9675 13.767 3.61959 13.357 3.37534C12.9465 3.13081 12.479 3 12 3ZM13 9C13 8.44772 12.5523 8 12 8C11.4477 8 11 8.44772 11 9V13C11 13.5523 11.4477 14 12 14C12.5523 14 13 13.5523 13 13V9ZM11.9998 15.5996C12.6625 15.5996 13.1998 16.1369 13.1998 16.7996C13.1998 17.4624 12.6625 17.9996 11.9998 17.9996C11.3371 17.9996 10.7998 17.4624 10.7998 16.7996C10.7998 16.1369 11.3371 15.5996 11.9998 15.5996Z" />
</svg>
