<svg width="1em" height="1em" viewBox="0 0 24 24" fill="none" xmlns="http://www.w3.org/2000/svg">
<path fill="currentColor" fill-rule="evenodd" clip-rule="evenodd" d="M4 5C3.44772 5 3 5.44772 3 6C3 6.55228 3.44772 7 4 7H20C20.5523 7 21 6.55228 21 6C21 5.44772 20.5523 5 20 5H4ZM4 13C3.44772 13 3 13.4477 3 14C3 14.5523 3.44772 15 4 15H20C20.5523 15 21 14.5523 21 14C21 13.4477 20.5523 13 20 13H4ZM8 10C8 9.44772 8.44772 9 9 9H20C20.5523 9 21 9.44772 21 10C21 10.5523 20.5523 11 20 11H9C8.44772 11 8 10.5523 8 10ZM9 17C8.44772 17 8 17.4477 8 18C8 18.5523 8.44772 19 9 19H20C20.5523 19 21 18.5523 21 18C21 17.4477 20.5523 17 20 17H9Z" />
</svg>
