<svg width="1em" height="1em" viewBox="0 0 24 24" fill="none" xmlns="http://www.w3.org/2000/svg">
<path fill="currentColor" fill-rule="evenodd" clip-rule="evenodd" d="M4 5C3.44772 5 3 5.44772 3 6C3 6.55228 3.44772 7 4 7H20C20.5523 7 21 6.55228 21 6C21 5.44772 20.5523 5 20 5H4ZM4 13C3.44772 13 3 13.4477 3 14C3 14.5523 3.44772 15 4 15H20C20.5523 15 21 14.5523 21 14C21 13.4477 20.5523 13 20 13H4ZM5.5 10C5.5 9.44772 5.94772 9 6.5 9H17.5C18.0523 9 18.5 9.44772 18.5 10C18.5 10.5523 18.0523 11 17.5 11H6.5C5.94772 11 5.5 10.5523 5.5 10ZM6.5 17C5.94772 17 5.5 17.4477 5.5 18C5.5 18.5523 5.94772 19 6.5 19H17.5C18.0523 19 18.5 18.5523 18.5 18C18.5 17.4477 18.0523 17 17.5 17H6.5Z" />
</svg>
