<svg width="1em" height="1em" viewBox="0 0 24 24" fill="currentColor" xmlns="http://www.w3.org/2000/svg">
<path fill-rule="evenodd" clip-rule="evenodd" d="M9.15646 2.95095C9.78389 2.47883 10.7372 2 12.0003 2C13.2634 2 14.2167 2.47883 14.8441 2.95095C14.9336 3.01828 15.0168 3.08566 15.0936 3.1518C15.379 2.9657 15.7373 2.76831 16.1481 2.62111C16.7077 2.42058 17.4057 2.29924 18.1561 2.47034C18.9209 2.64475 19.6382 3.10001 20.2574 3.87657C21.5389 5.48375 21.369 7.13859 20.9029 8.30779C20.7331 8.73384 20.5235 9.10157 20.3296 9.39387C20.5854 9.67339 20.8748 10.0379 21.1403 10.4857C21.8373 11.6612 22.3548 13.3949 21.6986 15.5696C21.0351 17.7689 19.5727 18.8972 18.2896 19.4528C17.658 19.7262 17.0714 19.8618 16.6421 19.9296C16.5813 19.9392 16.5234 19.9475 16.4687 19.9547C16.2966 20.1911 16.048 20.4804 15.7058 20.7668C14.9366 21.4106 13.7406 22 12.0003 22C10.26 22 9.06396 21.4106 8.29484 20.7668C7.95255 20.4804 7.70403 20.1911 7.53187 19.9547C7.47717 19.9475 7.41928 19.9392 7.3585 19.9296C6.92922 19.8618 6.3426 19.7262 5.71099 19.4528C4.42785 18.8972 2.96552 17.7689 2.30197 15.5696C1.64584 13.3949 2.1633 11.6612 2.86031 10.4857C3.12578 10.0379 3.41522 9.67339 3.671 9.39387C3.47706 9.10157 3.26753 8.73383 3.0977 8.30779C2.63163 7.13859 2.4617 5.48375 3.7432 3.87657C4.3624 3.10001 5.07965 2.64475 5.84452 2.47034C6.59489 2.29924 7.29286 2.42058 7.85249 2.62111C8.26329 2.76831 8.62159 2.9657 8.90695 3.1518C8.98384 3.08566 9.06699 3.01828 9.15646 2.95095ZM10.5 8.5C10.5 7.94772 10.0523 7.5 9.5 7.5C8.94772 7.5 8.5 7.94772 8.5 8.5V9.5C8.5 10.0523 8.94772 10.5 9.5 10.5C10.0523 10.5 10.5 10.0523 10.5 9.5V8.5ZM15.5 8.5C15.5 7.94772 15.0523 7.5 14.5 7.5C13.9477 7.5 13.5 7.94772 13.5 8.5V9.5C13.5 10.0523 13.9477 10.5 14.5 10.5C15.0523 10.5 15.5 10.0523 15.5 9.5V8.5ZM10 12.7998C10 12.2475 10.4477 11.7998 11 11.7998H13C13.5523 11.7998 14 12.2475 14 12.7998C14 13.3521 13.5523 13.7998 13 13.7998C13 13.9731 13.0602 14.2553 13.2115 14.4655C13.3261 14.6247 13.5259 14.7998 14 14.7998C14.5523 14.7998 15 15.2475 15 15.7998C15 16.3521 14.5523 16.7998 14 16.7998C13.1487 16.7998 12.4836 16.5188 12 16.0903C11.5164 16.5188 10.8513 16.7998 10 16.7998C9.44772 16.7998 9 16.3521 9 15.7998C9 15.2475 9.44772 14.7998 10 14.7998C10.4741 14.7998 10.6739 14.6247 10.7885 14.4655C10.9398 14.2553 11 13.9731 11 13.7998C10.4477 13.7998 10 13.3521 10 12.7998Z" fill="currentColor"/>
</svg>
