<svg width="1em" height="1em" viewBox="0 0 24 24" fill="currentColor" xmlns="http://www.w3.org/2000/svg">
<path fill-rule="evenodd" clip-rule="evenodd" d="M11.9998 2C10.7367 2 9.7834 2.47883 9.15597 2.95095C9.06651 3.01828 8.98335 3.08566 8.90646 3.1518C8.6211 2.9657 8.2628 2.76831 7.852 2.62111C7.29237 2.42058 6.5944 2.29924 5.84403 2.47034C5.07916 2.64475 4.36191 3.10001 3.74271 3.87657C2.46121 5.48375 2.63115 7.13859 3.09721 8.30779C3.26705 8.73384 3.47657 9.10157 3.67051 9.39388C3.41474 9.67339 3.12529 10.0379 2.85982 10.4857C2.16281 11.6612 1.64535 13.3949 2.30149 15.5696C2.96503 17.7689 4.42736 18.8972 5.7105 19.4528C6.34211 19.7262 6.92873 19.8618 7.35802 19.9296C7.41879 19.9392 7.47668 19.9475 7.53139 19.9547C7.70354 20.1911 7.95206 20.4804 8.29436 20.7668C9.06347 21.4106 10.2596 22 11.9998 22C13.7401 22 14.9365 21.4106 15.7056 20.7668C16.0479 20.4804 16.2965 20.1911 16.4686 19.9547C16.5233 19.9475 16.5812 19.9392 16.642 19.9296C17.0713 19.8618 17.6579 19.7262 18.2895 19.4528C19.5726 18.8972 21.035 17.7689 21.6985 15.5696C22.3546 13.3949 21.8372 11.6612 21.1402 10.4857C20.8747 10.0379 20.5853 9.67339 20.3295 9.39388C20.5234 9.10157 20.733 8.73384 20.9028 8.30779C21.3689 7.13859 21.5388 5.48375 20.2573 3.87657C19.6381 3.10001 18.9208 2.64475 18.156 2.47034C17.4056 2.29924 16.7076 2.42058 16.148 2.62111C15.7372 2.76831 15.3789 2.9657 15.0935 3.1518C15.0167 3.08566 14.9335 3.01828 14.844 2.95095C14.2166 2.47883 13.2629 2 11.9998 2ZM11.9998 20C13.2497 20 13.9963 19.5894 14.422 19.2332C14.6422 19.0489 14.7893 18.868 14.8778 18.741C14.9218 18.6777 14.9506 18.6289 14.9659 18.6013C14.9714 18.5914 14.9751 18.5843 14.9771 18.5804C15.135 18.2273 15.4857 18 15.8724 18H15.8802L15.8942 17.9996C15.9103 17.9991 15.9387 17.9979 15.978 17.9952C16.0568 17.9897 16.1779 17.9782 16.3297 17.9542C16.6356 17.9058 17.0527 17.8089 17.4949 17.6174C18.3594 17.2431 19.3252 16.5119 19.7838 14.9919C20.2498 13.4474 19.8853 12.2907 19.4198 11.5057C19.1816 11.1039 18.9132 10.7957 18.7059 10.5896C18.6029 10.4873 18.517 10.4123 18.4607 10.3655C18.4326 10.3422 18.4121 10.3262 18.4007 10.3175L18.3916 10.3105C17.8916 9.95343 17.8324 9.23211 18.2661 8.79694L18.2757 8.78689C18.2862 8.77567 18.3044 8.75594 18.3286 8.72833C18.3772 8.67291 18.4491 8.58696 18.5317 8.4753C18.6994 8.24874 18.8988 7.93373 19.045 7.56721C19.3263 6.86141 19.4054 6.01625 18.6935 5.12343C18.316 4.64999 17.9743 4.48025 17.7113 4.42029C17.4339 4.35701 17.1351 4.39192 16.8226 4.50389C16.5078 4.61672 16.2209 4.79346 16.0044 4.95315C15.8988 5.03108 15.8162 5.10028 15.7624 5.14769C15.7357 5.17128 15.7164 5.1891 15.7055 5.19946L15.6957 5.20881C15.2523 5.65371 14.5095 5.58337 14.1619 5.06019C14.1596 5.05698 14.1547 5.05021 14.1472 5.04032C14.1298 5.01746 14.099 4.97853 14.0549 4.92876C13.966 4.82843 13.8276 4.6891 13.6415 4.54905C13.2722 4.27117 12.7301 4 11.9998 4C11.2695 4 10.7278 4.27117 10.3585 4.54905C10.1724 4.6891 10.034 4.82843 9.9451 4.92876C9.90101 4.97853 9.8702 5.01746 9.85284 5.04032C9.84533 5.05021 9.84042 5.05698 9.83812 5.06019C9.49049 5.58337 8.74774 5.65371 8.30431 5.20881L8.29454 5.19946C8.28357 5.1891 8.26435 5.17128 8.23759 5.14769C8.18378 5.10028 8.10121 5.03108 7.99558 4.95315C7.77912 4.79346 7.49223 4.61672 7.17735 4.50389C6.86487 4.39192 6.56615 4.35701 6.28867 4.42029C6.0257 4.48025 5.68396 4.64999 5.30646 5.12343C4.59457 6.01625 4.6737 6.86141 4.95505 7.56721C5.10115 7.93373 5.30055 8.24874 5.46828 8.4753C5.55095 8.58696 5.62277 8.67291 5.67138 8.72833C5.6956 8.75594 5.71377 8.77567 5.72431 8.78689L5.73386 8.79694C6.16755 9.23211 6.10836 9.95343 5.60843 10.3105L5.5993 10.3175C5.58793 10.3262 5.5674 10.3422 5.53931 10.3655C5.48297 10.4123 5.39711 10.4873 5.29411 10.5896C5.08675 10.7957 4.8184 11.1039 4.58016 11.5057C4.1147 12.2907 3.75023 13.4474 4.21623 14.9919C4.67483 16.5119 5.64064 17.2431 6.50512 17.6174C6.94732 17.8089 7.36437 17.9058 7.6703 17.9542C7.82212 17.9782 7.94323 17.9897 8.02199 17.9952C8.06127 17.9979 8.0897 17.9991 8.1058 17.9996L8.11985 18H8.12756C8.51435 18 8.86503 18.2273 9.02295 18.5804L9.02602 18.5863L9.03415 18.6013C9.04943 18.6289 9.07819 18.6777 9.12225 18.741C9.21067 18.868 9.35784 19.0489 9.57801 19.2332C10.0037 19.5894 10.7499 20 11.9998 20ZM10.5 8.5C10.5 7.94772 10.0523 7.5 9.5 7.5C8.94771 7.5 8.5 7.94772 8.5 8.5V9.5C8.5 10.0523 8.94771 10.5 9.5 10.5C10.0523 10.5 10.5 10.0523 10.5 9.5V8.5ZM15.5 8.5C15.5 7.94772 15.0523 7.5 14.5 7.5C13.9477 7.5 13.5 7.94772 13.5 8.5V9.5C13.5 10.0523 13.9477 10.5 14.5 10.5C15.0523 10.5 15.5 10.0523 15.5 9.5V8.5ZM10 12.7998C10 12.2475 10.4477 11.7998 11 11.7998H13C13.5523 11.7998 14 12.2475 14 12.7998C14 13.3521 13.5523 13.7998 13 13.7998C13 13.9731 13.0602 14.2553 13.2115 14.4655C13.3261 14.6247 13.5259 14.7998 14 14.7998C14.5523 14.7998 15 15.2475 15 15.7998C15 16.3521 14.5523 16.7998 14 16.7998C13.1487 16.7998 12.4836 16.5188 12 16.0903C11.5164 16.5188 10.8513 16.7998 10 16.7998C9.44772 16.7998 9 16.3521 9 15.7998C9 15.2475 9.44772 14.7998 10 14.7998C10.4741 14.7998 10.6739 14.6247 10.7885 14.4655C10.9398 14.2553 11 13.9731 11 13.7998C10.4477 13.7998 10 13.3521 10 12.7998Z" fill="currentColor"/>
</svg>
