<svg width="1em" height="1em" viewBox="0 0 24 24" fill="none" xmlns="http://www.w3.org/2000/svg">
<path fill="currentColor" fill-rule="evenodd" clip-rule="evenodd" d="M4 2C2.89543 2 2 2.89543 2 4V9C2 10.1046 2.89543 11 4 11H9C10.1046 11 11 10.1046 11 9V4C11 2.89543 10.1046 2 9 2H4ZM4 13C2.89543 13 2 13.8954 2 15V20C2 21.1046 2.89543 22 4 22H9C10.1046 22 11 21.1046 11 20V15C11 13.8954 10.1046 13 9 13H4ZM13 15C13 13.8954 13.8954 13 15 13H20C21.1046 13 22 13.8954 22 15V20C22 21.1046 21.1046 22 20 22H15C13.8954 22 13 21.1046 13 20V15ZM18.5 3C18.5 2.44772 18.0523 2 17.5 2C16.9477 2 16.5 2.44772 16.5 3V5.5H14C13.4477 5.5 13 5.94771 13 6.5C13 7.05228 13.4477 7.5 14 7.5H16.5V10C16.5 10.5523 16.9477 11 17.5 11C18.0523 11 18.5 10.5523 18.5 10V7.5H21C21.5523 7.5 22 7.05228 22 6.5C22 5.94772 21.5523 5.5 21 5.5H18.5V3Z" />
</svg>
