<svg width="1em" height="1em" viewBox="0 0 24 24" fill="none" xmlns="http://www.w3.org/2000/svg">
<path fill="currentColor" fill-rule="evenodd" clip-rule="evenodd" d="M2 4C2 2.89543 2.89543 2 4 2H9C10.1046 2 11 2.89543 11 4V9C11 10.1046 10.1046 11 9 11H4C2.89543 11 2 10.1046 2 9V4ZM9 4H4V9H9V4ZM2 15C2 13.8954 2.89543 13 4 13H9C10.1046 13 11 13.8954 11 15V20C11 21.1046 10.1046 22 9 22H4C2.89543 22 2 21.1046 2 20V15ZM9 15H4V20H9V15ZM15 13C13.8954 13 13 13.8954 13 15V20C13 21.1046 13.8954 22 15 22H20C21.1046 22 22 21.1046 22 20V15C22 13.8954 21.1046 13 20 13H15ZM20 15V20H15V15H20ZM17.5 2C18.0523 2 18.5 2.44772 18.5 3V5.5H21C21.5523 5.5 22 5.94772 22 6.5C22 7.05228 21.5523 7.5 21 7.5H18.5V10C18.5 10.5523 18.0523 11 17.5 11C16.9477 11 16.5 10.5523 16.5 10V7.5H14C13.4477 7.5 13 7.05228 13 6.5C13 5.94771 13.4477 5.5 14 5.5H16.5V3C16.5 2.44772 16.9477 2 17.5 2Z" />
</svg>
