<svg width="1em" height="1em" viewBox="0 0 24 24" fill="none" xmlns="http://www.w3.org/2000/svg">
<path fill="currentColor" fill-rule="evenodd" clip-rule="evenodd" d="M2 6C2 4.34315 3.34315 3 5 3H19C20.6569 3 22 4.34315 22 6V7C22 8.10457 21.1046 9 20 9V18C20 19.6569 18.6569 21 17 21H7C5.34315 21 4 19.6569 4 18L4 9C2.89543 9 2 8.10457 2 7V6ZM6 9V18C6 18.5523 6.44772 19 7 19H17C17.5523 19 18 18.5523 18 18V9H6ZM20 7V6C20 5.44772 19.5523 5 19 5H5C4.44772 5 4 5.44772 4 6V7H5H19H20ZM8.5 12C8.5 11.4477 8.94772 11 9.5 11H14.5C15.0523 11 15.5 11.4477 15.5 12C15.5 12.5523 15.0523 13 14.5 13H9.5C8.94772 13 8.5 12.5523 8.5 12Z" />
</svg>
