<svg width="1em" height="1em" viewBox="0 0 24 24" fill="none" xmlns="http://www.w3.org/2000/svg">
<path fill="currentColor" fill-rule="evenodd" clip-rule="evenodd" d="M2 6C2 4.34315 3.34315 3 5 3H19C20.6569 3 22 4.34315 22 6C22 6.55228 21.5523 7 21 7H3C2.44772 7 2 6.55228 2 6ZM4 9L4 18C4 19.6569 5.34315 21 7 21H17C18.6569 21 20 19.6569 20 18V9H4ZM8.5 12C8.5 11.4477 8.94772 11 9.5 11H14.5C15.0523 11 15.5 11.4477 15.5 12C15.5 12.5523 15.0523 13 14.5 13H9.5C8.94772 13 8.5 12.5523 8.5 12Z" />
</svg>
