<svg width="1em" height="1em" viewBox="0 0 24 24" fill="none" xmlns="http://www.w3.org/2000/svg">
<path fill="currentColor" fill-rule="evenodd" clip-rule="evenodd" d="M4 12C4 7.58172 7.58172 4 12 4C16.4183 4 20 7.58172 20 12C20 16.4183 16.4183 20 12 20C7.58172 20 4 16.4183 4 12ZM12 2C6.47715 2 2 6.47715 2 12C2 17.5228 6.47715 22 12 22C17.5228 22 22 17.5228 22 12C22 6.47715 17.5228 2 12 2ZM13 8V13.5858L14.5429 12.0429C14.9334 11.6524 15.5666 11.6524 15.9571 12.0429C16.3476 12.4334 16.3476 13.0666 15.9571 13.4571L12.7071 16.7071C12.3166 17.0976 11.6834 17.0976 11.2929 16.7071L8.04289 13.4571C7.65237 13.0666 7.65237 12.4334 8.04289 12.0429C8.43342 11.6524 9.06658 11.6524 9.45711 12.0429L11 13.5858L11 8C11 7.44771 11.4477 7 12 7C12.5523 7 13 7.44771 13 8Z" />
</svg>
