<svg width="1em" height="1em" viewBox="0 0 24 24" fill="none" xmlns="http://www.w3.org/2000/svg">
<path fill="currentColor" fill-rule="evenodd" clip-rule="evenodd" d="M4 12C4 7.58172 7.58172 4 12 4C16.4183 4 20 7.58172 20 12C20 16.4183 16.4183 20 12 20C7.58172 20 4 16.4183 4 12ZM12 2C6.47715 2 2 6.47715 2 12C2 17.5228 6.47715 22 12 22C17.5228 22 22 17.5228 22 12C22 6.47715 17.5228 2 12 2ZM8.04289 10.5429L11.2929 7.29289C11.6834 6.90237 12.3166 6.90237 12.7071 7.29289L15.9571 10.5429C16.3476 10.9334 16.3476 11.5666 15.9571 11.9571C15.5666 12.3476 14.9334 12.3476 14.5429 11.9571L13 10.4142V16C13 16.5523 12.5523 17 12 17C11.4477 17 11 16.5523 11 16L11 10.4142L9.45711 11.9571C9.06658 12.3476 8.43342 12.3476 8.04289 11.9571C7.65237 11.5666 7.65237 10.9334 8.04289 10.5429Z" />
</svg>
