<svg width="1em" height="1em" viewBox="0 0 24 24" fill="none" xmlns="http://www.w3.org/2000/svg">
<path fill="currentColor" fill-rule="evenodd" clip-rule="evenodd" d="M4 12C4 7.58172 7.58172 4 12 4C16.4183 4 20 7.58172 20 12C20 16.4183 16.4183 20 12 20C7.58172 20 4 16.4183 4 12ZM12 2C6.47715 2 2 6.47715 2 12C2 17.5228 6.47715 22 12 22C17.5228 22 22 17.5228 22 12C22 6.47715 17.5228 2 12 2ZM14.8283 8.17188C15.3806 8.17188 15.8283 8.61959 15.8283 9.17188V13.7681C15.8283 14.3204 15.3806 14.7681 14.8283 14.7681C14.276 14.7681 13.8283 14.3204 13.8283 13.7681V11.5852L9.87874 15.5349C9.48821 15.9254 8.85505 15.9254 8.46452 15.5349C8.074 15.1444 8.074 14.5112 8.46452 14.1207L12.4131 10.1719H10.2321C9.67979 10.1719 9.23208 9.72416 9.23208 9.17188C9.23208 8.61959 9.67979 8.17188 10.2321 8.17188H14.8283Z" />
</svg>
