<svg width="1em" height="1em" viewBox="0 0 24 24" fill="none" xmlns="http://www.w3.org/2000/svg">
<path fill="currentColor" fill-rule="evenodd" clip-rule="evenodd" d="M2 12C2 6.47715 6.47715 2 12 2C17.5228 2 22 6.47715 22 12C22 17.5228 17.5228 22 12 22C6.47715 22 2 17.5228 2 12ZM13.7678 13.8285H11.5852L15.5356 9.87898C15.9261 9.48846 15.9261 8.85529 15.5356 8.46477C15.1451 8.07424 14.5119 8.07424 14.1214 8.46477L10.1716 12.4136L10.1716 10.2323C10.1716 9.67999 9.72392 9.23227 9.17163 9.23227C8.61935 9.23227 8.17163 9.67999 8.17163 10.2323V14.8285C8.17163 15.3808 8.61935 15.8285 9.17163 15.8285H13.7678C14.3201 15.8285 14.7678 15.3808 14.7678 14.8285C14.7678 14.2762 14.3201 13.8285 13.7678 13.8285Z" />
</svg>
