<svg width="1em" height="1em" viewBox="0 0 24 24" fill="none" xmlns="http://www.w3.org/2000/svg">
<path fill="currentColor" fill-rule="evenodd" clip-rule="evenodd" d="M4 12C4 7.58172 7.58172 4 12 4C16.4183 4 20 7.58172 20 12C20 16.4183 16.4183 20 12 20C7.58172 20 4 16.4183 4 12ZM12 2C6.47715 2 2 6.47715 2 12C2 17.5228 6.47715 22 12 22C17.5228 22 22 17.5228 22 12C22 6.47715 17.5228 2 12 2ZM9.17163 8.17188C8.61935 8.17188 8.17163 8.61959 8.17163 9.17188V13.7681C8.17163 14.3204 8.61935 14.7681 9.17163 14.7681C9.72392 14.7681 10.1716 14.3204 10.1716 13.7681V11.5869L14.1212 15.5367C14.5118 15.9272 15.1449 15.9272 15.5355 15.5367C15.926 15.1462 15.926 14.513 15.5355 14.1225L11.5851 10.1719H13.7678C14.3201 10.1719 14.7678 9.72416 14.7678 9.17188C14.7678 8.61959 14.3201 8.17188 13.7678 8.17188H9.17163Z" />
</svg>
