<svg width="1em" height="1em" viewBox="0 0 24 24" fill="none" xmlns="http://www.w3.org/2000/svg">
<path fill="currentColor" fill-rule="evenodd" clip-rule="evenodd" d="M4 12C4 7.58172 7.58172 4 12 4C16.4183 4 20 7.58172 20 12C20 16.4183 16.4183 20 12 20C7.58172 20 4 16.4183 4 12ZM12 2C6.47715 2 2 6.47715 2 12C2 17.5228 6.47715 22 12 22C17.5228 22 22 17.5228 22 12C22 6.47715 17.5228 2 12 2ZM10.2321 13.8278H12.4131L8.46452 9.87898C8.074 9.48846 8.074 8.85529 8.46452 8.46477C8.85505 8.07424 9.48821 8.07424 9.87874 8.46477L13.8283 12.4145L13.8283 10.2316C13.8283 9.67928 14.276 9.23157 14.8283 9.23157C15.3805 9.23157 15.8283 9.67928 15.8283 10.2316L15.8283 14.8278C15.8283 15.38 15.3805 15.8278 14.8283 15.8278H10.2321C9.67977 15.8278 9.23206 15.38 9.23206 14.8278C9.23206 14.2755 9.67977 13.8278 10.2321 13.8278Z" />
</svg>
