<svg width="1em" height="1em" viewBox="0 0 24 24" fill="none" xmlns="http://www.w3.org/2000/svg">
<path fill="currentColor" fill-rule="evenodd" clip-rule="evenodd" d="M2 12C2 6.47715 6.47715 2 12 2C17.5228 2 22 6.47715 22 12C22 17.5228 17.5228 22 12 22C6.47715 22 2 17.5228 2 12ZM16.7071 11.2929L13.4571 8.04289C13.0666 7.65237 12.4334 7.65237 12.0429 8.04289C11.6524 8.43342 11.6524 9.06658 12.0429 9.45711L13.5858 11H8C7.44771 11 7 11.4477 7 12C7 12.5523 7.44771 13 8 13L13.5858 13L12.0429 14.5429C11.6524 14.9334 11.6524 15.5666 12.0429 15.9571C12.4334 16.3476 13.0666 16.3476 13.4571 15.9571L16.7071 12.7071C17.0976 12.3166 17.0976 11.6834 16.7071 11.2929Z" />
</svg>
