<svg width="1em" height="1em" viewBox="0 0 24 24" fill="none" xmlns="http://www.w3.org/2000/svg">
<path fill="currentColor" fill-rule="evenodd" clip-rule="evenodd" d="M2 12C2 6.47715 6.47715 2 12 2C17.5228 2 22 6.47715 22 12C22 17.5228 17.5228 22 12 22C6.47715 22 2 17.5228 2 12ZM10.5429 8.04289L7.29289 11.2929C6.90237 11.6834 6.90237 12.3166 7.29289 12.7071L10.5429 15.9571C10.9334 16.3476 11.5666 16.3476 11.9571 15.9571C12.3476 15.5666 12.3476 14.9334 11.9571 14.5429L10.4142 13L16 13C16.5523 13 17 12.5523 17 12C17 11.4477 16.5523 11 16 11L10.4142 11L11.9571 9.45711C12.3476 9.06658 12.3476 8.43342 11.9571 8.04289C11.5666 7.65237 10.9334 7.65237 10.5429 8.04289Z" />
</svg>
