<svg width="1em" height="1em" viewBox="0 0 24 24" fill="none" xmlns="http://www.w3.org/2000/svg">
<path fill="currentColor" fill-rule="evenodd" clip-rule="evenodd" d="M2 12C2 6.47715 6.47715 2 12 2C17.5228 2 22 6.47715 22 12C22 17.5228 17.5228 22 12 22C6.47715 22 2 17.5228 2 12ZM10.2321 13.8278H12.4131L8.46452 9.87898C8.074 9.48846 8.074 8.85529 8.46452 8.46477C8.85505 8.07424 9.48821 8.07424 9.87874 8.46477L13.8283 12.4145L13.8283 10.2316C13.8283 9.67928 14.276 9.23157 14.8283 9.23157C15.3805 9.23157 15.8283 9.67928 15.8283 10.2316L15.8283 14.8278C15.8283 15.38 15.3805 15.8278 14.8283 15.8278H10.2321C9.67977 15.8278 9.23206 15.38 9.23206 14.8278C9.23206 14.2755 9.67977 13.8278 10.2321 13.8278Z" />
</svg>
