<svg width="1em" height="1em" viewBox="0 0 24 24" fill="none" xmlns="http://www.w3.org/2000/svg">
<path fill="currentColor" fill-rule="evenodd" clip-rule="evenodd" d="M20.0099 14.3468C19.4573 13.2967 19 10.8309 19 9C19 5.13401 15.866 2 12 2C8.13401 2 5.00001 5.13401 5.00001 9C5.00001 10.8309 4.54275 13.2967 3.99009 14.3468C3.42358 15.4231 2.81021 15.9695 2.5641 16.0997C2.23021 16.2617 2 16.604 2 17C2 17.5523 2.44772 18 3.00001 18H8V18.6C8 19.5829 8.48956 20.4664 9.25398 21.0779C10.0126 21.6848 11.0025 22 12 22C12.9975 22 13.9874 21.6848 14.746 21.0779C15.5104 20.4664 16 19.5829 16 18.6V18H21C21.5523 18 22 17.5523 22 17C22 16.6041 21.7699 16.2619 21.4361 16.0999C21.1902 15.9698 20.5766 15.4234 20.0099 14.3468ZM10 18.6V18H14V18.6C14 18.8901 13.8574 19.2275 13.4966 19.5162C13.13 19.8095 12.5938 20 12 20C11.4062 20 10.87 19.8095 10.5034 19.5162C10.1426 19.2276 10 18.8901 10 18.6Z" />
</svg>
