<svg width="1em" height="1em" viewBox="0 0 24 24" fill="none" xmlns="http://www.w3.org/2000/svg">
<path fill="currentColor" fill-rule="evenodd" clip-rule="evenodd" d="M12 4C9.23858 4 7 6.23858 7 9C7 11.1691 6.45727 13.9533 5.75993 15.2782C5.62618 15.5324 5.4845 15.7736 5.33737 16H18.6627C18.5155 15.7736 18.3738 15.5324 18.2401 15.2782C17.5428 13.9533 17 11.1691 17 9C17 6.23858 14.7614 4 12 4ZM19 9C19 10.8309 19.4573 13.2967 20.0099 14.3468C20.5766 15.4234 21.1902 15.9698 21.4361 16.0999C21.7699 16.2619 22 16.6041 22 17C22 17.5523 21.5523 18 21 18H16V18.6C16 19.5829 15.5104 20.4664 14.746 21.0779C13.9874 21.6848 12.9975 22 12 22C11.0025 22 10.0126 21.6848 9.25398 21.0779C8.48956 20.4664 8 19.5829 8 18.6V18H3.00001C2.44772 18 2 17.5523 2 17C2 16.604 2.23021 16.2617 2.5641 16.0997C2.81021 15.9695 3.42358 15.4231 3.99009 14.3468C4.54275 13.2967 5.00001 10.8309 5.00001 9C5.00001 5.13401 8.13401 2 12 2C15.866 2 19 5.13401 19 9ZM10 18V18.6C10 18.8901 10.1426 19.2276 10.5034 19.5162C10.87 19.8095 11.4062 20 12 20C12.5938 20 13.13 19.8095 13.4966 19.5162C13.8574 19.2275 14 18.8901 14 18.6V18H10Z" />
</svg>
