<svg width="1em" height="1em" viewBox="0 0 24 24" fill="none" xmlns="http://www.w3.org/2000/svg">
<path fill="currentColor" fill-rule="evenodd" clip-rule="evenodd" d="M7.15625 3C6.24153 3 5.5 3.74153 5.5 4.65625V10.5V12.5V19.25C5.5 20.2165 6.2835 21 7.25 21H14.25C17.1495 21 19.5 18.6495 19.5 15.75C19.5 13.712 18.3388 11.9453 16.6419 11.0753C17.482 10.2185 18 9.04473 18 7.75C18 5.12665 15.8734 3 13.25 3H7.15625ZM13.25 10.5C14.7688 10.5 16 9.26878 16 7.75C16 6.23122 14.7688 5 13.25 5H7.5V10.5H13.25ZM7.5 12.5V19H14.25C16.0449 19 17.5 17.5449 17.5 15.75C17.5 13.9551 16.0449 12.5 14.25 12.5H13.25H7.5Z" />
</svg>
