<svg width="1em" height="1em" viewBox="0 0 24 24" fill="none" xmlns="http://www.w3.org/2000/svg">
<path fill-rule="evenodd" clip-rule="evenodd" d="M11.0548 21.9985C10.9325 22.0053 10.8085 21.9897 10.6894 21.9508C10.5683 21.9113 10.4574 21.8493 10.3616 21.7697C10.1523 21.596 10.0151 21.3385 10.0012 21.0487C10.0002 21.0286 9.99979 21.0085 10 20.9884V14.8H5.00001C4.62231 14.8 4.27683 14.5872 4.10691 14.2499C3.937 13.9126 3.97163 13.5083 4.19645 13.2048L12.1895 2.41419C12.2019 2.39706 12.2148 2.38034 12.2282 2.36405C12.3194 2.25324 12.4301 2.16678 12.5515 2.10597C12.6709 2.04596 12.804 2.00916 12.9448 2.0015C13.0673 1.99466 13.1914 2.01022 13.3106 2.04917C13.4317 2.08869 13.5426 2.15071 13.6384 2.23027C13.7469 2.32005 13.8318 2.42856 13.8921 2.54757C13.965 2.69173 14.0017 2.85129 14 3.0116V9.2H19C19.3777 9.2 19.7232 9.41281 19.8931 9.75013C20.063 10.0875 20.0284 10.4917 19.8036 10.7952L11.8105 21.5859C11.7987 21.6022 11.7864 21.6181 11.7737 21.6336C11.59 21.8583 11.3264 21.9835 11.0548 21.9985ZM12 17.97V13.8C12 13.2477 11.5523 12.8 11 12.8H6.98521L12 6.03002V10.2C12 10.7523 12.4477 11.2 13 11.2H17.0148L12 17.97Z" fill="currentColor"/>
</svg>
