<svg width="1em" height="1em" viewBox="0 0 24 24" fill="none" xmlns="http://www.w3.org/2000/svg">
<path fill="currentColor" fill-rule="evenodd" clip-rule="evenodd" d="M5 5C5 3.34315 6.34315 2 8 2H16C17.6569 2 19 3.34315 19 5V21C19 21.4045 18.7564 21.7691 18.3827 21.9239C18.009 22.0787 17.5789 21.9931 17.2929 21.7071L12 16.4142L6.70711 21.7071C6.42111 21.9931 5.99099 22.0787 5.61732 21.9239C5.24364 21.7691 5 21.4045 5 21V5ZM8 4C7.44772 4 7 4.44772 7 5V18.5858L11.2929 14.2929C11.6834 13.9024 12.3166 13.9024 12.7071 14.2929L17 18.5858V5C17 4.44772 16.5523 4 16 4H8Z" />
</svg>
