<svg width="1em" height="1em" viewBox="0 0 24 24" fill="none" xmlns="http://www.w3.org/2000/svg">
<path fill="currentColor" fill-rule="evenodd" clip-rule="evenodd" d="M13 5.73244C13.5978 5.38663 14 4.74028 14 4C14 2.89543 13.1046 2 12 2C10.8954 2 10 2.89543 10 4C10 4.74028 10.4022 5.38663 11 5.73244V7H7C5.34315 7 4 8.34315 4 10V11H3C2.44772 11 2 11.4477 2 12V17C2 17.5523 2.44772 18 3 18H4V19C4 20.6569 5.34315 22 7 22H17C18.6569 22 20 20.6569 20 19V18H21C21.5523 18 22 17.5523 22 17V12C22 11.4477 21.5523 11 21 11H20V10C20 8.34315 18.6569 7 17 7H13V5.73244ZM9.5 14C10.3284 14 11 13.3284 11 12.5C11 11.6716 10.3284 11 9.5 11C8.67157 11 8 11.6716 8 12.5C8 13.3284 8.67157 14 9.5 14ZM14.5 14C15.3284 14 16 13.3284 16 12.5C16 11.6716 15.3284 11 14.5 11C13.6716 11 13 11.6716 13 12.5C13 13.3284 13.6716 14 14.5 14ZM9 17C9 16.4477 9.44772 16 10 16H14C14.5523 16 15 16.4477 15 17C15 17.5523 14.5523 18 14 18H10C9.44772 18 9 17.5523 9 17Z" />
</svg>
