<svg width="1em" height="1em" viewBox="0 0 24 24" fill="none" xmlns="http://www.w3.org/2000/svg">
<path fill="currentColor" fill-rule="evenodd" clip-rule="evenodd" d="M9 20C9 20.5523 8.55228 21 8 21C6.067 21 4.5 19.433 4.5 17.5V14.5C4.5 13.6716 3.82843 13 3 13C2.44771 13 2 12.5523 2 12C2 11.4477 2.44772 11 3 11C3.82843 11 4.5 10.3284 4.5 9.5V6.5C4.5 4.567 6.067 3 8 3C8.55228 3 9 3.44772 9 4C9 4.55228 8.55228 5 8 5C7.17157 5 6.5 5.67157 6.5 6.5V9.5C6.5 10.4793 6.09777 11.3647 5.44949 12C6.09776 12.6353 6.5 13.5207 6.5 14.5V17.5C6.5 18.3284 7.17157 19 8 19C8.55228 19 9 19.4477 9 20ZM15 20C15 20.5523 15.4477 21 16 21C17.933 21 19.5 19.433 19.5 17.5V14.5C19.5 13.6716 20.1716 13 21 13C21.5523 13 22 12.5523 22 12C22 11.4477 21.5523 11 21 11C20.1716 11 19.5 10.3284 19.5 9.5V6.5C19.5 4.567 17.933 3 16 3C15.4477 3 15 3.44772 15 4C15 4.55228 15.4477 5 16 5C16.8284 5 17.5 5.67157 17.5 6.5V9.5C17.5 10.4793 17.9022 11.3647 18.5505 12C17.9022 12.6353 17.5 13.5207 17.5 14.5V17.5C17.5 18.3284 16.8284 19 16 19C15.4477 19 15 19.4477 15 20Z" />
</svg>
