<svg width="1em" height="1em" viewBox="0 0 24 24" fill="none" xmlns="http://www.w3.org/2000/svg">
<path fill-rule="evenodd" clip-rule="evenodd" d="M10.5 5.5C10.5 4.67157 11.1716 4 12 4C12.8284 4 13.5 4.67157 13.5 5.5C13.5 6.32843 12.8284 7 12 7C11.1716 7 10.5 6.32843 10.5 5.5ZM13 8.85506C14.4457 8.42479 15.5 7.08551 15.5 5.5C15.5 3.567 13.933 2 12 2C10.067 2 8.5 3.567 8.5 5.5C8.5 7.08551 9.55426 8.42479 11 8.85506V11H7.5C5.84315 11 4.5 12.3431 4.5 14V15.1449C3.05426 15.5752 2 16.9145 2 18.5C2 20.433 3.567 22 5.5 22C7.433 22 9 20.433 9 18.5C9 16.9145 7.94574 15.5752 6.5 15.1449V14C6.5 13.4477 6.94772 13 7.5 13H16.5C17.0523 13 17.5 13.4477 17.5 14V15.1449C16.0543 15.5752 15 16.9145 15 18.5C15 20.433 16.567 22 18.5 22C20.433 22 22 20.433 22 18.5C22 16.9145 20.9457 15.5752 19.5 15.1449V14C19.5 12.3431 18.1569 11 16.5 11H13V8.85506ZM18.5 17C17.6716 17 17 17.6716 17 18.5C17 19.3284 17.6716 20 18.5 20C19.3284 20 20 19.3284 20 18.5C20 17.6716 19.3284 17 18.5 17ZM5.5 17C4.67157 17 4 17.6716 4 18.5C4 19.3284 4.67157 20 5.5 20C6.32843 20 7 19.3284 7 18.5C7 17.6716 6.32843 17 5.5 17Z" fill="currentColor"/>
</svg>
