<svg width="1em" height="1em" viewBox="0 0 24 24" fill="none" xmlns="http://www.w3.org/2000/svg">
<path fill="currentColor" fill-rule="evenodd" clip-rule="evenodd" d="M5 2C3.34315 2 2 3.34315 2 5V9.5V19C2 20.6569 3.34315 22 5 22H19C20.6569 22 22 20.6569 22 19V9.5V5C22 3.34315 20.6569 2 19 2H5ZM20 8.5V5C20 4.44772 19.5523 4 19 4H5C4.44772 4 4 4.44772 4 5V8.5H20ZM4 10.5H20V19C20 19.5523 19.5523 20 19 20H5C4.44772 20 4 19.5523 4 19V10.5ZM11.2 7.4C11.8627 7.4 12.4 6.86274 12.4 6.2C12.4 5.53726 11.8627 5 11.2 5C10.5373 5 10 5.53726 10 6.2C10 6.86274 10.5373 7.4 11.2 7.4ZM8.4 6.2C8.4 6.86274 7.86274 7.4 7.2 7.4C6.53726 7.4 6 6.86274 6 6.2C6 5.53726 6.53726 5 7.2 5C7.86274 5 8.4 5.53726 8.4 6.2Z" />
</svg>
