<svg width="1em" height="1em" viewBox="0 0 24 24" fill="none" xmlns="http://www.w3.org/2000/svg">
<path fill-rule="evenodd" clip-rule="evenodd" d="M3.74951 1.99805C3.28538 1.99805 2.84026 2.18242 2.51207 2.51061C2.18389 2.8388 1.99951 3.28392 1.99951 3.74805V21C1.99951 21.5523 2.44723 22 2.99951 22H13.4995H20.9995C21.5516 21.9997 21.9995 21.5521 21.9995 21V9.74805C21.9995 9.28392 21.8151 8.8388 21.4869 8.51061C21.1588 8.18242 20.7136 7.99805 20.2495 7.99805H14.4995V3.74805C14.4995 3.28392 14.3151 2.8388 13.9869 2.51061C13.6588 2.18242 13.2136 1.99805 12.7495 1.99805H3.74951ZM19.9995 9.99805V20H14.4995V9.99805H19.9995ZM12.4995 3.99805V8.99805V20H3.99951V3.99805H12.4995ZM5.99951 5.74805C5.44723 5.74805 4.99951 6.19576 4.99951 6.74805C4.99951 7.30033 5.44723 7.74805 5.99951 7.74805H8.99951C9.5518 7.74805 9.99951 7.30033 9.99951 6.74805C9.99951 6.19576 9.5518 5.74805 8.99951 5.74805H5.99951ZM6.49951 12.748C6.49951 12.1958 6.94723 11.748 7.49951 11.748H10.4995C11.0518 11.748 11.4995 12.1958 11.4995 12.748C11.4995 13.3003 11.0518 13.748 10.4995 13.748H7.49951C6.94723 13.748 6.49951 13.3003 6.49951 12.748ZM5.99951 15.498C5.44723 15.498 4.99951 15.9458 4.99951 16.498C4.99951 17.0503 5.44723 17.498 5.99951 17.498H8.99951C9.5518 17.498 9.99951 17.0503 9.99951 16.498C9.99951 15.9458 9.5518 15.498 8.99951 15.498H5.99951ZM15.4995 16.498C15.4995 15.9458 15.9472 15.498 16.4995 15.498H17.9995C18.5518 15.498 18.9995 15.9458 18.9995 16.498C18.9995 17.0503 18.5518 17.498 17.9995 17.498H16.4995C15.9472 17.498 15.4995 17.0503 15.4995 16.498ZM16.4995 11.748C15.9472 11.748 15.4995 12.1958 15.4995 12.748C15.4995 13.3003 15.9472 13.748 16.4995 13.748H17.9995C18.5518 13.748 18.9995 13.3003 18.9995 12.748C18.9995 12.1958 18.5518 11.748 17.9995 11.748H16.4995Z" fill="currentColor"/>
</svg>
