<svg width="1em" height="1em" viewBox="0 0 24 24" fill="none" xmlns="http://www.w3.org/2000/svg">
<path fill="currentColor" fill-rule="evenodd" clip-rule="evenodd" d="M16.6666 3C16.6666 2.44772 16.2189 2 15.6666 2C15.1143 2 14.6666 2.44772 14.6666 3V4H9.33337V3C9.33337 2.44772 8.88566 2 8.33337 2C7.78109 2 7.33337 2.44772 7.33337 3V4H5.77778C4.24365 4 3 5.24365 3 6.77778V19.2222C3 20.7563 4.24365 22 5.77778 22H18.2222C19.7563 22 21 20.7563 21 19.2222V6.77778C21 5.24365 19.7563 4 18.2222 4H16.6666V3ZM7.33337 6.5V6H5.77778C5.34822 6 5 6.34822 5 6.77778V9L19 9V6.77778C19 6.34822 18.6518 6 18.2222 6H16.6666V6.5C16.6666 7.05228 16.2189 7.5 15.6666 7.5C15.1143 7.5 14.6666 7.05228 14.6666 6.5V6H9.33337V6.5C9.33337 7.05228 8.88566 7.5 8.33337 7.5C7.78109 7.5 7.33337 7.05228 7.33337 6.5ZM5 19.2222V11L19 11V19.2222C19 19.6518 18.6518 20 18.2222 20H5.77778C5.34822 20 5 19.6518 5 19.2222ZM7.75 12C8.44036 12 9 12.5596 9 13.25C9 13.9404 8.44036 14.5 7.75 14.5C7.05964 14.5 6.5 13.9404 6.5 13.25C6.5 12.5596 7.05964 12 7.75 12ZM13.25 13.25C13.25 12.5596 12.6904 12 12 12C11.3096 12 10.75 12.5596 10.75 13.25C10.75 13.9404 11.3096 14.5 12 14.5C12.6904 14.5 13.25 13.9404 13.25 13.25ZM16.25 12C16.9404 12 17.5 12.5596 17.5 13.25C17.5 13.9404 16.9404 14.5 16.25 14.5C15.5596 14.5 15 13.9404 15 13.25C15 12.5596 15.5596 12 16.25 12ZM9 17.25C9 16.5596 8.44036 16 7.75 16C7.05964 16 6.5 16.5596 6.5 17.25C6.5 17.9404 7.05964 18.5 7.75 18.5C8.44036 18.5 9 17.9404 9 17.25ZM12 16C12.6904 16 13.25 16.5596 13.25 17.25C13.25 17.9404 12.6904 18.5 12 18.5C11.3096 18.5 10.75 17.9404 10.75 17.25C10.75 16.5596 11.3096 16 12 16ZM16.25 16C16.9404 16 17.5 16.5596 17.5 17.25C17.5 17.9404 16.9404 18.5 16.25 18.5C15.5596 18.5 15 17.9404 15 17.25C15 16.5596 15.5596 16 16.25 16Z" />
</svg>
