<svg width="1em" height="1em" viewBox="0 0 24 24" fill="none" xmlns="http://www.w3.org/2000/svg">
<path fill="currentColor" fill-rule="evenodd" clip-rule="evenodd" d="M16.6666 3C16.6666 2.44772 16.2189 2 15.6666 2C15.1143 2 14.6666 2.44772 14.6666 3V4H9.33337V3C9.33337 2.44772 8.88566 2 8.33337 2C7.78109 2 7.33337 2.44772 7.33337 3V4H5.77778C4.24365 4 3 5.24365 3 6.77778V19.2222C3 20.7563 4.24365 22 5.77778 22H18.2222C19.7563 22 21 20.7563 21 19.2222V6.77778C21 5.24365 19.7563 4 18.2222 4H16.6666V3ZM7.33337 6.5V6H5.77778C5.34822 6 5 6.34822 5 6.77778V9L19 9V6.77778C19 6.34822 18.6518 6 18.2222 6H16.6666V6.5C16.6666 7.05228 16.2189 7.5 15.6666 7.5C15.1143 7.5 14.6666 7.05228 14.6666 6.5V6H9.33337V6.5C9.33337 7.05228 8.88566 7.5 8.33337 7.5C7.78109 7.5 7.33337 7.05228 7.33337 6.5ZM5 19.2222V11L19 11V19.2222C19 19.6518 18.6518 20 18.2222 20H5.77778C5.34822 20 5 19.6518 5 19.2222Z" />
</svg>
