<svg width="1em" height="1em" viewBox="0 0 24 24" fill="none" xmlns="http://www.w3.org/2000/svg">
<path fill="currentColor" fill-rule="evenodd" clip-rule="evenodd" d="M15.6666 2C16.2189 2 16.6666 2.44772 16.6666 3V4H18.2222C19.7563 4 21 5.24365 21 6.77778V19.2222C21 20.7563 19.7563 22 18.2222 22H5.77778C4.24365 22 3 20.7563 3 19.2222V6.77778C3 5.24365 4.24365 4 5.77778 4H7.33337V3C7.33337 2.44772 7.78109 2 8.33337 2C8.88566 2 9.33337 2.44772 9.33337 3V4H14.6666V3C14.6666 2.44772 15.1143 2 15.6666 2ZM7.33337 6V6.5C7.33337 7.05228 7.78109 7.5 8.33337 7.5C8.88566 7.5 9.33337 7.05228 9.33337 6.5V6H14.6666V6.5C14.6666 7.05228 15.1143 7.5 15.6666 7.5C16.2189 7.5 16.6666 7.05228 16.6666 6.5V6H18.2222C18.6518 6 19 6.34822 19 6.77778V9L5 9V6.77778C5 6.34822 5.34822 6 5.77778 6H7.33337Z" />
</svg>
