<svg width="1em" height="1em" viewBox="0 0 24 24" fill="none" xmlns="http://www.w3.org/2000/svg">
<path fill="currentColor" fill-rule="evenodd" clip-rule="evenodd" d="M8.33337 2C8.88566 2 9.33337 2.44772 9.33337 3V4H14.6666V3C14.6666 2.44772 15.1143 2 15.6666 2C16.2189 2 16.6666 2.44772 16.6666 3V4H18.2222C19.7563 4 21 5.24365 21 6.77778V19.2222C21 20.7563 19.7563 22 18.2222 22H5.77778C4.24365 22 3 20.7563 3 19.2222V6.77778C3 5.24365 4.24365 4 5.77778 4H7.33337V3C7.33337 2.44772 7.78109 2 8.33337 2ZM7.33337 6H5.77778C5.34822 6 5 6.34822 5 6.77778V9L19 9V6.77778C19 6.34822 18.6518 6 18.2222 6H16.6666V6.5C16.6666 7.05228 16.2189 7.5 15.6666 7.5C15.1143 7.5 14.6666 7.05228 14.6666 6.5V6H9.33337V6.5C9.33337 7.05228 8.88566 7.5 8.33337 7.5C7.78109 7.5 7.33337 7.05228 7.33337 6.5V6ZM9 13.25C9 12.5596 8.44036 12 7.75 12C7.05964 12 6.5 12.5596 6.5 13.25C6.5 13.9404 7.05964 14.5 7.75 14.5C8.44036 14.5 9 13.9404 9 13.25ZM12 12C12.6904 12 13.25 12.5596 13.25 13.25C13.25 13.9404 12.6904 14.5 12 14.5C11.3096 14.5 10.75 13.9404 10.75 13.25C10.75 12.5596 11.3096 12 12 12ZM17.5 13.25C17.5 12.5596 16.9404 12 16.25 12C15.5596 12 15 12.5596 15 13.25C15 13.9404 15.5596 14.5 16.25 14.5C16.9404 14.5 17.5 13.9404 17.5 13.25ZM7.75 16C8.44036 16 9 16.5596 9 17.25C9 17.9404 8.44036 18.5 7.75 18.5C7.05964 18.5 6.5 17.9404 6.5 17.25C6.5 16.5596 7.05964 16 7.75 16ZM13.25 17.25C13.25 16.5596 12.6904 16 12 16C11.3096 16 10.75 16.5596 10.75 17.25C10.75 17.9404 11.3096 18.5 12 18.5C12.6904 18.5 13.25 17.9404 13.25 17.25ZM17.5 17.25C17.5 16.5596 16.9404 16 16.25 16C15.5596 16 15 16.5596 15 17.25C15 17.9404 15.5596 18.5 16.25 18.5C16.9404 18.5 17.5 17.9404 17.5 17.25Z" />
</svg>
