<svg width="1em" height="1em" viewBox="0 0 24 24" fill="currentColor" xmlns="http://www.w3.org/2000/svg">
<path fill-rule="evenodd" clip-rule="evenodd" d="M8.44153 5C8.0111 5 7.62896 5.27543 7.49285 5.68377L6.38744 9H17.6126L16.5072 5.68377C16.371 5.27543 15.9889 5 15.5585 5H13H11H8.44153ZM19.7525 9.09515L18.4045 5.05132C17.9962 3.82629 16.8498 3 15.5585 3H13H11H8.44153C7.15024 3 6.00382 3.82629 5.59548 5.05132L4.24754 9.09515C2.95487 9.42904 2 10.603 2 12V16C2 17.3113 2.84135 18.4262 4.0137 18.8341C4.00469 18.8881 4 18.9435 4 19V20C4 20.5523 4.44772 21 5 21H6C6.55228 21 7 20.5523 7 20V19H17V20C17 20.5523 17.4477 21 18 21H19C19.5523 21 20 20.5523 20 20V19C20 18.9435 19.9953 18.8881 19.9863 18.8341C21.1586 18.4262 22 17.3113 22 16V12C22 10.603 21.0451 9.42903 19.7525 9.09515ZM8 14C8 14.8284 7.32843 15.5 6.5 15.5C5.67157 15.5 5 14.8284 5 14C5 13.1716 5.67157 12.5 6.5 12.5C7.32843 12.5 8 13.1716 8 14ZM9.5 14C9.5 13.4477 9.94772 13 10.5 13H13.5C14.0523 13 14.5 13.4477 14.5 14C14.5 14.5523 14.0523 15 13.5 15H10.5C9.94772 15 9.5 14.5523 9.5 14ZM17.5 15.5C18.3284 15.5 19 14.8284 19 14C19 13.1716 18.3284 12.5 17.5 12.5C16.6716 12.5 16 13.1716 16 14C16 14.8284 16.6716 15.5 17.5 15.5Z" fill="currentColor"/>
</svg>
