<svg width="1em" height="1em" viewBox="0 0 24 24" fill="currentColor" xmlns="http://www.w3.org/2000/svg">
<path fill-rule="evenodd" clip-rule="evenodd" d="M7.49285 5.68377C7.62896 5.27543 8.0111 5 8.44153 5H11H13H15.5585C15.9889 5 16.371 5.27543 16.5072 5.68377L17.6126 9H6.38744L7.49285 5.68377ZM4.24754 9.09515L5.59548 5.05132C6.00382 3.82629 7.15024 3 8.44153 3H11H13H15.5585C16.8498 3 17.9962 3.82629 18.4045 5.05132L19.7525 9.09515C21.0451 9.42903 22 10.603 22 12V16C22 17.3113 21.1586 18.4262 19.9863 18.8341C19.9953 18.8881 20 18.9435 20 19V20C20 20.5523 19.5523 21 19 21H18C17.4477 21 17 20.5523 17 20V19H7V20C7 20.5523 6.55228 21 6 21H5C4.44772 21 4 20.5523 4 20V19C4 18.9435 4.00469 18.8881 4.0137 18.8341C2.84135 18.4262 2 17.3113 2 16V12C2 10.603 2.95487 9.42904 4.24754 9.09515ZM8 14C8 14.8284 7.32843 15.5 6.5 15.5C5.67157 15.5 5 14.8284 5 14C5 13.1716 5.67157 12.5 6.5 12.5C7.32843 12.5 8 13.1716 8 14ZM10.5 13C9.94772 13 9.5 13.4477 9.5 14C9.5 14.5523 9.94772 15 10.5 15H13.5C14.0523 15 14.5 14.5523 14.5 14C14.5 13.4477 14.0523 13 13.5 13H10.5ZM19 14C19 14.8284 18.3284 15.5 17.5 15.5C16.6716 15.5 16 14.8284 16 14C16 13.1716 16.6716 12.5 17.5 12.5C18.3284 12.5 19 13.1716 19 14ZM4 12C4 11.4477 4.44772 11 5 11H19C19.5523 11 20 11.4477 20 12V16C20 16.5523 19.5523 17 19 17H5C4.44772 17 4 16.5523 4 16V12Z" fill="currentColor"/>
</svg>
