<svg width="1em" height="1em" viewBox="0 0 24 24" fill="none" xmlns="http://www.w3.org/2000/svg">
<path fill-rule="evenodd" clip-rule="evenodd" d="M12.8575 2.4855C12.6768 2.1843 12.3512 2 12 2C11.6487 2 11.3232 2.1843 11.1425 2.4855L6.94249 9.4855C6.75714 9.79444 6.75228 10.1792 6.92979 10.4927C7.10729 10.8062 7.43972 11 7.79999 11H16.2C16.5603 11 16.8927 10.8062 17.0702 10.4927C17.2477 10.1792 17.2428 9.79444 17.0575 9.4855L12.8575 2.4855ZM9.56618 9L12 4.94365L14.4338 9H9.56618ZM2 15C2 13.8954 2.89543 13 4 13H9C10.1046 13 11 13.8954 11 15V20C11 21.1046 10.1046 22 9 22H4C2.89543 22 2 21.1046 2 20V15ZM9 15H4V20H9V15ZM13 17.5C13 15.0147 15.0147 13 17.5 13C19.9853 13 22 15.0147 22 17.5C22 19.9853 19.9853 22 17.5 22C15.0147 22 13 19.9853 13 17.5ZM17.5 15C16.1193 15 15 16.1193 15 17.5C15 18.8807 16.1193 20 17.5 20C18.8807 20 20 18.8807 20 17.5C20 16.1193 18.8807 15 17.5 15Z" fill="currentColor"/>
</svg>
