<svg width="1em" height="1em" viewBox="0 0 24 24" fill="none" xmlns="http://www.w3.org/2000/svg">
<path fill="currentColor" fill-rule="evenodd" clip-rule="evenodd" d="M13.1352 2.01212C11.9175 1.87773 11.022 2.88211 11.022 3.95607V10.9731C11.022 12.0804 11.9196 12.978 13.0268 12.978H20.0439C21.1179 12.978 22.1223 12.0825 21.9879 10.8648C21.4747 6.21513 17.7849 2.52528 13.1352 2.01212ZM13.0268 10.9731V4.01801C16.6537 4.46975 19.5302 7.34634 19.982 10.9731H13.0268ZM8.46076 4.78916C8.95655 4.54277 9.15873 3.94112 8.91234 3.44534C8.66596 2.94955 8.06431 2.74737 7.56852 2.99376C4.27021 4.63288 2 8.03821 2 11.9756C2 17.5119 6.48808 22 12.0244 22C15.9618 22 19.3671 19.7298 21.0063 16.4315C21.2527 15.9357 21.0505 15.3341 20.5547 15.0877C20.0589 14.8413 19.4573 15.0435 19.2109 15.5392C17.8974 18.1823 15.1717 19.9951 12.0244 19.9951C7.59534 19.9951 4.00488 16.4047 4.00488 11.9756C4.00488 8.82833 5.81774 6.10263 8.46076 4.78916Z" />
</svg>
