<svg width="1em" height="1em" viewBox="0 0 24 24" fill="none" xmlns="http://www.w3.org/2000/svg">
<path fill="currentColor" fill-rule="evenodd" clip-rule="evenodd" d="M11.0905 10.8894C11.0905 12.0051 11.9949 12.9095 13.1106 12.9095L21.0357 12.9095C21.6331 12.9095 22.1042 13.4269 21.9798 14.0111C21.8021 14.8463 21.5211 15.6438 21.1507 16.3892C19.4991 19.7125 16.0679 22 12.1006 22C6.52217 22 2 17.4778 2 11.8994C2 7.93212 4.28746 4.50092 7.61083 2.84934C8.35623 2.47891 9.15371 2.19791 9.98885 2.02018C10.5731 1.89584 11.0905 2.36693 11.0905 2.96426L11.0905 10.8894ZM21.0359 10.8894C21.6332 10.8894 22.1043 10.3716 21.98 9.78743C21.1538 5.90405 18.0959 2.84617 14.2126 2.02003C13.6284 1.89575 13.1106 2.36677 13.1106 2.96406L13.1106 9.87933C13.1106 10.4372 13.5628 10.8894 14.1207 10.8894H21.0359Z" />
</svg>
