<svg width="1em" height="1em" viewBox="0 0 24 24" fill="none" xmlns="http://www.w3.org/2000/svg">
<path fill="currentColor" fill-rule="evenodd" clip-rule="evenodd" d="M13.8599 4.26807C13.1935 2.58122 10.8061 2.58122 10.1397 4.26807L4.06973 19.6324C3.8668 20.1461 4.11869 20.727 4.63235 20.9299C5.146 21.1328 5.7269 20.8809 5.92983 20.3673L7.67635 15.9465C7.77786 15.9812 7.88673 16 8 16H16C16.1131 16 16.2219 15.9812 16.3233 15.9466L18.0697 20.3673C18.2727 20.8809 18.8536 21.1328 19.3672 20.9299C19.8809 20.727 20.1328 20.1461 19.9298 19.6324L13.8599 4.26807ZM15.5542 14L11.9998 5.00293L8.44534 14H15.5542Z" />
</svg>
