<svg width="1em" height="1em" viewBox="0 0 24 24" fill="none" xmlns="http://www.w3.org/2000/svg">
<path fill="currentColor" fill-rule="evenodd" clip-rule="evenodd" d="M8 5C8 3.34315 9.34315 2 11 2H13C14.6569 2 16 3.34315 16 5V7H19C20.6569 7 22 8.34315 22 10V21C22 21.5523 21.5523 22 21 22H15H9H3C2.44772 22 2 21.5523 2 21V14C2 12.3431 3.34315 11 5 11H8V5ZM14 20V8V5C14 4.44772 13.5523 4 13 4H11C10.4477 4 10 4.44772 10 5V12V20H14ZM16 20H20V10C20 9.44772 19.5523 9 19 9H16V20ZM8 13V20H4V14C4 13.4477 4.44772 13 5 13H8Z" />
</svg>
