<svg width="1em" height="1em" viewBox="0 0 24 24" fill="none" xmlns="http://www.w3.org/2000/svg">
<path fill="currentColor" fill-rule="evenodd" clip-rule="evenodd" d="M8.75 3.77201C8.75 3.2846 8.91287 2.7908 9.31601 2.51686C9.79612 2.19064 10.3758 2 11 2H13C13.6242 2 14.2039 2.19064 14.684 2.51686C15.0871 2.7908 15.25 3.2846 15.25 3.77201V22H8.75V3.77201ZM7.25 11H5C3.34315 11 2 12.3431 2 14V21C2 21.5523 2.44772 22 3 22H7.25V11ZM16.75 22H21C21.5523 22 22 21.5523 22 21V10C22 8.34315 20.6569 7 19 7H16.75V22Z" />
</svg>
