<svg width="1em" height="1em" viewBox="0 0 24 24" fill="none" xmlns="http://www.w3.org/2000/svg">
<path fill="currentColor" fill-rule="evenodd" clip-rule="evenodd" d="M12 4C7.58175 4 4.00003 7.58172 4.00003 12C4.00003 13.526 4.42634 14.9495 5.16585 16.1611C5.31445 16.4046 5.352 16.6999 5.26906 16.9728L4.52455 19.4227L6.82689 18.6364C7.11537 18.5379 7.43303 18.5763 7.68968 18.7408C8.93312 19.5378 10.4111 20 12 20C16.4183 20 20 16.4183 20 12C20 7.58172 16.4183 4 12 4ZM2.00003 12C2.00003 6.47715 6.47718 2 12 2C17.5229 2 22 6.47715 22 12C22 17.5228 17.5229 22 12 22C10.1931 22 8.49572 21.5199 7.03131 20.68L3.32321 21.9463C2.96806 22.0676 2.57491 21.9799 2.30506 21.719C2.03522 21.4582 1.93411 21.0683 2.04324 20.7092L3.22918 16.8069C2.44555 15.3797 2.00003 13.7406 2.00003 12Z" />
</svg>
