<svg width="1em" height="1em" viewBox="0 0 24 24" fill="none" xmlns="http://www.w3.org/2000/svg">
<path fill="currentColor" fill-rule="evenodd" clip-rule="evenodd" d="M12 2C6.47715 2 2 6.47715 2 12C2 13.7406 2.44552 15.3797 3.22915 16.8069L2.04321 20.7092C1.93408 21.0683 2.03519 21.4582 2.30503 21.719C2.57488 21.9799 2.96803 22.0676 3.32318 21.9463L7.03128 20.68C8.49569 21.5199 10.193 22 12 22C17.5228 22 22 17.5228 22 12C22 6.47715 17.5228 2 12 2ZM9.40001 12.0001C9.40001 12.7733 8.7732 13.4001 8.00001 13.4001C7.22681 13.4001 6.60001 12.7733 6.60001 12.0001C6.60001 11.2269 7.22681 10.6001 8.00001 10.6001C8.7732 10.6001 9.40001 11.2269 9.40001 12.0001ZM13.4 12.0001C13.4 12.7733 12.7732 13.4001 12 13.4001C11.2268 13.4001 10.6 12.7733 10.6 12.0001C10.6 11.2269 11.2268 10.6001 12 10.6001C12.7732 10.6001 13.4 11.2269 13.4 12.0001ZM17.4 12.0001C17.4 12.7733 16.7732 13.4001 16 13.4001C15.2268 13.4001 14.6 12.7733 14.6 12.0001C14.6 11.2269 15.2268 10.6001 16 10.6001C16.7732 10.6001 17.4 11.2269 17.4 12.0001Z" />
</svg>
