<svg width="1em" height="1em" viewBox="0 0 24 24" fill="none" xmlns="http://www.w3.org/2000/svg">
<path fill="currentColor" fill-rule="evenodd" clip-rule="evenodd" d="M12 4C7.58169 4 3.99997 7.58172 3.99997 12C3.99997 13.526 4.42628 14.9495 5.16579 16.1611C5.31439 16.4046 5.35194 16.6999 5.269 16.9728L4.52449 19.4227L6.82682 18.6364C7.1153 18.5379 7.43297 18.5763 7.68962 18.7408C8.93305 19.5378 10.411 20 12 20C16.4182 20 20 16.4183 20 12C20 7.58172 16.4182 4 12 4ZM1.99997 12C1.99997 6.47715 6.47712 2 12 2C17.5228 2 22 6.47715 22 12C22 17.5228 17.5228 22 12 22C10.193 22 8.49566 21.5199 7.03125 20.68L3.32315 21.9463C2.968 22.0676 2.57485 21.9799 2.305 21.719C2.03516 21.4582 1.93405 21.0683 2.04318 20.7092L3.22912 16.8069C2.44549 15.3797 1.99997 13.7406 1.99997 12ZM7.99997 10C7.99997 9.44772 8.44768 9 8.99997 9H15C15.5523 9 16 9.44772 16 10C16 10.5523 15.5523 11 15 11H8.99997C8.44768 11 7.99997 10.5523 7.99997 10ZM8.99997 13C8.44768 13 7.99997 13.4477 7.99997 14C7.99997 14.5523 8.44768 15 8.99997 15H13C13.5523 15 14 14.5523 14 14C14 13.4477 13.5523 13 13 13H8.99997Z" />
</svg>
