<svg width="1em" height="1em" viewBox="0 0 24 24" fill="none" xmlns="http://www.w3.org/2000/svg">
<path fill="currentColor" fill-rule="evenodd" clip-rule="evenodd" d="M4 12C4 7.58172 7.58172 4 12 4C16.4183 4 20 7.58172 20 12C20 16.4183 16.4183 20 12 20C10.411 20 8.93308 19.5378 7.68965 18.7408C7.433 18.5763 7.11534 18.5379 6.82686 18.6364L4.52452 19.4227L5.26903 16.9728C5.35197 16.6999 5.31442 16.4046 5.16582 16.1611C4.42631 14.9495 4 13.526 4 12ZM12 2C6.47715 2 2 6.47715 2 12C2 13.7406 2.44552 15.3797 3.22915 16.8069L2.04321 20.7092C1.93408 21.0683 2.03519 21.4582 2.30503 21.719C2.57488 21.9799 2.96803 22.0676 3.32318 21.9463L7.03128 20.68C8.49569 21.5199 10.193 22 12 22C17.5228 22 22 17.5228 22 12C22 6.47715 17.5228 2 12 2ZM9.40001 12C9.40001 12.7732 8.7732 13.4 8.00001 13.4C7.22681 13.4 6.60001 12.7732 6.60001 12C6.60001 11.2268 7.22681 10.6 8.00001 10.6C8.7732 10.6 9.40001 11.2268 9.40001 12ZM13.4 12C13.4 12.7732 12.7732 13.4 12 13.4C11.2268 13.4 10.6 12.7732 10.6 12C10.6 11.2268 11.2268 10.6 12 10.6C12.7732 10.6 13.4 11.2268 13.4 12ZM16 13.4C16.7732 13.4 17.4 12.7732 17.4 12C17.4 11.2268 16.7732 10.6 16 10.6C15.2268 10.6 14.6 11.2268 14.6 12C14.6 12.7732 15.2268 13.4 16 13.4Z" />
</svg>
