<svg width="1em" height="1em" viewBox="0 0 24 24" fill="none" xmlns="http://www.w3.org/2000/svg">
<path fill="currentColor" fill-rule="evenodd" clip-rule="evenodd" d="M9.50003 4C6.46246 4 4.00003 6.46243 4.00003 9.49998C4.00003 10.5371 4.28612 11.5043 4.78313 12.3304C4.89413 12.515 4.93862 12.7209 4.92354 12.9205C4.92367 13.016 4.90999 13.1132 4.88111 13.2095L4.53732 14.3554L5.52406 13.9855C5.55886 13.9719 5.59437 13.9603 5.63041 13.9506C5.72439 13.9253 5.81945 13.9144 5.913 13.9167C6.07753 13.9205 6.24342 13.9651 6.3954 14.0544L6.6068 14.1785L6.61611 14.1843C7.45392 14.7014 8.44058 15 9.50003 15C12.5376 15 15 12.5375 15 9.49998C15 6.46243 12.5376 4 9.50003 4ZM2.00003 9.49998C2.00003 10.7579 2.31047 11.9457 2.85931 12.9886L2.04217 15.7124C1.93299 16.0763 2.0395 16.4707 2.31705 16.7302C2.59461 16.9897 2.99525 17.0695 3.35104 16.9361L5.79253 16.0208C6.88674 16.6441 8.15316 17 9.50003 17C13.6422 17 17 13.6421 17 9.49998C17 5.35785 13.6422 2 9.50003 2C5.3579 2 2.00003 5.35785 2.00003 9.49998ZM14.3097 21.9998C11.5185 21.9998 9.06932 20.5298 7.72134 18.3238C8.29701 18.4394 8.89194 18.5 9.50002 18.5C9.79904 18.5 10.0947 18.4854 10.3862 18.4569C11.4059 19.4118 12.7865 19.9998 14.3097 19.9998C15.4087 19.9998 16.4314 19.6943 17.2988 19.1665L17.3081 19.1609L17.5254 19.0351C17.8082 18.8712 18.138 18.8615 18.4175 18.9799L19.4568 19.3641L19.093 18.1686C19.0632 18.0707 19.0491 17.9716 19.0494 17.8743C19.034 17.6725 19.0796 17.4642 19.193 17.2783C19.7056 16.4382 20 15.456 20 14.4037C20 12.9157 19.4079 11.5584 18.4391 10.5532C18.4793 10.2077 18.5 9.8563 18.5 9.50003C18.5 8.97154 18.4545 8.45369 18.3671 7.9502C20.5444 9.28852 22 11.6735 22 14.4037C22 15.6811 21.68 16.8866 21.1152 17.944L21.9567 20.7095C22.0673 21.0729 21.9624 21.4675 21.6861 21.7281C21.4097 21.9887 21.0096 22.0703 20.6533 21.9386L18.121 21.0026C16.9962 21.6375 15.6941 21.9998 14.3097 21.9998Z" />
</svg>
