<svg width="1em" height="1em" viewBox="0 0 24 24" fill="none" xmlns="http://www.w3.org/2000/svg">
<path fill="currentColor" fill-rule="evenodd" clip-rule="evenodd" d="M2 12C2 6.47715 6.47715 2 12 2C17.5228 2 22 6.47715 22 12C22 17.5228 17.5228 22 12 22C10.193 22 8.49569 21.5199 7.03128 20.68L3.32318 21.9463C2.96803 22.0676 2.57488 21.9799 2.30503 21.719C2.03519 21.4582 1.93408 21.0683 2.04321 20.7092L3.22915 16.8069C2.44552 15.3797 2 13.7406 2 12ZM9 9C8.44772 9 8 9.44772 8 10C8 10.5523 8.44772 11 9 11H15C15.5523 11 16 10.5523 16 10C16 9.44772 15.5523 9 15 9H9ZM8 14C8 13.4477 8.44772 13 9 13H13C13.5523 13 14 13.4477 14 14C14 14.5523 13.5523 15 13 15H9C8.44772 15 8 14.5523 8 14Z" />
</svg>
