<svg width="1em" height="1em" viewBox="0 0 24 24" fill="currentColor" xmlns="http://www.w3.org/2000/svg">
<path fill="currentColor" fill-rule="evenodd" clip-rule="evenodd" d="M21.7071 8.70711C22.0976 8.31658 22.0976 7.68342 21.7071 7.29289C21.3166 6.90237 20.6834 6.90237 20.2929 7.29289L13.0028 14.583L9.70992 11.2637C9.32095 10.8716 8.68779 10.8691 8.29572 11.2581C7.90364 11.647 7.90112 12.2802 8.29008 12.6723L12.2901 16.7043C12.4774 16.8931 12.7321 16.9995 12.998 17C13.2639 17.0005 13.5191 16.8951 13.7071 16.7071L21.7071 8.70711ZM7.00282 14.583L7.53988 14.0459L8.94846 15.4658L7.70711 16.7071C7.51908 16.8951 7.26391 17.0005 6.99801 17C6.7321 16.9995 6.47736 16.8931 6.29008 16.7043L2.29008 12.6723C1.90112 12.2802 1.90364 11.647 2.29572 11.2581C2.68779 10.8691 3.32095 10.8716 3.70992 11.2637L7.00282 14.583ZM15.7071 8.70711L12.484 11.9302L11.0754 10.5103L14.2929 7.29289C14.6834 6.90237 15.3166 6.90237 15.7071 7.29289C16.0976 7.68342 16.0976 8.31658 15.7071 8.70711Z" />
</svg>
