<svg width="1em" height="1em" viewBox="0 0 24 24" fill="none" xmlns="http://www.w3.org/2000/svg">
<path fill="currentColor" fill-rule="evenodd" clip-rule="evenodd" d="M5 2C3.34315 2 2 3.34315 2 5V19C2 20.6569 3.34315 22 5 22H19C20.6569 22 22 20.6569 22 19V5C22 3.34315 20.6569 2 19 2H5ZM16.1823 8.76895C16.5861 9.14578 16.6079 9.77857 16.2311 10.1823L11.5644 15.1823C11.3748 15.3855 11.1092 15.5006 10.8314 15.5C10.5535 15.4994 10.2884 15.3833 10.0996 15.1794L7.76624 12.6594C7.39102 12.2542 7.41535 11.6215 7.8206 11.2462C8.22584 10.871 8.85854 10.8953 9.23377 11.3006L10.8363 13.0313L14.7689 8.81769C15.1458 8.41393 15.7786 8.39211 16.1823 8.76895Z" />
</svg>
