<svg width="1em" height="1em" viewBox="0 0 24 24" fill="none" xmlns="http://www.w3.org/2000/svg">
<path fill="currentColor" fill-rule="evenodd" clip-rule="evenodd" d="M4.79289 18.2929C4.40237 18.6834 4.40237 19.3166 4.79289 19.7071C5.18342 20.0976 5.81658 20.0976 6.20711 19.7071L13.2071 12.7071C13.5976 12.3166 13.5976 11.6834 13.2071 11.2929L6.20711 4.29289C5.81658 3.90237 5.18342 3.90237 4.7929 4.29289C4.40237 4.68342 4.40237 5.31658 4.79289 5.70711L11.0858 12L4.79289 18.2929ZM11.2929 18.2929C10.9024 18.6834 10.9024 19.3166 11.2929 19.7071C11.6834 20.0976 12.3166 20.0976 12.7071 19.7071L19.7071 12.7071C20.0976 12.3166 20.0976 11.6834 19.7071 11.2929L12.7071 4.29289C12.3166 3.90237 11.6834 3.90237 11.2929 4.29289C10.9024 4.68342 10.9024 5.31658 11.2929 5.70711L17.5858 12L11.2929 18.2929Z" />
</svg>
