<svg width="1em" height="1em" viewBox="0 0 24 24" fill="none" xmlns="http://www.w3.org/2000/svg">
<path fill="currentColor" fill-rule="evenodd" clip-rule="evenodd" d="M5.70711 4.79289C5.31658 4.40237 4.68342 4.40237 4.29289 4.79289C3.90237 5.18342 3.90237 5.81658 4.29289 6.20711L11.2929 13.2071C11.6834 13.5976 12.3166 13.5976 12.7071 13.2071L19.7071 6.20711C20.0976 5.81658 20.0976 5.18342 19.7071 4.79289C19.3166 4.40237 18.6834 4.40237 18.2929 4.79289L12 11.0858L5.70711 4.79289ZM5.70711 11.2929C5.31658 10.9024 4.68342 10.9024 4.29289 11.2929C3.90237 11.6834 3.90237 12.3166 4.29289 12.7071L11.2929 19.7071C11.6834 20.0976 12.3166 20.0976 12.7071 19.7071L19.7071 12.7071C20.0976 12.3166 20.0976 11.6834 19.7071 11.2929C19.3166 10.9024 18.6834 10.9024 18.2929 11.2929L12 17.5858L5.70711 11.2929Z" />
</svg>
