<svg width="1em" height="1em" viewBox="0 0 24 24" fill="none" xmlns="http://www.w3.org/2000/svg">
<path fill="currentColor" fill-rule="evenodd" clip-rule="evenodd" d="M4 12C4 7.58172 7.58172 4 12 4C16.4183 4 20 7.58172 20 12C20 16.4183 16.4183 20 12 20C7.58172 20 4 16.4183 4 12ZM12 2C6.47715 2 2 6.47715 2 12C2 17.5228 6.47715 22 12 22C17.5228 22 22 17.5228 22 12C22 6.47715 17.5228 2 12 2ZM14.7474 9.84151C15.1111 9.42587 15.7429 9.38375 16.1585 9.74744C16.5741 10.1111 16.6162 10.7429 16.2526 11.1585L12.7526 15.1585C12.5627 15.3755 12.2883 15.5 12 15.5C11.7116 15.5 11.4373 15.3755 11.2474 15.1585L7.74741 11.1585C7.38373 10.7429 7.42584 10.1111 7.84148 9.74744C8.25712 9.38375 8.88888 9.42587 9.25256 9.84151L12 12.9814L14.7474 9.84151Z" />
</svg>
