<svg width="1em" height="1em" viewBox="0 0 24 24" fill="none" xmlns="http://www.w3.org/2000/svg">
<path fill="currentColor" fill-rule="evenodd" clip-rule="evenodd" d="M2 12C2 6.47715 6.47715 2 12 2C17.5228 2 22 6.47715 22 12C22 17.5228 17.5228 22 12 22C6.47715 22 2 17.5228 2 12ZM9.25259 14.1585C8.88891 14.5741 8.25715 14.6162 7.84151 14.2526C7.42587 13.8889 7.38375 13.2571 7.74744 12.8415L11.2474 8.84148C11.4373 8.62447 11.7117 8.49999 12 8.49999C12.2884 8.49999 12.5627 8.62447 12.7526 8.84148L16.2526 12.8415C16.6163 13.2571 16.5742 13.8889 16.1585 14.2526C15.7429 14.6162 15.1111 14.5741 14.7474 14.1585L12 11.0186L9.25259 14.1585Z" />
</svg>
