<svg width="1em" height="1em" viewBox="0 0 24 24" fill="none" xmlns="http://www.w3.org/2000/svg">
<path fill="currentColor" fill-rule="evenodd" clip-rule="evenodd" d="M2 12C2 6.47715 6.47715 2 12 2C17.5228 2 22 6.47715 22 12C22 17.5228 17.5228 22 12 22C6.47715 22 2 17.5228 2 12ZM9.84151 9.25259C9.42587 8.88891 9.38375 8.25715 9.74744 7.84151C10.1111 7.42587 10.7429 7.38376 11.1585 7.74744L15.1585 11.2474C15.3755 11.4373 15.5 11.7117 15.5 12C15.5 12.2884 15.3755 12.5627 15.1585 12.7526L11.1585 16.2526C10.7429 16.6163 10.1111 16.5742 9.74744 16.1585C9.38375 15.7429 9.42587 15.1111 9.84151 14.7474L12.9814 12L9.84151 9.25259Z" />
</svg>
