<svg width="1em" height="1em" viewBox="0 0 24 24" fill="none" xmlns="http://www.w3.org/2000/svg">
<path fill="currentColor" fill-rule="evenodd" clip-rule="evenodd" d="M18.2929 12.7071C18.6834 13.0976 19.3166 13.0976 19.7071 12.7071C20.0976 12.3166 20.0976 11.6834 19.7071 11.2929L12.7071 4.29289C12.3166 3.90237 11.6834 3.90237 11.2929 4.29289L4.29289 11.2929C3.90237 11.6834 3.90237 12.3166 4.29289 12.7071C4.68342 13.0976 5.31658 13.0976 5.70711 12.7071L12 6.41421L18.2929 12.7071ZM18.2929 19.2071C18.6834 19.5976 19.3166 19.5976 19.7071 19.2071C20.0976 18.8166 20.0976 18.1834 19.7071 17.7929L12.7071 10.7929C12.3166 10.4024 11.6834 10.4024 11.2929 10.7929L4.29289 17.7929C3.90237 18.1834 3.90237 18.8166 4.29289 19.2071C4.68342 19.5976 5.31658 19.5976 5.70711 19.2071L12 12.9142L18.2929 19.2071Z" />
</svg>
