<svg width="1em" height="1em" viewBox="0 0 24 24" fill="none" xmlns="http://www.w3.org/2000/svg">
<path fill="currentColor" fill-rule="evenodd" clip-rule="evenodd" d="M4 12C4 7.58172 7.58172 4 12 4C16.4183 4 20 7.58172 20 12C20 16.4183 16.4183 20 12 20C7.58172 20 4 16.4183 4 12ZM12 2C6.47715 2 2 6.47715 2 12C2 17.5228 6.47715 22 12 22C17.5228 22 22 17.5228 22 12C22 6.47715 17.5228 2 12 2ZM14.1585 9.25259C14.5741 8.88891 14.6162 8.25715 14.2526 7.84151C13.8889 7.42587 13.2571 7.38376 12.8415 7.74744L8.84148 11.2474C8.62447 11.4373 8.49999 11.7117 8.49999 12C8.49999 12.2884 8.62447 12.5627 8.84148 12.7526L12.8415 16.2526C13.2571 16.6163 13.8889 16.5742 14.2526 16.1585C14.6162 15.7429 14.5741 15.1111 14.1585 14.7474L11.0186 12L14.1585 9.25259Z" />
</svg>
