<svg width="1em" height="1em" viewBox="0 0 24 24" fill="none" xmlns="http://www.w3.org/2000/svg">
<path fill="currentColor" fill-rule="evenodd" clip-rule="evenodd" d="M12.7071 5.70711C13.0976 5.31658 13.0976 4.68342 12.7071 4.29289C12.3166 3.90237 11.6834 3.90237 11.2929 4.29289L4.29289 11.2929C3.90237 11.6834 3.90237 12.3166 4.29289 12.7071L11.2929 19.7071C11.6834 20.0976 12.3166 20.0976 12.7071 19.7071C13.0976 19.3166 13.0976 18.6834 12.7071 18.2929L6.41421 12L12.7071 5.70711ZM19.2071 5.70711C19.5976 5.31658 19.5976 4.68342 19.2071 4.29289C18.8166 3.90237 18.1834 3.90237 17.7929 4.29289L10.7929 11.2929C10.4024 11.6834 10.4024 12.3166 10.7929 12.7071L17.7929 19.7071C18.1834 20.0976 18.8166 20.0976 19.2071 19.7071C19.5976 19.3166 19.5976 18.6834 19.2071 18.2929L12.9142 12L19.2071 5.70711Z" />
</svg>
