<svg width="1em" height="1em" viewBox="0 0 24 24" fill="none" xmlns="http://www.w3.org/2000/svg">
<path fill-rule="evenodd" clip-rule="evenodd" d="M10 2C10.5523 2 11 2.44772 11 3V4H13V3C13 2.44772 13.4477 2 14 2C14.5523 2 15 2.44772 15 3V4H17C18.6569 4 20 5.34315 20 7V9H21C21.5523 9 22 9.44772 22 10C22 10.5523 21.5523 11 21 11H20V13H21C21.5523 13 22 13.4477 22 14C22 14.5523 21.5523 15 21 15H20V17C20 18.6569 18.6569 20 17 20H15V21C15 21.5523 14.5523 22 14 22C13.4477 22 13 21.5523 13 21V20H11V21C11 21.5523 10.5523 22 10 22C9.44772 22 9 21.5523 9 21V20H7C5.34315 20 4 18.6569 4 17V15H3C2.44772 15 2 14.5523 2 14C2 13.4477 2.44772 13 3 13H4V11H3C2.44772 11 2 10.5523 2 10C2 9.44772 2.44772 9 3 9H4V7C4 5.34315 5.34315 4 7 4H9V3C9 2.44772 9.44772 2 10 2ZM18 14V10V7C18 6.44772 17.5523 6 17 6H14H10H7C6.44772 6 6 6.44772 6 7V10V14V17C6 17.5523 6.44772 18 7 18H10H14H17C17.5523 18 18 17.5523 18 17V14ZM10 8C8.89543 8 8 8.89543 8 10V14C8 15.1046 8.89543 16 10 16H14C15.1046 16 16 15.1046 16 14V10C16 8.89543 15.1046 8 14 8H10ZM10 10H14V14H10V10Z" fill="currentColor"/>
</svg>
