<svg width="1em" height="1em" viewBox="0 0 24 24" fill="none" xmlns="http://www.w3.org/2000/svg">
<path fill-rule="evenodd" clip-rule="evenodd" d="M9.5 2C8.39543 2 7.5 2.89543 7.5 4H7C5.34315 4 4 5.34315 4 7V19C4 20.6569 5.34315 22 7 22H17C18.6569 22 20 20.6569 20 19V7C20 5.34315 18.6569 4 17 4H16.5C16.5 2.89543 15.6046 2 14.5 2H9.5ZM16.5 6C16.5 7.10457 15.6046 8 14.5 8H9.5C8.39543 8 7.5 7.10457 7.5 6H7C6.44772 6 6 6.44772 6 7V19C6 19.5523 6.44772 20 7 20H17C17.5523 20 18 19.5523 18 19V7C18 6.44772 17.5523 6 17 6H16.5ZM9.5 4H14.5V6H9.5V4ZM9 10.5C8.44772 10.5 8 10.9477 8 11.5C8 12.0523 8.44772 12.5 9 12.5L15 12.5C15.5523 12.5 16 12.0523 16 11.5C16 10.9477 15.5523 10.5 15 10.5L9 10.5ZM9 14.5C8.44772 14.5 8 14.9477 8 15.5C8 16.0523 8.44772 16.5 9 16.5H12C12.5523 16.5 13 16.0523 13 15.5C13 14.9477 12.5523 14.5 12 14.5H9Z" fill="currentColor"/>
</svg>
