<svg width="1em" height="1em" viewBox="0 0 24 24" fill="none" xmlns="http://www.w3.org/2000/svg">
<path fill="currentColor" fill-rule="evenodd" clip-rule="evenodd" d="M2 12C2 6.47715 6.47715 2 12 2C17.5228 2 22 6.47715 22 12C22 17.5228 17.5228 22 12 22C6.47715 22 2 17.5228 2 12ZM13 7C13 6.44772 12.5523 6 12 6C11.4477 6 11 6.44772 11 7V12C11 12.4374 11.2843 12.824 11.7017 12.9545L16.5017 14.4545C17.0289 14.6192 17.5897 14.3254 17.7545 13.7983C17.9192 13.2711 17.6254 12.7103 17.0983 12.5455L13 11.2648V7Z" />
</svg>
