<svg width="1em" height="1em" viewBox="0 0 20 20" fill="none" xmlns="http://www.w3.org/2000/svg">
<path fill="currentColor" fill-rule="evenodd" clip-rule="evenodd" d="M13.9775 7.61352C14.4168 7.17418 14.4168 6.46187 13.9775 6.02253C13.5381 5.58319 12.8258 5.58319 12.3865 6.02253L10 8.40901L7.61352 6.02253C7.17418 5.58319 6.46187 5.58319 6.02253 6.02253C5.58319 6.46187 5.58319 7.17418 6.02253 7.61352L8.40901 10L6.02253 12.3865C5.58319 12.8258 5.58319 13.5381 6.02253 13.9775C6.46187 14.4168 7.17418 14.4168 7.61352 13.9775L10 11.591L12.3865 13.9775C12.8258 14.4168 13.5381 14.4168 13.9775 13.9775C14.4168 13.5381 14.4168 12.8258 13.9775 12.3865L11.591 10L13.9775 7.61352Z" />
</svg>
