<svg width="1em" height="1em" viewBox="0 0 24 24" fill="none" xmlns="http://www.w3.org/2000/svg">
<path fill="currentColor" fill-rule="evenodd" clip-rule="evenodd" d="M2 5C2 3.34315 3.34315 2 5 2H19C20.6569 2 22 3.34315 22 5V19C22 20.6569 20.6569 22 19 22H5C3.34315 22 2 20.6569 2 19V5ZM15.5355 9.87868C15.9261 9.48815 15.9261 8.85499 15.5355 8.46446C15.145 8.07394 14.5118 8.07394 14.1213 8.46446L12 10.5858L9.87868 8.46446C9.48815 8.07394 8.85499 8.07394 8.46446 8.46446C8.07394 8.85499 8.07394 9.48815 8.46446 9.87868L10.5858 12L8.46446 14.1213C8.07394 14.5118 8.07394 15.145 8.46446 15.5355C8.85499 15.9261 9.48815 15.9261 9.87868 15.5355L12 13.4142L14.1213 15.5355C14.5118 15.9261 15.145 15.9261 15.5355 15.5355C15.9261 15.145 15.9261 14.5118 15.5355 14.1213L13.4142 12L15.5355 9.87868Z" />
</svg>
