<svg width="1em" height="1em" viewBox="0 0 24 24" fill="none" xmlns="http://www.w3.org/2000/svg">
<path fill="currentColor" fill-rule="evenodd" clip-rule="evenodd" d="M15.9363 4.35112C16.1302 3.834 15.8682 3.25759 15.3511 3.06367C14.834 2.86975 14.2576 3.13175 14.0637 3.64887L8.06367 19.6489C7.86975 20.166 8.13175 20.7424 8.64887 20.9363C9.16599 21.1302 9.74241 20.8682 9.93633 20.3511L15.9363 4.35112ZM7.1585 7.24744C7.57414 7.61112 7.61626 8.24288 7.25258 8.65852L4.32877 12L7.25258 15.3415C7.61626 15.7571 7.57414 16.3889 7.1585 16.7526C6.74287 17.1163 6.11111 17.0742 5.74742 16.6585L2.24742 12.6585C1.91753 12.2815 1.91753 11.7185 2.24742 11.3415L5.74742 7.34151C6.11111 6.92587 6.74287 6.88375 7.1585 7.24744ZM16.8415 7.24744C16.4259 7.61112 16.3837 8.24288 16.7474 8.65852L19.6712 12L16.7474 15.3415C16.3837 15.7571 16.4259 16.3889 16.8415 16.7526C17.2571 17.1163 17.8889 17.0742 18.2526 16.6585L21.7526 12.6585C22.0825 12.2815 22.0825 11.7185 21.7526 11.3415L18.2526 7.34151C17.8889 6.92587 17.2571 6.88375 16.8415 7.24744Z" />
</svg>
