<svg width="1em" height="1em" viewBox="0 0 24 24" fill="currentColor" xmlns="http://www.w3.org/2000/svg">
<path fill-rule="evenodd" clip-rule="evenodd" d="M8.5 2C9.05228 2 9.5 2.44772 9.5 3V6C9.5 6.55229 9.05228 7 8.5 7C7.94772 7 7.5 6.55229 7.5 6V3C7.5 2.44772 7.94772 2 8.5 2ZM12.5 2C13.0523 2 13.5 2.44772 13.5 3V6C13.5 6.55229 13.0523 7 12.5 7C11.9477 7 11.5 6.55229 11.5 6V3C11.5 2.44772 11.9477 2 12.5 2ZM5 8C3.89543 8 3 8.89543 3 10V14.5C3 18.6421 6.35786 22 10.5 22C13.5756 22 16.2187 20.1488 17.376 17.4998C19.9337 17.4769 22 15.3964 22 12.8333C22 11.2685 20.7315 10 19.1667 10H18C18 8.89543 17.1046 8 16 8H5ZM18 12V14.5V15.416C19.1502 15.12 20 14.0759 20 12.8333C20 12.3731 19.6269 12 19.1667 12H18Z" fill="currentColor"/>
</svg>
