<svg width="24" height="24" viewBox="0 0 24 24" fill="none" xmlns="http://www.w3.org/2000/svg">
<path fill-rule="evenodd" clip-rule="evenodd" d="M4 12C4 7.58172 7.58172 4 12 4C16.4578 4 20 7.09098 20 12C20 12.9628 19.8331 13.5294 19.4397 13.8446C19.0241 14.1777 18.0119 14.5066 15.5762 14.0194C14.3126 13.7667 13.2091 14.1649 12.5298 14.9829C11.8749 15.7716 11.6871 16.8722 12.0667 17.859C12.0782 17.889 12.0912 17.9184 12.1056 17.9472C12.2574 18.2509 12.4228 18.5096 12.5568 18.7162L12.5898 18.767C12.7155 18.9606 12.7972 19.0865 12.86 19.2083C12.9213 19.3271 12.935 19.3891 12.9384 19.4244C12.9411 19.4517 12.943 19.5112 12.8954 19.6309C12.8533 19.7368 12.7627 19.837 12.495 19.9139C12.2123 19.9952 11.8946 20 11.63 20C7.26599 20 4 16.4742 4 12ZM12 2C6.47715 2 2 6.47715 2 12C2 17.467 6.05285 22 11.63 22L11.6501 22C11.9099 22.0001 12.4761 22.0004 13.0477 21.8361C13.6495 21.663 14.3991 21.2632 14.7542 20.3691C14.9052 19.9888 14.9658 19.6108 14.9292 19.2319C14.8933 18.8609 14.7698 18.5479 14.6377 18.2917C14.5258 18.0747 14.3869 17.8615 14.2738 17.6879L14.2346 17.6276C14.1157 17.4444 14.0112 17.2787 13.919 17.101C13.8186 16.7994 13.8854 16.4811 14.0684 16.2607C14.2351 16.0599 14.5717 15.8581 15.184 15.9806C17.7483 16.4934 19.546 16.3223 20.6903 15.4054C21.857 14.4706 22 13.0372 22 12C22 5.90902 17.4833 2 12 2ZM10.5 6.5C10.5 5.672 11.172 5 12 5C12.828 5 13.5 5.672 13.5 6.5C13.5 7.328 12.828 8 12 8C11.172 8 10.5 7.328 10.5 6.5ZM6.70103 7.55002C7.11503 6.83302 8.03303 6.58702 8.75003 7.00102C9.46803 7.41502 9.71303 8.33302 9.29903 9.05002C8.88503 9.76802 7.96803 10.013 7.25003 9.59902C6.53303 9.18502 6.28703 8.26802 6.70103 7.55002ZM15.001 9.25003C14.587 8.53303 14.833 7.61503 15.55 7.20103C16.268 6.78703 17.185 7.03303 17.599 7.75003C18.013 8.46803 17.767 9.38503 17.05 9.79903C16.332 10.213 15.415 9.96803 15.001 9.25003ZM5.29723 13.339C4.83323 12.653 5.01423 11.72 5.70123 11.257C6.38823 10.793 7.32023 10.975 7.78323 11.661C8.24723 12.348 8.06523 13.28 7.37923 13.743C6.69223 14.207 5.76023 14.026 5.29723 13.339Z" fill="currentColor"/>
</svg>
