<svg width="1em" height="1em" viewBox="0 0 24 24" fill="none" xmlns="http://www.w3.org/2000/svg">
<path fill="currentColor" fill-rule="evenodd" clip-rule="evenodd" d="M9 2C7.34315 2 6 3.34315 6 5V19C6 20.6569 7.34315 22 9 22H15C16.6569 22 18 20.6569 18 19V5C18 3.34315 16.6569 2 15 2H9ZM8 5C8 4.44772 8.44772 4 9 4H15C15.5523 4 16 4.44772 16 5V19C16 19.5523 15.5523 20 15 20H9C8.44772 20 8 19.5523 8 19V5ZM11.8 17C11.2477 17 10.8 17.4477 10.8 18C10.8 18.5523 11.2477 19 11.8 19H12.3C12.8523 19 13.3 18.5523 13.3 18C13.3 17.4477 12.8523 17 12.3 17H11.8Z" />
</svg>
