<svg width="1em" height="1em" viewBox="0 0 24 24" fill="none" xmlns="http://www.w3.org/2000/svg">
<path fill="currentColor" fill-rule="evenodd" clip-rule="evenodd" d="M6.4001 5.58209C7.39404 5.58209 8.2001 4.78038 8.2001 3.79104C8.2001 2.80171 7.39404 2 6.4001 2C5.40615 2 4.6001 2.80171 4.6001 3.79104C4.6001 4.78038 5.40615 5.58209 6.4001 5.58209ZM12.0002 5.58209C12.9941 5.58209 13.8002 4.78038 13.8002 3.79104C13.8002 2.80171 12.9941 2 12.0002 2C11.0063 2 10.2002 2.80171 10.2002 3.79104C10.2002 4.78038 11.0063 5.58209 12.0002 5.58209ZM12.0002 11.0547C12.9941 11.0547 13.8002 10.253 13.8002 9.2637C13.8002 8.27437 12.9941 7.47266 12.0002 7.47266C11.0063 7.47266 10.2002 8.27437 10.2002 9.2637C10.2002 10.253 11.0063 11.0547 12.0002 11.0547ZM13.8002 14.7364C13.8002 15.7257 12.9941 16.5274 12.0002 16.5274C11.0063 16.5274 10.2002 15.7257 10.2002 14.7364C10.2002 13.747 11.0063 12.9453 12.0002 12.9453C12.9941 12.9453 13.8002 13.747 13.8002 14.7364ZM12.0002 22.0001C12.9941 22.0001 13.8002 21.1983 13.8002 20.209C13.8002 19.2197 12.9941 18.418 12.0002 18.418C11.0063 18.418 10.2002 19.2197 10.2002 20.209C10.2002 21.1983 11.0063 22.0001 12.0002 22.0001ZM19.3998 3.79104C19.3998 4.78038 18.5937 5.58209 17.5998 5.58209C16.6059 5.58209 15.7998 4.78038 15.7998 3.79104C15.7998 2.80171 16.6059 2 17.5998 2C18.5937 2 19.3998 2.80171 19.3998 3.79104ZM17.5998 11.0547C18.5937 11.0547 19.3998 10.253 19.3998 9.2637C19.3998 8.27437 18.5937 7.47266 17.5998 7.47266C16.6059 7.47266 15.7998 8.27437 15.7998 9.2637C15.7998 10.253 16.6059 11.0547 17.5998 11.0547ZM19.3998 14.7364C19.3998 15.7257 18.5937 16.5274 17.5998 16.5274C16.6059 16.5274 15.7998 15.7257 15.7998 14.7364C15.7998 13.747 16.6059 12.9453 17.5998 12.9453C18.5937 12.9453 19.3998 13.747 19.3998 14.7364ZM8.2001 9.2637C8.2001 10.253 7.39404 11.0547 6.4001 11.0547C5.40615 11.0547 4.6001 10.253 4.6001 9.2637C4.6001 8.27437 5.40615 7.47266 6.4001 7.47266C7.39404 7.47266 8.2001 8.27437 8.2001 9.2637ZM6.4001 16.5274C7.39404 16.5274 8.2001 15.7257 8.2001 14.7364C8.2001 13.747 7.39404 12.9453 6.4001 12.9453C5.40615 12.9453 4.6001 13.747 4.6001 14.7364C4.6001 15.7257 5.40615 16.5274 6.4001 16.5274Z" />
</svg>
