<svg width="1em" height="1em" viewBox="0 0 24 24" fill="none" xmlns="http://www.w3.org/2000/svg">
<path fill="currentColor" fill-rule="evenodd" clip-rule="evenodd" d="M14.3676 2.7212C15.3292 1.7596 16.8882 1.7596 17.8498 2.7212L21.2788 6.15018C22.2404 7.11178 22.2404 8.67084 21.2788 9.63244L19.2539 11.6573L16.1108 8.51418L12.3427 4.74609L14.3676 2.7212ZM11.0168 6.07192L3.11186 13.9769C2.69623 14.3925 2.44299 14.9431 2.39791 15.5292L2.00369 20.6541C1.9757 21.018 2.10809 21.3759 2.36612 21.6339C2.62415 21.8919 2.98204 22.0243 3.34587 21.9963L8.47082 21.6021C9.05688 21.557 9.60748 21.3038 10.0231 20.8881L17.9281 12.9832L14.7849 9.84L11.0168 6.07192Z" />
</svg>
