<svg width="1em" height="1em" viewBox="0 0 24 24" fill="none" xmlns="http://www.w3.org/2000/svg">
<path fill="currentColor" fill-rule="evenodd" clip-rule="evenodd" d="M16.6799 2.57696C15.9106 1.80768 14.6633 1.80768 13.8941 2.57696L12.2741 4.19687L15.2886 7.21134L17.8031 9.72587L19.423 8.10595C20.1923 7.33667 20.1923 6.08943 19.423 5.32015L16.6799 2.57696ZM4.88949 11.5815L11.2135 5.25753L14.2279 8.272L16.7425 10.7865L10.4185 17.1105C10.086 17.443 9.64551 17.6456 9.17666 17.6817L5.0767 17.9971C4.78563 18.0194 4.49932 17.9135 4.2929 17.7071C4.08647 17.5007 3.98056 17.2144 4.00295 16.9233L4.31833 12.8233C4.3544 12.3545 4.55699 11.914 4.88949 11.5815ZM3 20C2.44772 20 2 20.4477 2 21C2 21.5523 2.44772 22 3 22H21C21.5523 22 22 21.5523 22 21C22 20.4477 21.5523 20 21 20H3Z" />
</svg>
