<svg width="1em" height="1em" viewBox="0 0 24 24" fill="none" xmlns="http://www.w3.org/2000/svg">
<path fill="currentColor" fill-rule="evenodd" clip-rule="evenodd" d="M15.287 4.01248L13.6151 5.68437L16.3156 8.38493L17.9875 6.71305L15.287 4.01248ZM14.9014 9.79915L12.2009 7.09858L6.31158 12.9879L6.08653 15.9135L9.01215 15.6884L14.9014 9.79915ZM13.894 2.57696C14.6633 1.80768 15.9106 1.80768 16.6799 2.57696L19.423 5.32015C20.1923 6.08943 20.1923 7.33667 19.423 8.10595L10.4185 17.1105C10.086 17.443 9.6455 17.6456 9.17666 17.6817L5.0767 17.9971C4.78563 18.0194 4.49932 17.9135 4.29289 17.7071C4.08647 17.5007 3.98056 17.2144 4.00295 16.9233L4.31833 12.8233C4.35439 12.3545 4.55698 11.914 4.88948 11.5815L13.894 2.57696Z" />
<path fill="currentColor" fill-rule="evenodd" clip-rule="evenodd" d="M2 21C2 20.4477 2.44772 20 3 20H21C21.5523 20 22 20.4477 22 21C22 21.5523 21.5523 22 21 22H3C2.44772 22 2 21.5523 2 21Z" />
</svg>
