<svg width="1em" height="1em" viewBox="0 0 24 24" fill="none" xmlns="http://www.w3.org/2000/svg">
<path fill="currentColor" fill-rule="evenodd" clip-rule="evenodd" d="M4 12C4 7.58172 7.58172 4 12 4C16.4183 4 20 7.58172 20 12C20 16.4183 16.4183 20 12 20C7.58172 20 4 16.4183 4 12ZM12 2C6.47715 2 2 6.47715 2 12C2 17.5228 6.47715 22 12 22C17.5228 22 22 17.5228 22 12C22 6.47715 17.5228 2 12 2ZM10.4001 9.49998C10.4001 10.2732 9.7733 10.9 9.0001 10.9C8.2269 10.9 7.6001 10.2732 7.6001 9.49998C7.6001 8.72678 8.2269 8.09998 9.0001 8.09998C9.7733 8.09998 10.4001 8.72678 10.4001 9.49998ZM16.4001 9.49998C16.4001 10.2732 15.7733 10.9 15.0001 10.9C14.2269 10.9 13.6001 10.2732 13.6001 9.49998C13.6001 8.72678 14.2269 8.09998 15.0001 8.09998C15.7733 8.09998 16.4001 8.72678 16.4001 9.49998ZM16.5551 13.1686C17.0145 13.4751 17.1385 14.096 16.832 14.5554C16.3226 15.3189 15.6021 15.9361 14.7563 16.359C13.9108 16.7818 12.9607 17.0005 12.0001 17.0005C11.0395 17.0005 10.0895 16.7818 9.24393 16.3591C8.39812 15.9362 7.67759 15.319 7.16825 14.5555C6.86174 14.0961 6.9857 13.4752 7.44512 13.1687C7.90454 12.8622 8.52546 12.9861 8.83197 13.4455C9.13407 13.8984 9.57993 14.291 10.1383 14.5702C10.697 14.8495 11.3396 15.0005 12.0001 15.0005C12.6607 15.0005 13.3033 14.8495 13.8619 14.5702C14.4203 14.291 14.8661 13.8983 15.1682 13.4455C15.4747 12.9861 16.0956 12.8621 16.5551 13.1686Z" />
</svg>
