<svg width="1em" height="1em" viewBox="0 0 24 24" fill="none" xmlns="http://www.w3.org/2000/svg">
<path fill="currentColor" fill-rule="evenodd" clip-rule="evenodd" d="M4 11C4 7.13401 7.13401 4 11 4C14.866 4 18 7.13401 18 11C18 11.5523 18.4477 12 19 12C19.5523 12 20 11.5523 20 11C20 6.02944 15.9706 2 11 2C6.02944 2 2 6.02944 2 11C2 15.9706 6.02944 20 11 20C11.5523 20 12 19.5523 12 19C12 18.4477 11.5523 18 11 18C7.13401 18 4 14.866 4 11ZM13.6669 10.0217C14.3541 10.0217 14.9113 9.4645 14.9113 8.77721C14.9113 8.08993 14.3541 7.53277 13.6669 7.53277C12.9796 7.53277 12.4224 8.08993 12.4224 8.77721C12.4224 9.4645 12.9796 10.0217 13.6669 10.0217ZM8.33342 10.0219C9.02071 10.0219 9.57786 9.46472 9.57786 8.77743C9.57786 8.09014 9.02071 7.53299 8.33342 7.53299C7.64613 7.53299 7.08898 8.09014 7.08898 8.77743C7.08898 9.46472 7.64613 10.0219 8.33342 10.0219ZM15.1105 11.9459C15.57 12.2524 15.6939 12.8733 15.3874 13.3327C14.9232 14.0286 14.2675 14.5898 13.4997 14.9737C12.7321 15.3574 11.8705 15.5555 11 15.5556C10.1295 15.5556 9.26793 15.3575 8.50037 14.9737C7.73258 14.5898 7.07685 14.0287 6.61258 13.3328C6.30607 12.8734 6.43004 12.2525 6.88946 11.946C7.34888 11.6395 7.96979 11.7634 8.2763 12.2228C8.53333 12.6081 8.91439 12.9446 9.39478 13.1848C9.87541 13.4251 10.4295 13.5556 11 13.5556C11.5705 13.5556 12.1246 13.4251 12.6052 13.1848C13.0856 12.9446 13.4667 12.6081 13.7237 12.2228C14.0302 11.7634 14.6511 11.6394 15.1105 11.9459ZM17.9995 14C18.5518 14 18.9995 14.4477 18.9995 15V16.999H20.9989C21.5512 16.999 21.9989 17.4467 21.9989 17.999C21.9989 18.5513 21.5512 18.999 20.9989 18.999H18.9995V20.9989C18.9995 21.5512 18.5518 21.9989 17.9995 21.9989C17.4472 21.9989 16.9995 21.5512 16.9995 20.9989V18.999H15C14.4477 18.999 14 18.5513 14 17.999C14 17.4467 14.4477 16.999 15 16.999H16.9995V15C16.9995 14.4477 17.4472 14 17.9995 14Z" />
</svg>
