<svg width="1em" height="1em" viewBox="0 0 24 24" fill="none" xmlns="http://www.w3.org/2000/svg">
<path fill="currentColor" fill-rule="evenodd" clip-rule="evenodd" d="M2 12C2 6.47715 6.47715 2 12 2C17.5228 2 22 6.47715 22 12C22 17.5228 17.5228 22 12 22C6.47715 22 2 17.5228 2 12ZM10.4001 9.49961C10.4001 10.2728 9.7733 10.8996 9.0001 10.8996C8.2269 10.8996 7.6001 10.2728 7.6001 9.49961C7.6001 8.72641 8.2269 8.09961 9.0001 8.09961C9.7733 8.09961 10.4001 8.72641 10.4001 9.49961ZM16.4001 9.49961C16.4001 10.2728 15.7733 10.8996 15.0001 10.8996C14.2269 10.8996 13.6001 10.2728 13.6001 9.49961C13.6001 8.72641 14.2269 8.09961 15.0001 8.09961C15.7733 8.09961 16.4001 8.72641 16.4001 9.49961ZM16.5551 13.1682C17.0145 13.4747 17.1385 14.0956 16.832 14.5551C16.3226 15.3185 15.6021 15.9358 14.7563 16.3587C13.9108 16.7815 12.9607 17.0001 12.0001 17.0001C11.0395 17.0001 10.0895 16.7815 9.24393 16.3587C8.39812 15.9358 7.67759 15.3186 7.16825 14.5552C6.86174 14.0957 6.9857 13.4748 7.44512 13.1683C7.90454 12.8618 8.52546 12.9858 8.83197 13.4452C9.13407 13.898 9.57993 14.2907 10.1383 14.5698C10.697 14.8492 11.3396 15.0001 12.0001 15.0001C12.6607 15.0001 13.3033 14.8491 13.8619 14.5698C14.4203 14.2906 14.8661 13.898 15.1682 13.4451C15.4747 12.9857 16.0956 12.8617 16.5551 13.1682Z" />
</svg>
