<svg width="1em" height="1em" viewBox="0 0 24 24" fill="none" xmlns="http://www.w3.org/2000/svg">
<path fill="currentColor" fill-rule="evenodd" clip-rule="evenodd" d="M17.7729 3.8803C16.6148 2.71379 14.7386 2.70661 13.5717 3.85878L2.89048 13.4864L2.87094 13.5061C1.70969 14.6758 1.70969 16.5693 2.87094 17.739L5.52171 20.4091C5.89719 20.7873 6.40809 21 6.94104 21H10.5849L20 21C20.5523 21 21 20.5523 21 20C21 19.4477 20.5523 19 20 19L12.8038 19L21.1095 11.5135L21.1291 11.4938C22.2903 10.3241 22.2903 8.43064 21.1291 7.26093L17.7729 3.8803ZM6.64909 18.7059C6.83697 18.8952 7.09265 19.0015 7.35932 19.0014L9.81655 19L13.3768 15.791L8.60968 11.0239L4.27425 14.9317C3.90332 15.3227 3.90866 15.9455 4.29027 16.3299L6.64909 18.7059ZM10.0973 9.68305L14.8643 14.4501L19.7258 10.0683C20.0967 9.67718 20.0913 9.0544 19.7097 8.67L16.3535 5.28937C15.9705 4.90354 15.3525 4.90354 14.9695 5.28937L14.9499 5.30906L10.0973 9.68305Z" />
</svg>
