<svg width="1em" height="1em" viewBox="0 0 24 24" fill="none" xmlns="http://www.w3.org/2000/svg">
<path fill="currentColor" fill-rule="evenodd" clip-rule="evenodd" d="M13.5717 3.85878C14.7386 2.70661 16.6148 2.71379 17.7729 3.8803L21.1291 7.26093C22.2903 8.43064 22.2903 10.3241 21.1291 11.4938L21.1095 11.5135L12.8038 19L20 19C20.5523 19 21 19.4477 21 20C21 20.5523 20.5523 21 20 21L10.5849 21H6.94104C6.40809 21 5.89719 20.7873 5.52171 20.4091L2.87094 17.739C1.70969 16.5693 1.70969 14.6758 2.87094 13.5061L2.89048 13.4864L13.5717 3.85878ZM14.8643 14.4501L10.0973 9.68305L14.9499 5.30906L14.9695 5.28937C15.3525 4.90354 15.9705 4.90354 16.3535 5.28937L19.7097 8.67C20.0913 9.0544 20.0967 9.67718 19.7258 10.0683L14.8643 14.4501Z" />
</svg>
