<svg width="1em" height="1em" viewBox="0 0 24 24" fill="none" xmlns="http://www.w3.org/2000/svg">
<path fill="currentColor" fill-rule="evenodd" clip-rule="evenodd" d="M2 12C2 6.47715 6.47715 2 12 2C17.5228 2 22 6.47715 22 12C22 17.5228 17.5228 22 12 22C6.47715 22 2 17.5228 2 12ZM12 7C12.5523 7 13 7.44772 13 8V12C13 12.5523 12.5523 13 12 13C11.4477 13 11 12.5523 11 12V8C11 7.44772 11.4477 7 12 7ZM13.2 15.7996C13.2 15.1369 12.6627 14.5996 12 14.5996C11.3372 14.5996 10.8 15.1369 10.8 15.7996C10.8 16.4624 11.3372 16.9996 12 16.9996C12.6627 16.9996 13.2 16.4624 13.2 15.7996Z" />
</svg>
