<svg width="1em" height="1em" viewBox="0 0 24 24" fill="none" xmlns="http://www.w3.org/2000/svg">
<path fill="currentColor" fill-rule="evenodd" clip-rule="evenodd" d="M5.70711 4.29289C5.31658 3.90237 4.68342 3.90237 4.29289 4.29289C3.90237 4.68342 3.90237 5.31658 4.29289 5.70711L18.2929 19.7072C18.6834 20.0977 19.3166 20.0977 19.7071 19.7072C20.0977 19.3166 20.0977 18.6835 19.7071 18.293L5.70711 4.29289ZM2.08365 11.5997C2.70355 10.1809 3.59412 8.91425 4.69732 7.87933L8.5131 11.6951C8.50443 11.7956 8.5 11.8973 8.5 12C8.5 13.933 10.067 15.5 12 15.5C12.1027 15.5 12.2044 15.4956 12.3049 15.4869L15.3045 18.4866C14.2712 18.8198 13.1631 19 11.9999 19C7.46832 19 3.77203 16.2647 2.08365 12.4004C1.97212 12.1451 1.97212 11.8549 2.08365 11.5997ZM15.5 12C15.5 12.1028 15.4956 12.2045 15.4869 12.305L19.3026 16.1207C20.4059 15.0858 21.2965 13.8192 21.9164 12.4004C22.0279 12.1451 22.0279 11.8549 21.9164 11.5997C20.228 7.73534 16.5316 5.00003 11.9999 5.00003C10.8368 5.00003 9.72868 5.18023 8.69543 5.51348L11.6951 8.51313C11.7956 8.50446 11.8973 8.50003 12 8.50003C13.933 8.50003 15.5 10.067 15.5 12Z" />
</svg>
