<svg width="1em" height="1em" viewBox="0 0 24 24" fill="none" xmlns="http://www.w3.org/2000/svg">
<path fill="currentColor" fill-rule="evenodd" clip-rule="evenodd" d="M2.08365 11.5996C3.77203 7.73532 7.46832 5 11.9999 5C16.5316 5 20.228 7.73532 21.9164 11.5996C22.0279 11.8549 22.0279 12.1451 21.9164 12.4004C20.228 16.2647 16.5316 19 11.9999 19C7.46832 19 3.77203 16.2647 2.08365 12.4004C1.97212 12.1451 1.97212 11.8549 2.08365 11.5996ZM8.5 12C8.5 10.067 10.067 8.5 12 8.5C13.933 8.5 15.5 10.067 15.5 12C15.5 13.933 13.933 15.5 12 15.5C10.067 15.5 8.5 13.933 8.5 12Z" />
</svg>
