<svg width="1em" height="1em" viewBox="0 0 24 24" fill="none" xmlns="http://www.w3.org/2000/svg">
<path fill="currentColor" fill-rule="evenodd" clip-rule="evenodd" d="M5.70711 4.29289C5.31658 3.90237 4.68342 3.90237 4.29289 4.29289C3.90237 4.68342 3.90237 5.31658 4.29289 5.70711L18.2929 19.7072C18.6834 20.0977 19.3166 20.0977 19.7071 19.7072C20.0977 19.3166 20.0977 18.6835 19.7071 18.293L5.70711 4.29289ZM2.08365 11.5996C2.70355 10.1808 3.59412 8.91422 4.69732 7.8793L6.1119 9.29388C5.29208 10.0514 4.61048 10.968 4.10227 12C5.57041 14.9811 8.48545 17 11.9999 17C12.5712 17 13.1266 16.9467 13.6625 16.8445L15.3045 18.4865C14.2712 18.8198 13.1631 19 11.9999 19C7.46832 19 3.77203 16.2647 2.08365 12.4004C1.97212 12.1451 1.97212 11.8549 2.08365 11.5996ZM8 12C8 11.7443 8.02399 11.4942 8.06985 11.2518L12.7482 15.9302C12.5058 15.976 12.2557 16 12 16C9.79086 16 8 14.2091 8 12ZM11.2518 8.06985L15.9301 12.7482C15.976 12.5058 16 12.2557 16 12C16 9.79086 14.2091 8 12 8C11.7443 8 11.4942 8.02399 11.2518 8.06985ZM19.8977 12C19.3895 13.032 18.7079 13.9486 17.8881 14.7061L19.3026 16.1207C20.4059 15.0858 21.2965 13.8192 21.9164 12.4004C22.0279 12.1451 22.0279 11.8549 21.9164 11.5996C20.228 7.73532 16.5316 5 11.9999 5C10.8368 5 9.72868 5.18021 8.69543 5.51345L10.3374 7.15546C10.8733 7.05333 11.4287 7 11.9999 7C15.5144 7 18.4296 9.01888 19.8977 12Z" />
</svg>
