<svg width="1em" height="1em" viewBox="0 0 24 24" fill="none" xmlns="http://www.w3.org/2000/svg">
<path fill="currentColor" fill-rule="evenodd" clip-rule="evenodd" d="M12 12.5C14.2091 12.5 16 10.7091 16 8.5C16 6.29086 14.2091 4.5 12 4.5C9.79086 4.5 8 6.29086 8 8.5C8 10.7091 9.79086 12.5 12 12.5ZM18 8.5C18 11.473 15.8377 13.941 13 14.417V16.5H14.6399C15.1922 16.5 15.6399 16.9477 15.6399 17.5C15.6399 18.0523 15.1922 18.5 14.6399 18.5H13V20.4998C13 21.0521 12.5523 21.4998 12 21.4998C11.4477 21.4998 11 21.0521 11 20.4998V18.5H9.23989C8.68761 18.5 8.23989 18.0523 8.23989 17.5C8.23989 16.9477 8.68761 16.5 9.23989 16.5H11V14.417C8.16229 13.941 6 11.473 6 8.5C6 5.18629 8.68629 2.5 12 2.5C15.3137 2.5 18 5.18629 18 8.5Z" />
</svg>
