<svg width="1em" height="1em" viewBox="0 0 24 24" fill="none" xmlns="http://www.w3.org/2000/svg">
<path fill="currentColor" fill-rule="evenodd" clip-rule="evenodd" d="M7 4C6.44772 4 6 4.44772 6 5V19C6 19.5523 6.44772 20 7 20H17C17.5523 20 18 19.5523 18 19V10H13C12.4477 10 12 9.55228 12 9V4H7ZM14 5.41421L16.5858 8H14V5.41421ZM4 5C4 3.34315 5.34315 2 7 2H13C13.2652 2 13.5196 2.10536 13.7071 2.29289L19.7071 8.29289C19.8946 8.48043 20 8.73478 20 9V19C20 20.6569 18.6569 22 17 22H7C5.34315 22 4 20.6569 4 19V5ZM8 17C8 16.4477 8.44772 16 9 16H15C15.5523 16 16 16.4477 16 17C16 17.5523 15.5523 18 15 18H9C8.44772 18 8 17.5523 8 17ZM9 12.5C8.44772 12.5 8 12.9477 8 13.5C8 14.0523 8.44772 14.5 9 14.5H13C13.5523 14.5 14 14.0523 14 13.5C14 12.9477 13.5523 12.5 13 12.5H9Z" />
</svg>
