<svg width="1em" height="1em" viewBox="0 0 24 24" fill="none" xmlns="http://www.w3.org/2000/svg">
<path fill="currentColor" fill-rule="evenodd" clip-rule="evenodd" d="M7 2C5.34315 2 4 3.34315 4 5V19C4 20.6569 5.34315 22 7 22H17C18.6569 22 20 20.6569 20 19V9C20 8.73478 19.8946 8.48043 19.7071 8.29289L13.7071 2.29289C13.5196 2.10536 13.2652 2 13 2H7ZM18.0864 9.44997L12.55 3.91357V9.44997H18.0864ZM7.76855 17.25V18.4976C7.76855 18.775 7.5436 19 7.26611 19C6.98862 19 6.76367 18.775 6.76367 18.4976V14.5234C6.76367 14.2473 6.98753 14.0234 7.26367 14.0234H8.45898C8.95117 14.0234 9.3431 14.1761 9.63477 14.4814C9.92871 14.7868 10.0757 15.1833 10.0757 15.6709C10.0757 16.1585 9.93099 16.5436 9.6416 16.8262C9.35221 17.1087 8.95117 17.25 8.43848 17.25H7.76855ZM7.76855 16.2126C7.76855 16.3231 7.8581 16.4126 7.96855 16.4126H8.45898C8.65039 16.4126 8.7985 16.3499 8.90332 16.2246C9.00814 16.0993 9.06055 15.917 9.06055 15.6777C9.06055 15.4294 9.007 15.2323 8.8999 15.0864C8.79281 14.9383 8.64925 14.8631 8.46924 14.8608H7.96855C7.8581 14.8608 7.76855 14.9504 7.76855 15.0608V16.2126ZM11.249 19C10.9729 19 10.749 18.7761 10.749 18.5V14.5234C10.749 14.2473 10.9729 14.0234 11.249 14.0234H12.0649C12.646 14.0234 13.1086 14.208 13.4526 14.5771C13.799 14.9463 13.9756 15.4521 13.9824 16.0947V16.9014C13.9824 17.5553 13.8092 18.0692 13.4629 18.4429C13.1188 18.8143 12.6437 19 12.0376 19H11.249ZM12.0539 14.8608C11.8882 14.8608 11.7539 14.9952 11.7539 15.1608V17.866C11.7539 18.0317 11.889 18.166 12.0547 18.166C12.3896 18.166 12.6255 18.0783 12.7622 17.9028C12.8989 17.7251 12.9707 17.4198 12.9775 16.9868V16.1221C12.9775 15.6572 12.9126 15.3337 12.7827 15.1514C12.6528 14.9668 12.4318 14.87 12.1196 14.8608H12.0539ZM15.7119 17.2697C15.7119 17.104 15.8462 16.9697 16.0119 16.9697H16.8569C17.0872 16.9697 17.2739 16.783 17.2739 16.5527C17.2739 16.3224 17.0872 16.1357 16.8569 16.1357H16.0119C15.8462 16.1357 15.7119 16.0014 15.7119 15.8357V15.1608C15.7119 14.9952 15.8462 14.8608 16.0119 14.8608H17.0432C17.2745 14.8608 17.4619 14.6734 17.4619 14.4421C17.4619 14.2109 17.2745 14.0234 17.0432 14.0234H15.207C14.9309 14.0234 14.707 14.2473 14.707 14.5234V18.4976C14.707 18.775 14.932 19 15.2095 19C15.487 19 15.7119 18.775 15.7119 18.4976V17.2697Z" />
</svg>
