<svg width="1em" height="1em" viewBox="0 0 24 24" fill="none" xmlns="http://www.w3.org/2000/svg">
<path fill="currentColor" fill-rule="evenodd" clip-rule="evenodd" d="M7 2C5.34315 2 4 3.34315 4 5V19C4 20.6569 5.34315 22 7 22H17C18.6569 22 20 20.6569 20 19V9C20 8.73478 19.8946 8.48043 19.7071 8.29289L13.7071 2.29289C13.5196 2.10536 13.2652 2 13 2H7ZM18.0864 9.44997L12.55 3.91357V9.44997H18.0864ZM8 13.5C8 12.9477 8.44772 12.5 9 12.5H13C13.5523 12.5 14 12.9477 14 13.5C14 14.0523 13.5523 14.5 13 14.5H9C8.44772 14.5 8 14.0523 8 13.5ZM8 17C8 16.4477 8.44772 16 9 16H15C15.5523 16 16 16.4477 16 17C16 17.5523 15.5523 18 15 18H9C8.44772 18 8 17.5523 8 17Z" />
</svg>
