<svg width="1em" height="1em" viewBox="0 0 24 24" fill="none" xmlns="http://www.w3.org/2000/svg">
<path fill="currentColor" fill-rule="evenodd" clip-rule="evenodd" d="M7 2C5.34315 2 4 3.34315 4 5V19C4 20.6569 5.34315 22 7 22H17C18.6569 22 20 20.6569 20 19V9C20 8.73478 19.8946 8.48043 19.7071 8.29289L13.7071 2.29289C13.5196 2.10536 13.2652 2 13 2H7ZM18.0864 9.44997L12.55 3.91357V9.44997H18.0864ZM9.34006 17.3423C9.62548 17.3423 9.86116 17.5831 9.79462 17.8607C9.7183 18.1791 9.58184 18.4358 9.38525 18.6309C9.09131 18.9225 8.6766 19.0684 8.14111 19.0684C7.57829 19.0684 7.14648 18.8838 6.8457 18.5146C6.5472 18.1432 6.39795 17.6146 6.39795 16.9287V16.0913C6.39795 15.4077 6.5529 14.8813 6.86279 14.5122C7.17269 14.1408 7.60335 13.9551 8.15479 13.9551C8.6971 13.9551 9.1084 14.1066 9.38867 14.4097C9.57743 14.6121 9.71178 14.8736 9.79173 15.194C9.86085 15.471 9.62826 15.7153 9.34273 15.7153C9.0754 15.7153 8.87254 15.4981 8.80678 15.239C8.78003 15.1336 8.74385 15.0508 8.69824 14.9907C8.60026 14.8563 8.41911 14.7891 8.15479 14.7891C7.88591 14.7891 7.69564 14.8836 7.58398 15.0728C7.47233 15.2596 7.41309 15.5684 7.40625 15.999V16.939C7.40625 17.4334 7.46094 17.7729 7.57031 17.9575C7.68197 18.1421 7.87223 18.2344 8.14111 18.2344C8.40544 18.2344 8.58773 18.1706 8.68799 18.043C8.7311 17.9871 8.76621 17.9121 8.79331 17.8179C8.86765 17.5596 9.07122 17.3423 9.34006 17.3423ZM12.5845 17.6943C12.5845 17.4915 12.5321 17.3389 12.4272 17.2363C12.3247 17.1315 12.1367 17.0233 11.8633 16.9116C11.3643 16.7225 11.0054 16.5015 10.7866 16.2485C10.5679 15.9933 10.4585 15.6925 10.4585 15.3462C10.4585 14.9269 10.6066 14.5908 10.9028 14.3379C11.2013 14.0827 11.5796 13.9551 12.0376 13.9551C12.3429 13.9551 12.6152 14.02 12.8545 14.1499C13.0938 14.2775 13.2772 14.4587 13.4048 14.6934C13.4581 14.7898 13.5005 14.8916 13.532 14.9987C13.6098 15.2641 13.3754 15.4932 13.0989 15.4932C12.8223 15.4932 12.6341 15.2447 12.4838 15.0126C12.4726 14.9953 12.4606 14.9789 12.4478 14.9634C12.3498 14.8403 12.2074 14.7788 12.0205 14.7788C11.8451 14.7788 11.7083 14.8312 11.6104 14.936C11.5124 15.0386 11.4634 15.1776 11.4634 15.353C11.4634 15.4897 11.5181 15.6139 11.6274 15.7256C11.7368 15.835 11.9305 15.9489 12.2085 16.0674C12.6938 16.2428 13.0459 16.4582 13.2646 16.7134C13.4857 16.9686 13.5962 17.2933 13.5962 17.6875C13.5962 18.1204 13.4583 18.4588 13.1826 18.7026C12.9069 18.9465 12.5321 19.0684 12.0581 19.0684C11.7368 19.0684 11.444 19.0023 11.1797 18.8701C10.9154 18.738 10.708 18.5488 10.5576 18.3027C10.4886 18.1881 10.4357 18.0637 10.3988 17.9298C10.325 17.6613 10.5612 17.4312 10.8396 17.4312C11.118 17.4312 11.3136 17.6708 11.4285 17.9245C11.4514 17.9751 11.479 18.0191 11.5112 18.0566C11.6229 18.1865 11.8052 18.2515 12.0581 18.2515C12.409 18.2515 12.5845 18.0658 12.5845 17.6943ZM17.1396 14.0234C16.8941 14.0234 16.6809 14.1928 16.6254 14.432L15.8828 17.6328L15.1428 14.4303C15.0878 14.1921 14.8757 14.0234 14.6312 14.0234C14.2822 14.0234 14.0303 14.3576 14.1264 14.6931L15.2157 18.4968C15.3011 18.7947 15.5734 19 15.8833 19C16.1927 19 16.4648 18.7953 16.5506 18.498L17.6468 14.6976C17.7442 14.3601 17.4909 14.0234 17.1396 14.0234Z" />
</svg>
