<svg width="1em" height="1em" viewBox="0 0 24 24" fill="none" xmlns="http://www.w3.org/2000/svg">
<path fill="currentColor" fill-rule="evenodd" clip-rule="evenodd" d="M7 2C5.34315 2 4 3.34315 4 5V19C4 20.6569 5.34315 22 7 22H17C18.6569 22 20 20.6569 20 19V9C20 8.73478 19.8946 8.48043 19.7071 8.29289L13.7071 2.29289C13.5196 2.10536 13.2652 2 13 2H7ZM18.0864 9.44997L12.55 3.91357V9.44997H18.0864ZM13.7739 16.9595C13.7739 17.6271 13.6156 18.1455 13.2988 18.5146C12.9844 18.8838 12.5469 19.0684 11.9863 19.0684C11.4281 19.0684 10.9894 18.8861 10.6704 18.5215C10.3514 18.1546 10.1896 17.6419 10.1851 16.9834V16.1323C10.1851 15.4487 10.3434 14.9155 10.6602 14.5327C10.9769 14.1476 11.4167 13.9551 11.9795 13.9551C12.5332 13.9551 12.9696 14.1442 13.2886 14.5225C13.6076 14.8984 13.7694 15.4271 13.7739 16.1084V16.9595ZM12.7656 16.1255C12.7656 15.6766 12.7018 15.3428 12.5742 15.124C12.4466 14.9053 12.2484 14.7959 11.9795 14.7959C11.7129 14.7959 11.5158 14.9019 11.3882 15.1138C11.2606 15.3234 11.1945 15.6436 11.1899 16.0742V16.9595C11.1899 17.3947 11.2549 17.716 11.3848 17.9233C11.5146 18.1284 11.7152 18.231 11.9863 18.231C12.2484 18.231 12.4432 18.1307 12.5708 17.9302C12.6984 17.7274 12.7633 17.4141 12.7656 16.9902V16.1255ZM6.8125 19C6.53636 19 6.3125 18.7761 6.3125 18.5V14.5234C6.3125 14.2473 6.53636 14.0234 6.8125 14.0234H7.62842C8.20947 14.0234 8.67204 14.208 9.01611 14.5771C9.36247 14.9463 9.53906 15.4521 9.5459 16.0947V16.9014C9.5459 17.5553 9.37272 18.0692 9.02637 18.4429C8.68229 18.8143 8.20719 19 7.60107 19H6.8125ZM7.61738 14.8608C7.4517 14.8608 7.31738 14.9952 7.31738 15.1608V17.866C7.31738 18.0317 7.45248 18.166 7.61816 18.166C7.95312 18.166 8.18896 18.0783 8.32568 17.9028C8.4624 17.7251 8.53418 17.4198 8.54102 16.9868V16.1221C8.54102 15.6572 8.47607 15.3337 8.34619 15.1514C8.21631 14.9668 7.99528 14.87 7.68311 14.8608H7.61738ZM17.3901 18.6309C17.5867 18.4358 17.7232 18.1791 17.7995 17.8607C17.866 17.5831 17.6304 17.3423 17.3449 17.3423C17.0761 17.3423 16.8725 17.5596 16.7982 17.8179C16.7711 17.9121 16.736 17.9871 16.6929 18.043C16.5926 18.1706 16.4103 18.2344 16.146 18.2344C15.8771 18.2344 15.6868 18.1421 15.5752 17.9575C15.4658 17.7729 15.4111 17.4334 15.4111 16.939V15.999C15.418 15.5684 15.4772 15.2596 15.5889 15.0728C15.7005 14.8836 15.8908 14.7891 16.1597 14.7891C16.424 14.7891 16.6051 14.8563 16.7031 14.9907C16.7487 15.0508 16.7849 15.1336 16.8117 15.239C16.8774 15.4981 17.0803 15.7153 17.3476 15.7153C17.6331 15.7153 17.8657 15.471 17.7966 15.194C17.7167 14.8736 17.5823 14.6121 17.3936 14.4097C17.1133 14.1066 16.702 13.9551 16.1597 13.9551C15.6082 13.9551 15.1776 14.1408 14.8677 14.5122C14.5578 14.8813 14.4028 15.4077 14.4028 16.0913V16.9287C14.4028 17.6146 14.5521 18.1432 14.8506 18.5146C15.1514 18.8838 15.5832 19.0684 16.146 19.0684C16.6815 19.0684 17.0962 18.9225 17.3901 18.6309Z" />
</svg>
