<svg width="1em" height="1em" viewBox="0 0 24 24" fill="none" xmlns="http://www.w3.org/2000/svg">
<path fill="currentColor" fill-rule="evenodd" clip-rule="evenodd" d="M5.28975 6C5.58249 5.85388 6.01319 5.69905 6.58568 5.55593C7.93329 5.21903 9.848 5 12 5C14.152 5 16.0667 5.21903 17.4143 5.55593C17.9868 5.69905 18.4175 5.85388 18.7102 6C18.4175 6.14611 17.9868 6.30095 17.4143 6.44407C16.0667 6.78097 14.152 7 12 7C9.848 7 7.93329 6.78097 6.58568 6.44407C6.01319 6.30095 5.58249 6.14612 5.28975 6ZM6.10061 3.61564C7.64843 3.22869 9.73373 3 12 3C14.2663 3 16.3516 3.22869 17.8994 3.61564C18.6656 3.8072 19.3566 4.0512 19.8801 4.36064C20.3345 4.62922 20.9936 5.14701 21 5.98777C21.0028 6.21107 20.9313 6.43668 20.7809 6.62467L15 13.8508V18C15 18.3991 14.7662 18.7436 14.428 18.904L10.4472 20.8944C10.1372 21.0494 9.76909 21.0328 9.47428 20.8506C9.17946 20.6684 9.00001 20.3465 9.00001 20L9.00001 13.8508L3.21914 6.62467C3.06899 6.43699 2.99743 6.2118 3.00004 5.98886C3.00582 5.14746 3.66526 4.62934 4.11985 4.36064C4.64339 4.0512 5.33439 3.8072 6.10061 3.61564Z" />
</svg>
