<svg width="1em" height="1em" viewBox="0 0 24 24" fill="none" xmlns="http://www.w3.org/2000/svg">
<path fill="currentColor" fill-rule="evenodd" clip-rule="evenodd" d="M6.58568 5.55593C6.01319 5.69905 5.58249 5.85388 5.28975 6C5.58249 6.14612 6.01319 6.30095 6.58568 6.44407C7.93329 6.78097 9.848 7 12 7C14.152 7 16.0667 6.78097 17.4143 6.44407C17.9868 6.30095 18.4175 6.14611 18.7102 6C18.4175 5.85388 17.9868 5.69905 17.4143 5.55593C16.0667 5.21903 14.152 5 12 5C9.848 5 7.93329 5.21903 6.58568 5.55593ZM12 3C9.73373 3 7.64843 3.22869 6.10061 3.61564C5.33439 3.8072 4.64339 4.0512 4.11985 4.36064C3.66526 4.62934 3.00582 5.14746 3.00004 5.98886C2.99743 6.2118 3.06899 6.43699 3.21914 6.62467L9.00001 13.8508L9.00001 20C9.00001 20.3465 9.17946 20.6684 9.47428 20.8506C9.76909 21.0328 10.1372 21.0494 10.4472 20.8944L14.428 18.904C14.7662 18.7436 15 18.3991 15 18V13.8508L20.7809 6.62467C20.9313 6.43668 21.0028 6.21107 21 5.98777C20.9936 5.14701 20.3345 4.62922 19.8801 4.36064C19.3566 4.0512 18.6656 3.8072 17.8994 3.61564C16.3516 3.22869 14.2663 3 12 3ZM16.5983 8.65136C15.262 8.87421 13.6808 9 12 9C10.3192 9 8.738 8.87421 7.40174 8.65136L10.7809 12.8753C10.9227 13.0526 11 13.2729 11 13.5V18.3819L13 17.3819V13.5C13 13.2729 13.0773 13.0526 13.2191 12.8753L16.5983 8.65136Z" />
</svg>
