<svg width="1em" height="1em" viewBox="0 0 24 24" fill="none" xmlns="http://www.w3.org/2000/svg">
<path fill-rule="evenodd" clip-rule="evenodd" d="M5 4.64132V12.5881L5.2001 12.5164C7.67086 11.6309 10.4023 11.8389 12.7102 13.0882L12.9614 13.2242C14.8353 14.2386 17.0787 14.2972 19 13.3886V5.44188L18.7999 5.51359C16.3291 6.39905 13.5977 6.1911 11.2898 4.94173L11.0386 4.80577C9.16474 3.79137 6.92126 3.73274 5 4.64132ZM21 5.30053C21 3.98368 19.6939 3.06866 18.457 3.51192L18.1252 3.63085C16.1896 4.32452 14.0497 4.16155 12.2419 3.18291L11.9907 3.04695C9.5013 1.69932 6.51016 1.64996 3.97754 2.91469C3.3789 3.21364 3 3.82521 3 4.49502V13.9855C2.99964 14.001 2.99963 14.0165 3 14.032V21C3 21.5523 3.44771 22 4 22C4.55228 22 5 21.5523 5 21V14.7126L5.87483 14.3991C7.81043 13.7055 9.95028 13.8684 11.7581 14.8471L12.0093 14.983C14.4987 16.3307 17.4898 16.38 20.0225 15.1153C20.6211 14.8163 21 14.2048 21 13.5349V5.30053Z" fill="currentColor"/>
</svg>
