<svg width="1e" height="1em" viewBox="0 0 24 24" fill="none" xmlns="http://www.w3.org/2000/svg">
<path fill-rule="evenodd" clip-rule="evenodd" d="M18.457 3.51192C19.6939 3.06866 21 3.98368 21 5.30053V13.5349C21 14.2048 20.6211 14.8163 20.0225 15.1153C17.4899 16.38 14.4987 16.3307 12.0093 14.983L11.7581 14.8471C9.95032 13.8684 7.81046 13.7055 5.87486 14.3991L5.00003 14.7126V21C5.00003 21.5523 4.55231 22 4.00003 22C3.44774 22 3.00003 21.5523 3.00003 21V14.032C2.99966 14.0165 2.99967 14.001 3.00003 13.9855V4.49502C3.00003 3.82521 3.37893 3.21364 3.97757 2.91469C6.51019 1.64996 9.50133 1.69932 11.9908 3.04695L12.2419 3.18291C14.0497 4.16155 16.1896 4.32452 18.1252 3.63085L18.457 3.51192Z" fill="currentColor"/>
</svg>
