<svg width="1em" height="1em" viewBox="0 0 32 32" fill="none" xmlns="http://www.w3.org/2000/svg">
<path fill-rule="evenodd" clip-rule="evenodd" d="M5.33317 5.3335C3.86041 5.3335 2.6665 6.5274 2.6665 8.00016V14.6668V24.0002C2.6665 25.4729 3.86041 26.6668 5.33317 26.6668H26.6665C28.1393 26.6668 29.3332 25.4729 29.3332 24.0002V10.6668C29.3332 9.19407 28.1393 8.00016 26.6665 8.00016L15.2188 8.00016L13.3332 6.11454C12.8331 5.61445 12.1548 5.3335 11.4476 5.3335H5.33317ZM5.33317 16.0002V24.0002H26.6665V16.0002H5.33317ZM26.6665 13.3335H5.33317V8.00016L11.4476 8.00016L13.3332 9.88578C13.8333 10.3859 14.5115 10.6668 15.2188 10.6668H26.6665V13.3335Z" fill="#0F82E6"/>
</svg>
