<svg width="1em" height="1em" viewBox="0 0 24 24" fill="currentColor" xmlns="http://www.w3.org/2000/svg">
<path fill-rule="evenodd" clip-rule="evenodd" d="M10.8078 4.08975C8.85687 4.3851 7.02982 5.39653 5.74476 7.01202C5.76447 7.05036 5.78226 7.09004 5.79797 7.13097L6.85823 9.89305C7.04453 10.3784 6.89713 10.9285 6.49312 11.2557L4.19387 13.1176C4.1601 13.1449 4.12519 13.1702 4.0893 13.1933C4.38469 15.1442 5.39615 16.9712 7.01165 18.2562C7.04984 18.2366 7.08936 18.2189 7.13011 18.2033L9.89219 17.143C10.3775 16.9567 10.9276 17.1041 11.2548 17.5081L13.1167 19.8074C13.144 19.8411 13.1692 19.8759 13.1923 19.9117C15.1433 19.6164 16.9704 18.605 18.2556 16.9895C18.2359 16.9512 18.2182 16.9117 18.2026 16.8709L17.1423 14.1088C16.956 13.6235 17.1034 13.0734 17.5074 12.7462L19.8067 10.8843C19.8404 10.857 19.8753 10.8317 19.9112 10.8086C19.6159 8.85757 18.6045 7.03044 16.989 5.74533C16.9507 5.765 16.911 5.78276 16.8702 5.79846L14.1081 6.85872C13.6228 7.04502 13.0726 6.89762 12.7455 6.4936L10.8836 4.19436C10.8562 4.16058 10.831 4.12566 10.8078 4.08975ZM17.0002 3.34044C12.2173 0.579015 6.10137 2.21777 3.33995 7.00069C0.578527 11.7836 2.21728 17.8995 7.0002 20.6609C11.7831 23.4224 17.899 21.7836 20.6605 17.0007C23.4219 12.2178 21.7831 6.10186 17.0002 3.34044ZM14.6684 9.64464C15.1433 9.85609 15.4281 10.3493 15.3737 10.8663L15.0645 13.8087C15.0101 14.3257 14.629 14.749 14.1205 14.857L11.2266 15.4722C10.7181 15.5803 10.1978 15.3486 9.93787 14.8984L8.45858 12.3362C8.19864 11.886 8.25817 11.3196 8.60604 10.9332L10.5857 8.73458C10.9336 8.34824 11.4906 8.22983 11.9656 8.44128L14.6684 9.64464Z" fill="currentColor"/>
</svg>
