<svg width="1em" height="1em" viewBox="0 0 24 24" fill="currentColor" xmlns="http://www.w3.org/2000/svg">
<path fill-rule="evenodd" clip-rule="evenodd" d="M12 22C17.5228 22 22 17.5228 22 12C22 6.47715 17.5228 2 12 2C6.47715 2 2 6.47715 2 12C2 17.5228 6.47715 22 12 22ZM12 20C12.4052 20 12.8033 19.9699 13.1923 19.9117C13.1692 19.8759 13.144 19.8411 13.1167 19.8074L11.2548 17.5081C10.9276 17.1041 10.3775 16.9567 9.89219 17.143L7.13011 18.2033C7.08978 18.2188 7.05065 18.2363 7.01283 18.2556C8.38045 19.3474 10.114 20 12 20ZM20 12C20 11.595 19.9699 11.197 19.9118 10.8081C19.8757 10.8314 19.8406 10.8568 19.8067 10.8843L17.5074 12.7462C17.1034 13.0734 16.956 13.6235 17.1423 14.1088L18.2026 16.8709C18.218 16.9112 18.2355 16.9503 18.2549 16.9881C19.3471 15.6204 20 13.8864 20 12ZM12 4C11.5945 4 11.1961 4.03016 10.8069 4.08837C10.8303 4.12476 10.8559 4.16015 10.8836 4.19436L12.7455 6.4936C13.0726 6.89762 13.6228 7.04502 14.1081 6.85872L16.8702 5.79846C16.9109 5.78281 16.9504 5.76512 16.9886 5.74552C15.6208 4.65309 13.8867 4 12 4ZM4 12C4 12.4057 4.0302 12.8044 4.08848 13.1939C4.12466 13.1705 4.15985 13.1451 4.19387 13.1176L6.49312 11.2557C6.89713 10.9285 7.04453 10.3784 6.85823 9.89305L5.79797 7.13097C5.78228 7.09011 5.76453 7.05049 5.74486 7.01221C4.65282 8.37992 4 10.1137 4 12ZM15.3737 10.8663C15.4281 10.3493 15.1433 9.85609 14.6684 9.64464L11.9656 8.44128C11.4906 8.22983 10.9336 8.34824 10.5857 8.73458L8.60604 10.9332C8.25817 11.3196 8.19864 11.886 8.45858 12.3362L9.93787 14.8984C10.1978 15.3486 10.7181 15.5803 11.2266 15.4722L14.1205 14.857C14.629 14.749 15.0101 14.3257 15.0645 13.8087L15.3737 10.8663Z" fill="currentColor"/>
</svg>
