<svg width="1em" height="1em" viewBox="0 0 24 24" fill="none" xmlns="http://www.w3.org/2000/svg">
<path fill="currentColor" fill-rule="evenodd" clip-rule="evenodd" d="M14.0056 3.30586C13.7225 3.01233 13.2896 2.92007 12.9114 3.07269C12.5333 3.2253 12.2857 3.59223 12.2857 4V7.69303C7.7762 7.93494 5.12937 9.82497 3.6638 12.3283C2.15224 14.9102 2.00004 17.9815 2 20C1.99999 20.4491 2.2994 20.8431 2.7321 20.9634C3.1648 21.0838 3.62463 20.9009 3.85647 20.5162C5.34786 18.0417 6.91865 17.0522 8.41504 16.629C9.678 16.2717 10.9126 16.2951 12.2326 16.3201L12.2857 16.3211V20C12.2857 20.4078 12.5333 20.7747 12.9114 20.9273C13.2896 21.0799 13.7225 20.9877 14.0055 20.6941L21.7199 12.6939C22.0934 12.3065 22.0934 11.693 21.7198 11.3056L14.0056 3.30586Z" />
</svg>
