<svg width="1em" height="1em" viewBox="0 0 24 24" fill="none" xmlns="http://www.w3.org/2000/svg">
<path fill="currentColor" fill-rule="evenodd" clip-rule="evenodd" d="M12.9114 3.07269C13.2896 2.92007 13.7225 3.01233 14.0056 3.30586L21.7198 11.3056C22.0934 11.693 22.0934 12.3065 21.7199 12.6939L14.0055 20.6941C13.7225 20.9877 13.2896 21.0799 12.9114 20.9273C12.5333 20.7747 12.2857 20.4078 12.2857 20V16.3211C12.268 16.3207 12.2503 16.3204 12.2326 16.3201C10.9126 16.2951 9.678 16.2717 8.41504 16.629C6.91865 17.0522 5.34786 18.0417 3.85647 20.5162C3.62463 20.9009 3.1648 21.0838 2.7321 20.9634C2.2994 20.8431 1.99999 20.4491 2 20C2.00004 17.9815 2.15224 14.9102 3.6638 12.3283C5.12937 9.82497 7.7762 7.93494 12.2857 7.69303V4C12.2857 3.59223 12.5333 3.2253 12.9114 3.07269ZM14.2857 6.47763V8.6668C14.2857 9.21908 13.838 9.6668 13.2857 9.6668C8.76627 9.6668 6.55112 11.3551 5.38977 13.3388C4.75876 14.4166 4.40876 15.6308 4.21786 16.8261C5.3808 15.7092 6.61155 15.0606 7.87067 14.7045C9.44957 14.2579 11.0582 14.2919 12.4019 14.3204C12.7118 14.3269 13.0076 14.3332 13.2857 14.3332C13.838 14.3332 14.2857 14.7809 14.2857 15.3332V17.5223L19.6108 11.9998L14.2857 6.47763Z" />
</svg>
