<svg width="1em" height="1em" viewBox="0 0 24 24" fill="none" xmlns="http://www.w3.org/2000/svg">
<path fill="currentColor" fill-rule="evenodd" clip-rule="evenodd" d="M13.7574 6.8284L16.5845 4.0013H15C14.4477 4.0013 14 3.55358 14 3.0013C14 2.44901 14.4477 2.0013 15 2.0013H18.949C19.2216 1.98744 19.4989 2.08464 19.7071 2.29289C19.9017 2.4875 19.9994 2.74236 20 2.99742L20 7C20 7.55228 19.5523 8 19 8C18.4477 8 18 7.55228 18 7V5.41421L15.1716 8.24261C15.6951 9.03304 16 9.98092 16 11C16 13.419 14.2822 15.4367 12 15.9V17.5H13.2C13.7522 17.5 14.2 17.9477 14.2 18.5C14.2 19.0523 13.7522 19.5 13.2 19.5H12V21C12 21.5523 11.5523 22 11 22C10.4477 22 10 21.5523 10 21V19.5H8.69995C8.14767 19.5 7.69995 19.0523 7.69995 18.5C7.69995 17.9477 8.14767 17.5 8.69995 17.5H10V15.9C7.71776 15.4367 6 13.419 6 11C6 8.23858 8.23858 6 11 6C12.0191 6 12.967 6.30488 13.7574 6.8284ZM14 11C14 12.6569 12.6569 14 11 14C9.34315 14 8 12.6569 8 11C8 9.34315 9.34315 8 11 8C12.6569 8 14 9.34315 14 11Z" />
</svg>
