<svg width="1em" height="1em" viewBox="0 0 24 24" fill="none" xmlns="http://www.w3.org/2000/svg">
<path fill="currentColor" fill-rule="evenodd" clip-rule="evenodd" d="M2 7C2 5.34315 3.34315 4 5 4H19C20.6569 4 22 5.34315 22 7V17C22 18.6569 20.6569 20 19 20H5C3.34315 20 2 18.6569 2 17V7ZM10.6334 13.8643C10.6334 14.36 10.466 14.8687 10.0356 15.1145C9.92253 15.1791 9.80284 15.2358 9.67652 15.2848C9.30108 15.4283 8.88902 15.5 8.44033 15.5C7.6742 15.5 7.07899 15.2582 6.65472 14.7747C6.23045 14.2881 6.01221 13.5816 6 12.6551V11.4291C6 10.4902 6.19993 9.76805 6.59978 9.2627C7.00269 8.75423 7.58873 8.5 8.35791 8.5C9.08131 8.5 9.62615 8.68249 9.99243 9.04746C10.2411 9.29323 10.4192 9.63306 10.5268 10.067C10.6185 10.4372 10.3083 10.7647 9.92686 10.7647C9.58599 10.7647 9.3241 10.4961 9.21568 10.1729C9.17364 10.0476 9.12122 9.95011 9.05842 9.88035C8.91802 9.72126 8.69825 9.64171 8.39912 9.64171C8.0359 9.64171 7.77187 9.77741 7.60704 10.0488C7.44222 10.3202 7.35675 10.7522 7.35065 11.3449V12.5802C7.35065 13.201 7.44069 13.6533 7.62078 13.9372C7.80392 14.2179 8.10305 14.3583 8.51816 14.3583C8.68914 14.3583 8.90254 14.3007 9.07684 14.2306C9.23242 14.168 9.31641 14.0094 9.31641 13.8417V13.0563C9.31641 12.9484 9.22894 12.861 9.12105 12.861H8.85899C8.57214 12.861 8.3396 12.6284 8.3396 12.3416C8.3396 12.0547 8.57214 11.8222 8.85899 11.8222H9.86881C10.2911 11.8222 10.6334 12.1645 10.6334 12.5868V13.8643ZM13.0851 14.7334C13.0851 15.1051 12.7838 15.4064 12.4121 15.4064C12.0404 15.4064 11.739 15.1051 11.739 14.7334V9.26662C11.739 8.89491 12.0404 8.59358 12.4121 8.59358C12.7838 8.59358 13.0851 8.89491 13.0851 9.26662V14.7334ZM17.1773 12.627C17.4926 12.627 17.7482 12.3714 17.7482 12.0561C17.7482 11.7409 17.4926 11.4853 17.1773 11.4853H16.0743C15.8432 11.4853 15.6558 11.2979 15.6558 11.0668V10.2088C15.6558 9.94988 15.8657 9.73997 16.1247 9.73997H17.4268C17.7434 9.73997 18 9.48335 18 9.16678C18 8.85021 17.7434 8.59358 17.4268 8.59358H15.3097C14.7575 8.59358 14.3097 9.0413 14.3097 9.59358V14.7334C14.3097 15.1051 14.6111 15.4064 14.9828 15.4064C15.3545 15.4064 15.6558 15.1051 15.6558 14.7334V13.0455C15.6558 12.8144 15.8432 12.627 16.0743 12.627H17.1773Z" />
</svg>
