<svg width="1em" height="1em" viewBox="0 0 24 24" fill="currentColor" xmlns="http://www.w3.org/2000/svg">
<path fill-rule="evenodd" clip-rule="evenodd" d="M7 2C4.23858 2 2 4.23858 2 7V17C2 19.7614 4.23858 22 7 22H17C19.7614 22 22 19.7614 22 17V7C22 4.23858 19.7614 2 17 2H7ZM4 7C4 5.34315 5.34315 4 7 4H17C18.6569 4 20 5.34315 20 7V17C20 18.6569 18.6569 20 17 20H7C5.34315 20 4 18.6569 4 17V7ZM12.5 7.75C12.9142 7.75 13.25 8.08579 13.25 8.5V15.5C13.25 15.9142 12.9142 16.25 12.5 16.25C12.0858 16.25 11.75 15.9142 11.75 15.5V8.5C11.75 8.08579 12.0858 7.75 12.5 7.75ZM14.5 8.5C14.5 8.08579 14.8358 7.75 15.25 7.75H18.25C18.6642 7.75 19 8.08579 19 8.5C19 8.91421 18.6642 9.25 18.25 9.25H16V11.25H17.5C17.9142 11.25 18.25 11.5858 18.25 12C18.25 12.4142 17.9142 12.75 17.5 12.75H16V15.5C16 15.9142 15.6642 16.25 15.25 16.25C14.8358 16.25 14.5 15.9142 14.5 15.5V12V8.5ZM8.70195 9.46546C8.4501 9.29469 8.14462 9.22163 7.84276 9.25997C7.5409 9.29831 7.26338 9.44541 7.06222 9.67371C6.86107 9.90198 6.75007 10.1958 6.75 10.5V13.5C6.75 13.8315 6.8817 14.1495 7.11612 14.3839C7.35054 14.6183 7.66848 14.75 8 14.75C8.33152 14.75 8.64946 14.6183 8.88388 14.3839C9.1183 14.1495 9.25 13.8315 9.25 13.5V13.25H8.5C8.08579 13.25 7.75 12.9142 7.75 12.5C7.75 12.0858 8.08579 11.75 8.5 11.75H10C10.4142 11.75 10.75 12.0858 10.75 12.5V13.5C10.75 14.2294 10.4603 14.9288 9.94454 15.4445C9.42882 15.9603 8.72935 16.25 8 16.25C7.27065 16.25 6.57118 15.9603 6.05546 15.4445C5.53973 14.9288 5.25 14.2294 5.25 13.5V10.5C5.25009 9.83067 5.49428 9.18423 5.93679 8.68203C6.3793 8.17984 6.98977 7.85625 7.65378 7.77192C8.31778 7.68759 8.98976 7.84831 9.54375 8.22394C10.0978 8.59958 10.4957 9.16436 10.6632 9.81243C10.7668 10.2135 10.5256 10.6226 10.1246 10.7262C9.72352 10.8298 9.31442 10.5886 9.21083 10.1876C9.13472 9.89297 8.95379 9.63622 8.70195 9.46546Z" fill="currentColor"/>
</svg>
