<svg width="1em" height="1em" viewBox="0 0 24 24" fill="none" xmlns="http://www.w3.org/2000/svg">
<path fill="currentColor" fill-rule="evenodd" clip-rule="evenodd" d="M20 5C20 3.34315 18.6569 2 17 2H7C5.34315 2 4 3.34315 4 5V19C4 20.6569 5.34314 22 7 22H17C18.6569 22 20 20.6569 20 19L20 5ZM17 4C17.5523 4 18 4.44772 18 5V8H13L13 4L17 4ZM11 4L11 8H6L6 5C6 4.44772 6.44771 4 7 4L11 4ZM11 14L11 10H6L6 14H11ZM11 16H6L6 19C6 19.5523 6.44771 20 7 20H11L11 16ZM13 16H18V19C18 19.5523 17.5523 20 17 20H13V16ZM18 14H13V10H18V14Z" />
</svg>
