<svg width="1em" height="1em" viewBox="0 0 24 24" fill="none" xmlns="http://www.w3.org/2000/svg">
<path fill="currentColor" fill-rule="evenodd" clip-rule="evenodd" d="M5 4C3.34315 4 2 5.34315 2 7V11V13V17C2 18.6569 3.34315 20 5 20H19C20.6569 20 22 18.6569 22 17V7C22 5.34315 20.6569 4 19 4H5ZM4 17V13H8V18H5C4.44772 18 4 17.5523 4 17ZM4 11L8 11V6H5C4.44772 6 4 6.44772 4 7V11ZM10 18V13H14V18H10ZM16 18H19C19.5523 18 20 17.5523 20 17V13H16V18ZM16 11H20V7C20 6.44772 19.5523 6 19 6H16V11ZM14 6H10V11H14V6Z" />
</svg>
