<svg width="16" height="12" viewBox="0 0 16 12" fill="none" xmlns="http://www.w3.org/2000/svg">
<path fill-rule="evenodd" clip-rule="evenodd" d="M2.5 0.999756C2.5 1.55204 2.05228 1.99976 1.5 1.99976C0.947715 1.99976 0.5 1.55204 0.5 0.999756C0.5 0.447471 0.947715 -0.000244141 1.5 -0.000244141C2.05228 -0.000244141 2.5 0.447471 2.5 0.999756ZM5.08333 0.166585C4.6231 0.166585 4.25 0.539681 4.25 0.999919C4.25 1.46016 4.6231 1.83325 5.08333 1.83325H14.6667C15.1269 1.83325 15.5 1.46016 15.5 0.999919C15.5 0.539681 15.1269 0.166585 14.6667 0.166585H5.08333ZM5.08333 5.16659C4.6231 5.16659 4.25 5.53968 4.25 5.99992C4.25 6.46016 4.6231 6.83325 5.08333 6.83325H14.6667C15.1269 6.83325 15.5 6.46016 15.5 5.99992C15.5 5.53968 15.1269 5.16659 14.6667 5.16659H5.08333ZM4.25 10.9999C4.25 10.5397 4.6231 10.1666 5.08333 10.1666H14.6666C15.1268 10.1666 15.4999 10.5397 15.4999 10.9999C15.4999 11.4602 15.1268 11.8333 14.6666 11.8333H5.08333C4.6231 11.8333 4.25 11.4602 4.25 10.9999ZM1.5 6.99976C2.05228 6.99976 2.5 6.55204 2.5 5.99976C2.5 5.44747 2.05228 4.99976 1.5 4.99976C0.947715 4.99976 0.5 5.44747 0.5 5.99976C0.5 6.55204 0.947715 6.99976 1.5 6.99976ZM2.5 10.9998C2.5 11.552 2.05228 11.9998 1.5 11.9998C0.947715 11.9998 0.5 11.552 0.5 10.9998C0.5 10.4475 0.947715 9.99976 1.5 9.99976C2.05228 9.99976 2.5 10.4475 2.5 10.9998Z" fill="currentColor"/>
</svg>
