<svg width="1em" height="1em" viewBox="0 0 24 24" fill="none" xmlns="http://www.w3.org/2000/svg">
<path fill="currentColor" fill-rule="evenodd" clip-rule="evenodd" d="M8.81818 7.55556C9.82234 7.55556 10.6364 6.75962 10.6364 5.77778C10.6364 4.79594 9.82234 4 8.81818 4C7.81403 4 7 4.79594 7 5.77778C7 6.75962 7.81403 7.55556 8.81818 7.55556ZM15.1818 7.55556C16.186 7.55556 17 6.75962 17 5.77778C17 4.79594 16.186 4 15.1818 4C14.1777 4 13.3636 4.79594 13.3636 5.77778C13.3636 6.75962 14.1777 7.55556 15.1818 7.55556ZM10.6364 12C10.6364 12.9818 9.82234 13.7778 8.81818 13.7778C7.81403 13.7778 7 12.9818 7 12C7 11.0182 7.81403 10.2222 8.81818 10.2222C9.82234 10.2222 10.6364 11.0182 10.6364 12ZM15.1818 13.7778C16.186 13.7778 17 12.9818 17 12C17 11.0182 16.186 10.2222 15.1818 10.2222C14.1777 10.2222 13.3636 11.0182 13.3636 12C13.3636 12.9818 14.1777 13.7778 15.1818 13.7778ZM10.6364 18.2222C10.6364 19.2041 9.82234 20 8.81818 20C7.81403 20 7 19.2041 7 18.2222C7 17.2404 7.81403 16.4444 8.81818 16.4444C9.82234 16.4444 10.6364 17.2404 10.6364 18.2222ZM15.1818 20C16.186 20 17 19.2041 17 18.2222C17 17.2404 16.186 16.4444 15.1818 16.4444C14.1777 16.4444 13.3636 17.2404 13.3636 18.2222C13.3636 19.2041 14.1777 20 15.1818 20Z" />
</svg>
