<svg width="1em" height="1em" viewBox="0 0 24 24" fill="none" xmlns="http://www.w3.org/2000/svg">
<path fill="currentColor" fill-rule="evenodd" clip-rule="evenodd" d="M2 12C2 6.47715 6.47715 2 12 2C17.5228 2 22 6.47715 22 12V13V18V19C22 20.6569 20.6569 22 19 22H18C16.3431 22 15 20.6569 15 19V16C15 14.3431 16.3431 13 18 13H20V12C20 7.58172 16.4183 4 12 4C7.58172 4 4 7.58172 4 12V13H6C7.65685 13 9 14.3431 9 16V19C9 20.6569 7.65685 22 6 22H5C3.34315 22 2 20.6569 2 19V18V13V12ZM20 15H18C17.4477 15 17 15.4477 17 16V19C17 19.5523 17.4477 20 18 20H19C19.5523 20 20 19.5523 20 19V18V15ZM4 18V15H6C6.55228 15 7 15.4477 7 16V19C7 19.5523 6.55228 20 6 20H5C4.44772 20 4 19.5523 4 19V18Z" />
</svg>
