<svg width="1em" height="1em" viewBox="0 0 24 24" fill="none" xmlns="http://www.w3.org/2000/svg">
<path fill-rule="evenodd" clip-rule="evenodd" d="M9.5 4C9.92261 4 10.2996 4.26567 10.4417 4.66366L14.5 16.0268L16.0583 11.6637C16.2004 11.2657 16.5774 11 17 11H21C21.5523 11 22 11.4477 22 12C22 12.5523 21.5523 13 21 13H17.7047L15.4417 19.3363C15.2996 19.7343 14.9226 20 14.5 20C14.0774 20 13.7004 19.7343 13.5583 19.3363L9.5 7.97321L7.94174 12.3363C7.7996 12.7343 7.42261 13 7 13H3C2.44772 13 2 12.5523 2 12C2 11.4477 2.44772 11 3 11H6.29528L8.55826 4.66366C8.7004 4.26567 9.07739 4 9.5 4Z" fill="currentColor"/>
</svg>
