<svg width="1em" height="1em" viewBox="0 0 24 24" fill="none" xmlns="http://www.w3.org/2000/svg">
<path fill="currentColor" fill-rule="evenodd" clip-rule="evenodd" d="M13.3541 2.52716C12.5887 1.82298 11.4113 1.82298 10.6459 2.52716L3.96884 8.67C3.35137 9.23807 3 10.0388 3 10.8778V20.0001C3 21.1047 3.89543 22.0001 5 22.0001H8C9.10457 22.0001 10 21.1047 10 20.0001V16.5002C10 15.9479 10.4477 15.5002 11 15.5002H13C13.5523 15.5002 14 15.9479 14 16.5002V20.0001C14 21.1047 14.8954 22.0001 16 22.0001H19C20.1046 22.0001 21 21.1047 21 20.0001V10.8778C21 10.0388 20.6486 9.23807 20.0312 8.67L13.3541 2.52716Z" />
</svg>
