<svg width="1em" height="1em" viewBox="0 0 24 24" fill="none" xmlns="http://www.w3.org/2000/svg">
<path fill="currentColor" fill-rule="evenodd" clip-rule="evenodd" d="M10.6459 2.527C11.4113 1.82283 12.5887 1.82283 13.3541 2.527L20.0312 8.66985C20.6486 9.23792 21 10.0386 21 10.8776V20C21 21.1046 20.1046 22 19 22H15.5C14.3954 22 13.5 21.1046 13.5 20V15.5H10.5V20C10.5 21.1046 9.60457 22 8.5 22H5C3.89543 22 3 21.1046 3 20V10.8776C3 10.0386 3.35137 9.23792 3.96884 8.66985L10.6459 2.527ZM18.6771 10.1417L12 3.99887L5.32295 10.1417C5.11712 10.3311 5 10.598 5 10.8776V20H8.5V15.5C8.5 14.3954 9.39543 13.5 10.5 13.5H13.5C14.6046 13.5 15.5 14.3954 15.5 15.5V20L19 20V10.8776C19 10.598 18.8829 10.3311 18.6771 10.1417Z" />
</svg>
