<svg width="1em" height="1em" viewBox="0 0 24 24" fill="none" xmlns="http://www.w3.org/2000/svg">
<path fill="currentColor" fill-rule="evenodd" clip-rule="evenodd" d="M2 7C2 5.34315 3.34315 4 5 4H19C20.6569 4 22 5.34315 22 7V15.9971V16.0018V17C22 18.6569 20.6569 20 19 20H5C3.34315 20 2 18.6569 2 17V14.4441V7ZM4 14.8476V17C4 17.5523 4.44772 18 5 18H15.6418L12.7929 15.1511L12.7802 15.1382L8.96985 11.1867C8.57659 10.7789 7.92341 10.7789 7.53016 11.1867L4 14.8476ZM18.4702 18H19C19.5523 18 20 17.5523 20 17V16.4032L17.2198 13.5201C16.8266 13.1122 16.1734 13.1122 15.7802 13.5201L14.9015 14.4313L18.4702 18ZM16.2001 8.80039C16.2001 9.57359 15.5733 10.2004 14.8001 10.2004C14.0269 10.2004 13.4001 9.57359 13.4001 8.80039C13.4001 8.02719 14.0269 7.40039 14.8001 7.40039C15.5733 7.40039 16.2001 8.02719 16.2001 8.80039Z" />
</svg>
