<svg width="1em" height="1em" viewBox="0 0 24 24" fill="none" xmlns="http://www.w3.org/2000/svg">
<path fill="currentColor" fill-rule="evenodd" clip-rule="evenodd" d="M2 5C2 3.34315 3.34315 2 5 2H19C20.6569 2 22 3.34315 22 5V15.9971V16.0018V19C22 20.6569 20.6569 22 19 22H5C3.34315 22 2 20.6569 2 19V14.4441V5ZM4 14.8476V19C4 19.5523 4.44772 20 5 20H17.6418L12.7929 15.1511L12.7802 15.1382L8.96985 11.1867C8.57659 10.7789 7.92341 10.7789 7.53016 11.1867L4 14.8476ZM19.9022 19.432C19.9649 19.3012 20 19.1547 20 19V16.4032L17.2198 13.5201C16.8266 13.1122 16.1734 13.1122 15.7802 13.5201L14.9015 14.4313L19.9022 19.432ZM16.2001 7.80039C16.2001 8.57359 15.5733 9.20039 14.8001 9.20039C14.0269 9.20039 13.4001 8.57359 13.4001 7.80039C13.4001 7.02719 14.0269 6.40039 14.8001 6.40039C15.5733 6.40039 16.2001 7.02719 16.2001 7.80039Z" />
</svg>
