<svg width="1em" height="1em" viewBox="0 0 24 24" fill="none" xmlns="http://www.w3.org/2000/svg">
<path fill="currentColor" fill-rule="evenodd" clip-rule="evenodd" d="M2 7C2 5.34315 3.34315 4 5 4H19C20.6569 4 22 5.34315 22 7V15.9975V16.0022V17C22 18.6569 20.6569 20 19 20H5C3.34315 20 2 18.6569 2 17V14.4444V7ZM20 7V13.5223L18.6595 12.1322C17.4798 10.9087 15.5202 10.9087 14.3405 12.1322L13.5 13.0037L10.4095 9.79882C9.22977 8.57536 7.27023 8.57536 6.09047 9.79882L4 11.9667V7C4 6.44772 4.44772 6 5 6H19C19.5523 6 20 6.44772 20 7ZM4 17V14.848L7.53016 11.1871C7.92341 10.7793 8.57659 10.7793 8.96985 11.1871L12.7802 15.1385L12.7929 15.1515L15.6414 18H5C4.44772 18 4 17.5523 4 17ZM19 18H18.4698L14.9015 14.4317L15.7802 13.5204C16.1734 13.1126 16.8266 13.1126 17.2198 13.5204L20 16.4035V17C20 17.5523 19.5523 18 19 18ZM16.2001 8.80039C16.2001 9.57359 15.5733 10.2004 14.8001 10.2004C14.0269 10.2004 13.4001 9.57359 13.4001 8.80039C13.4001 8.02719 14.0269 7.40039 14.8001 7.40039C15.5733 7.40039 16.2001 8.02719 16.2001 8.80039Z" />
</svg>
