<svg width="1em" height="1em" viewBox="0 0 24 24" fill="none" xmlns="http://www.w3.org/2000/svg">
<path fill="currentColor" fill-rule="evenodd" clip-rule="evenodd" d="M5.82918 4.10557C6.16796 3.428 6.86049 3 7.61803 3H16.382C17.1395 3 17.832 3.428 18.1708 4.10557L21.8944 11.5528C21.9639 11.6916 22 11.8448 22 12V18C22 19.6569 20.6569 21 19 21H5C3.34315 21 2 19.6569 2 18V12C2 11.8448 2.03615 11.6916 2.10557 11.5528L5.82918 4.10557ZM16.382 5H7.61803L4.61803 11H7.46482C8.13352 11 8.75799 11.3342 9.12892 11.8906L10.5352 14H12H13.4648L14.8711 11.8906C15.242 11.3342 15.8665 11 16.5352 11H19.382L16.382 5ZM20 13H16.5352L15.1289 15.1094C14.758 15.6658 14.1335 16 13.4648 16H12H10.5352C9.86648 16 9.24201 15.6658 8.87108 15.1094L7.46482 13H4V18C4 18.5523 4.44772 19 5 19H19C19.5523 19 20 18.5523 20 18V13Z" />
</svg>
