<svg width="1em" height="1em" viewBox="0 0 24 24" fill="none" xmlns="http://www.w3.org/2000/svg">
<path fill="currentColor" fill-rule="evenodd" clip-rule="evenodd" d="M7.61803 3C6.86049 3 6.16796 3.428 5.82918 4.10557L2.10557 11.5528C2.03615 11.6916 2 11.8448 2 12V18C2 19.6569 3.34315 21 5 21H19C20.6569 21 22 19.6569 22 18V12C22 11.8448 21.9639 11.6916 21.8944 11.5528L18.1708 4.10557C17.832 3.428 17.1395 3 16.382 3H7.61803ZM7.61803 5H16.382L19.632 11.5H16.5352C16.0337 11.5 15.5653 11.7507 15.2871 12.1679L13.8808 14.2774C13.7881 14.4164 13.632 14.5 13.4648 14.5H12H10.5352C10.368 14.5 10.2119 14.4164 10.1192 14.2774L8.71289 12.1679C8.43469 11.7507 7.96635 11.5 7.46482 11.5H4.36803L7.61803 5Z" />
</svg>
