<svg width="1em" height="1em" viewBox="0 0 24 24" fill="none" xmlns="http://www.w3.org/2000/svg">
<path fill="currentColor" fill-rule="evenodd" clip-rule="evenodd" d="M3 6C3 5.44772 3.44772 5 4 5H20C20.5523 5 21 5.44772 21 6C21 6.55228 20.5523 7 20 7H4C3.44772 7 3 6.55228 3 6ZM20 19H4C3.44772 19 3 18.5523 3 18C3 17.4477 3.44772 17 4 17H20C20.5523 17 21 17.4477 21 18C21 18.5523 20.5523 19 20 19ZM10 9C9.44772 9 9 9.44772 9 10C9 10.5523 9.44772 11 10 11H20C20.5523 11 21 10.5523 21 10C21 9.44772 20.5523 9 20 9H10ZM9 14C9 13.4477 9.44772 13 10 13H20C20.5523 13 21 13.4477 21 14C21 14.5523 20.5523 15 20 15H10C9.44772 15 9 14.5523 9 14ZM3.29289 10.7071C2.90237 10.3166 2.90237 9.68342 3.29289 9.29289C3.68342 8.90237 4.31658 8.90237 4.70711 9.29289L6.70711 11.2929C6.89464 11.4804 7 11.7348 7 12C7 12.2652 6.89464 12.5196 6.70711 12.7071L4.70711 14.7071C4.31658 15.0976 3.68342 15.0976 3.29289 14.7071C2.90237 14.3166 2.90237 13.6834 3.29289 13.2929L4.58579 12L3.29289 10.7071Z" />
</svg>
