<svg width="1em" height="1em" viewBox="0 0 24 24" fill="none" xmlns="http://www.w3.org/2000/svg">
<path fill="currentColor" fill-rule="evenodd" clip-rule="evenodd" d="M3 6C3 5.44772 3.44772 5 4 5H20C20.5523 5 21 5.44772 21 6C21 6.55228 20.5523 7 20 7H4C3.44772 7 3 6.55228 3 6ZM20 19H4C3.44772 19 3 18.5523 3 18C3 17.4477 3.44772 17 4 17H20C20.5523 17 21 17.4477 21 18C21 18.5523 20.5523 19 20 19ZM10 9C9.44772 9 9 9.44772 9 10C9 10.5523 9.44772 11 10 11H20C20.5523 11 21 10.5523 21 10C21 9.44772 20.5523 9 20 9H10ZM9 14C9 13.4477 9.44772 13 10 13H20C20.5523 13 21 13.4477 21 14C21 14.5523 20.5523 15 20 15H10C9.44772 15 9 14.5523 9 14ZM6.70711 10.7071C7.09763 10.3166 7.09763 9.68342 6.70711 9.29289C6.31658 8.90237 5.68342 8.90237 5.29289 9.29289L3.29289 11.2929C3.10536 11.4804 3 11.7348 3 12C3 12.2652 3.10536 12.5196 3.29289 12.7071L5.29289 14.7071C5.68342 15.0976 6.31658 15.0976 6.70711 14.7071C7.09763 14.3166 7.09763 13.6834 6.70711 13.2929L5.41421 12L6.70711 10.7071Z" />
</svg>
