<svg width="1em" height="1em" viewBox="0 0 24 24" fill="none" xmlns="http://www.w3.org/2000/svg">
<path fill="currentColor" fill-rule="evenodd" clip-rule="evenodd" d="M22 12C22 17.5228 17.5228 22 12 22C6.47715 22 2 17.5228 2 12C2 6.47715 6.47715 2 12 2C17.5228 2 22 6.47715 22 12ZM12 17C11.4477 17 11 16.5523 11 16V12C11 11.4477 11.4477 11 12 11C12.5523 11 13 11.4477 13 12V16C13 16.5523 12.5523 17 12 17ZM10.8 8.20039C10.8 8.86313 11.3373 9.40039 12 9.40039C12.6628 9.40039 13.2 8.86313 13.2 8.20039C13.2 7.53765 12.6628 7.00039 12 7.00039C11.3373 7.00039 10.8 7.53765 10.8 8.20039Z" />
</svg>
