<svg width="1em" height="1em" viewBox="0 0 24 24" fill="none" xmlns="http://www.w3.org/2000/svg">
<path fill="currentColor" fill-rule="evenodd" clip-rule="evenodd" d="M20 12C20 16.4183 16.4183 20 12 20C7.58172 20 4 16.4183 4 12C4 7.58172 7.58172 4 12 4C16.4183 4 20 7.58172 20 12ZM12 22C17.5228 22 22 17.5228 22 12C22 6.47715 17.5228 2 12 2C6.47715 2 2 6.47715 2 12C2 17.5228 6.47715 22 12 22ZM12 17C11.4477 17 11 16.5523 11 16V12C11 11.4477 11.4477 11 12 11C12.5523 11 13 11.4477 13 12V16C13 16.5523 12.5523 17 12 17ZM10.8 8.20039C10.8 8.86313 11.3373 9.40039 12 9.40039C12.6628 9.40039 13.2 8.86313 13.2 8.20039C13.2 7.53765 12.6628 7.00039 12 7.00039C11.3373 7.00039 10.8 7.53765 10.8 8.20039Z" />
</svg>
