<svg width="1em" height="1em" viewBox="0 0 24 24" fill="none" xmlns="http://www.w3.org/2000/svg">
<path fill-rule="evenodd" clip-rule="evenodd" d="M7.87733 2.06C8.944 2.01133 9.284 2 12 2C14.7167 2 15.056 2.012 16.122 2.06C17.1867 2.10867 17.9147 2.27867 18.5507 2.52467C19.2177 2.77591 19.8219 3.16948 20.3213 3.678C20.83 4.17755 21.2236 4.78204 21.4747 5.44933C21.722 6.08533 21.8913 6.81267 21.94 7.87733C21.9887 8.944 22 9.284 22 12C22 14.716 21.9887 15.056 21.94 16.1227C21.8913 17.1873 21.722 17.9147 21.4753 18.5507C21.2241 19.2177 20.8305 19.8219 20.322 20.3213C19.822 20.8307 19.2173 21.224 18.5507 21.4747C17.9147 21.722 17.1873 21.8913 16.1227 21.94C15.056 21.9887 14.716 22 12 22C9.284 22 8.944 21.9887 7.87733 21.94C6.81267 21.8913 6.08533 21.722 5.44933 21.4753C4.78234 21.2241 4.1781 20.8305 3.67867 20.322C3.16933 19.822 2.776 19.2173 2.52533 18.5507C2.278 17.9147 2.10867 17.1873 2.06 16.1227C2.01133 15.056 2 14.7167 2 12C2 9.28333 2.012 8.944 2.06 7.878C2.10867 6.81333 2.27867 6.08533 2.52467 5.44933C2.77591 4.78233 3.16948 4.17809 3.678 3.67867C4.178 3.16933 4.78267 2.776 5.44933 2.52533C6.08533 2.278 6.81267 2.10867 7.87733 2.06ZM16.0413 3.86C14.9867 3.812 14.67 3.802 12 3.802C9.33 3.802 9.01333 3.812 7.95867 3.86C6.984 3.90467 6.45467 4.06733 6.102 4.20467C5.66761 4.36465 5.27463 4.62003 4.952 4.952C4.60267 5.302 4.38533 5.63533 4.20467 6.102C4.06667 6.45467 3.90467 6.984 3.86 7.95867C3.812 9.01333 3.802 9.33 3.802 12C3.802 14.67 3.812 14.9867 3.86 16.0413C3.90467 17.016 4.06733 17.5453 4.20467 17.898C4.36475 18.3323 4.62012 18.7253 4.952 19.048C5.27467 19.3799 5.66764 19.6353 6.102 19.7953C6.45467 19.9333 6.984 20.0953 7.95867 20.14C9.01333 20.188 9.32933 20.198 12 20.198C14.6707 20.198 14.9867 20.188 16.0413 20.14C17.016 20.0953 17.5453 19.9327 17.898 19.7953C18.3324 19.6354 18.7254 19.38 19.048 19.048C19.3799 18.7253 19.6353 18.3324 19.7953 17.898C19.9333 17.5453 20.0953 17.016 20.14 16.0413C20.188 14.9867 20.198 14.67 20.198 12C20.198 9.33 20.188 9.01333 20.14 7.95867C20.0953 6.984 19.9327 6.45467 19.7953 6.102C19.6147 5.63533 19.398 5.302 19.048 4.952C18.698 4.60267 18.3647 4.38533 17.898 4.20467C17.5453 4.06667 17.016 3.90467 16.0413 3.86ZM10.7242 15.0827C11.129 15.2504 11.5629 15.3367 12.0011 15.3367C12.886 15.3367 13.7347 14.9852 14.3605 14.3594C14.9862 13.7337 15.3378 12.885 15.3378 12C15.3378 11.1151 14.9862 10.2664 14.3605 9.64066C13.7347 9.01491 12.886 8.66337 12.0011 8.66337C11.5629 8.66337 11.129 8.74968 10.7242 8.91736C10.3194 9.08504 9.95157 9.33082 9.64173 9.64066C9.33189 9.9505 9.08612 10.3183 8.91843 10.7232C8.75075 11.128 8.66444 11.5619 8.66444 12C8.66444 12.4382 8.75075 12.8721 8.91843 13.2769C9.08612 13.6817 9.33189 14.0496 9.64173 14.3594C9.95157 14.6693 10.3194 14.915 10.7242 15.0827ZM8.36658 8.36551C9.33052 7.40157 10.6379 6.86004 12.0011 6.86004C13.3643 6.86004 14.6717 7.40157 15.6356 8.36551C16.5996 9.32944 17.1411 10.6368 17.1411 12C17.1411 13.3632 16.5996 14.6706 15.6356 15.6346C14.6717 16.5985 13.3643 17.14 12.0011 17.14C10.6379 17.14 9.33052 16.5985 8.36658 15.6346C7.40265 14.6706 6.86111 13.3632 6.86111 12C6.86111 10.6368 7.40265 9.32944 8.36658 8.36551ZM18.2806 7.62584C18.5084 7.39798 18.6364 7.08894 18.6364 6.7667C18.6364 6.44447 18.5084 6.13543 18.2806 5.90757C18.0527 5.67971 17.7437 5.5517 17.4214 5.5517C17.0992 5.5517 16.7902 5.67971 16.5623 5.90757C16.3345 6.13543 16.2064 6.44447 16.2064 6.7667C16.2064 7.08894 16.3345 7.39798 16.5623 7.62584C16.7902 7.8537 17.0992 7.9817 17.4214 7.9817C17.7437 7.9817 18.0527 7.8537 18.2806 7.62584Z" fill="currentColor"/>
</svg>
