<svg width="1em" height="1em" viewBox="0 0 24 24" fill="none" xmlns="http://www.w3.org/2000/svg">
<path fill="currentColor" fill-rule="evenodd" clip-rule="evenodd" d="M3.49614 2.1318C3.18664 1.95494 2.80639 1.95621 2.49807 2.13513C2.18976 2.31405 2 2.64357 2 3.00004V19C2 20.6569 3.34315 22 5 22H19C20.6569 22 22 20.6569 22 19V13C22 12.4478 21.5523 12 21 12H18V3.00004C18 2.64357 17.8102 2.31405 17.5019 2.13513C17.1936 1.95621 16.8134 1.95494 16.5039 2.1318L13.5 3.84829L10.4961 2.1318C10.1887 1.95612 9.81129 1.95612 9.50386 2.1318L6.5 3.84829L3.49614 2.1318ZM18 20V14H20V19C20 19.5523 19.5523 20 19 20H18ZM16 4.72322V20H5C4.44772 20 4 19.5523 4 19V4.72322L6.00386 5.86828C6.31129 6.04396 6.68871 6.04396 6.99614 5.86828L10 4.15179L13.0039 5.86828C13.3113 6.04396 13.6887 6.04396 13.9961 5.86828L16 4.72322ZM10.75 7.76005C10.75 7.34584 10.4142 7.01005 10 7.01005C9.58579 7.01005 9.25 7.34584 9.25 7.76005V8.26249H9.14062C8.41957 8.26249 7.72804 8.54893 7.21818 9.05879C6.70831 9.56866 6.42188 10.2602 6.42188 10.9812C6.42188 11.7023 6.70831 12.3938 7.21818 12.9037C7.72804 13.4136 8.41957 13.7 9.14062 13.7H11.0312C11.2219 13.7 11.4047 13.7757 11.5395 13.9105C11.6743 14.0453 11.75 14.2281 11.75 14.4187C11.75 14.6094 11.6743 14.7922 11.5395 14.927C11.4047 15.0618 11.2219 15.1375 11.0312 15.1375H8.96875C8.77812 15.1375 8.59531 15.0618 8.46052 14.927C8.06999 14.5364 7.43683 14.5364 7.0463 14.927C6.65578 15.3175 6.65578 15.9507 7.0463 16.3412C7.55617 16.8511 8.24769 17.1375 8.96875 17.1375H9.25V17.6375C9.25 18.0517 9.58579 18.3875 10 18.3875C10.4142 18.3875 10.75 18.0517 10.75 17.6375V17.1375H11.0312C11.7523 17.1375 12.4438 16.8511 12.9537 16.3412C13.4636 15.8313 13.75 15.1398 13.75 14.4187C13.75 13.6977 13.4636 13.0062 12.9537 12.4963C12.4438 11.9864 11.7523 11.7 11.0312 11.7H9.14062C8.95 11.7 8.76718 11.6243 8.63239 11.4895C8.4976 11.3547 8.42188 11.1719 8.42188 10.9812C8.42188 10.7906 8.4976 10.6078 8.63239 10.473C8.76718 10.3382 8.95 10.2625 9.14062 10.2625H10.6875C10.7819 10.2625 10.8754 10.2811 10.9626 10.3172C11.0498 10.3533 11.129 10.4063 11.1957 10.473C11.2625 10.5397 11.3154 10.619 11.3515 10.7062C11.5629 11.2164 12.1479 11.4587 12.6581 11.2474C13.1683 11.036 13.4106 10.4511 13.1993 9.94082C13.0627 9.61097 12.8624 9.31125 12.6099 9.05879C12.3575 8.80633 12.0578 8.60607 11.7279 8.46944C11.4173 8.34079 11.0857 8.27093 10.75 8.26321V7.76005Z" />
</svg>
