<svg width="1em" height="1em" viewBox="0 0 24 24" fill="none" xmlns="http://www.w3.org/2000/svg">
<path fill="currentColor" fill-rule="evenodd" clip-rule="evenodd" d="M2.49807 2.13509C2.80639 1.95617 3.18664 1.9549 3.49614 2.13176L6.5 3.84825L9.50386 2.13176C9.81129 1.95608 10.1887 1.95608 10.4961 2.13176L13.5 3.84825L16.5039 2.13176C16.8134 1.9549 17.1936 1.95617 17.5019 2.13509C17.8102 2.31401 18 2.64353 18 3V12H21C21.5523 12 22 12.4477 22 13V19C22 20.6569 20.6569 22 19 22H17H5C3.34315 22 2 20.6569 2 19V3C2 2.64353 2.18976 2.31401 2.49807 2.13509ZM18 14V20H19C19.5523 20 20 19.5523 20 19V14H18ZM7 9.5C6.44772 9.5 6 9.94772 6 10.5C6 11.0523 6.44772 11.5 7 11.5H13C13.5523 11.5 14 11.0523 14 10.5C14 9.94772 13.5523 9.5 13 9.5H7ZM6 14.5C6 13.9477 6.44772 13.5 7 13.5H13C13.5523 13.5 14 13.9477 14 14.5C14 15.0523 13.5523 15.5 13 15.5H7C6.44772 15.5 6 15.0523 6 14.5Z" />
</svg>
