<svg width="1em" height="1em" viewBox="0 0 24 24" fill="none" xmlns="http://www.w3.org/2000/svg">
<path fill="currentColor" fill-rule="evenodd" clip-rule="evenodd" d="M15.0004 3H19C19.5523 3 20 3.44772 20 4C20 4.55228 19.5523 5 19 5H15.6932L10.4429 19H13.5C14.0523 19 14.5 19.4477 14.5 20C14.5 20.5523 14.0523 21 13.5 21H9.03244C9.01065 21.0007 8.98876 21.0007 8.96683 21H5C4.44772 21 4 20.5523 4 20C4 19.4477 4.44772 19 5 19H8.3069L13.5572 5H10.5C9.94772 5 9.5 4.55228 9.5 4C9.5 3.44772 9.94772 3 10.5 3H15.0004Z" />
</svg>
