<svg width="1em" height="1em" viewBox="0 0 20 20" fill="none" xmlns="http://www.w3.org/2000/svg">
<path fill-rule="evenodd" clip-rule="evenodd" d="M1.66675 4.16669C1.66675 2.78598 2.78604 1.66669 4.16675 1.66669H15.8334C17.2141 1.66669 18.3334 2.78598 18.3334 4.16669V15.8334C18.3334 17.2141 17.2141 18.3334 15.8334 18.3334H4.16675C2.78604 18.3334 1.66675 17.2141 1.66675 15.8334V4.16669ZM7.00008 6.33327C7.00008 6.88556 6.55237 7.33327 6.00008 7.33327C5.4478 7.33327 5.00008 6.88556 5.00008 6.33327C5.00008 5.78099 5.4478 5.33327 6.00008 5.33327C6.55237 5.33327 7.00008 5.78099 7.00008 6.33327ZM8.33357 6.33323C8.33357 5.87299 8.70666 5.4999 9.1669 5.4999H14.1668C14.6271 5.4999 15.0002 5.87299 15.0002 6.33323C15.0002 6.79347 14.6271 7.16657 14.1668 7.16657H9.1669C8.70666 7.16657 8.33357 6.79347 8.33357 6.33323ZM6.00008 10.9999C6.55237 10.9999 7.00008 10.5521 7.00008 9.99986C7.00008 9.44757 6.55237 8.99986 6.00008 8.99986C5.4478 8.99986 5.00008 9.44757 5.00008 9.99986C5.00008 10.5521 5.4478 10.9999 6.00008 10.9999ZM8.33357 9.99982C8.33357 9.53958 8.70666 9.16648 9.1669 9.16648H14.1668C14.6271 9.16648 15.0002 9.53958 15.0002 9.99982C15.0002 10.4601 14.6271 10.8332 14.1668 10.8332H9.1669C8.70666 10.8332 8.33357 10.4601 8.33357 9.99982ZM6.00008 14.6666C6.55237 14.6666 7.00008 14.2189 7.00008 13.6666C7.00008 13.1144 6.55237 12.6666 6.00008 12.6666C5.4478 12.6666 5.00008 13.1144 5.00008 13.6666C5.00008 14.2189 5.4478 14.6666 6.00008 14.6666ZM8.33357 13.6666C8.33357 13.2064 8.70666 12.8333 9.1669 12.8333H14.1668C14.6271 12.8333 15.0002 13.2064 15.0002 13.6666C15.0002 14.1268 14.6271 14.4999 14.1668 14.4999H9.1669C8.70666 14.4999 8.33357 14.1268 8.33357 13.6666Z" fill="currentColor"/>
</svg>
