<svg width="1em" height="1em" viewBox="0 0 24 24" fill="none" xmlns="http://www.w3.org/2000/svg">
<path fill="currentColor" fill-rule="evenodd" clip-rule="evenodd" d="M2 5C2 3.34315 3.34315 2 5 2H19C20.6569 2 22 3.34315 22 5V19C22 20.6569 20.6569 22 19 22H5C3.34315 22 2 20.6569 2 19V5ZM5 4C4.44772 4 4 4.44772 4 5V19C4 19.5523 4.44772 20 5 20H19C19.5523 20 20 19.5523 20 19V5C20 4.44772 19.5523 4 19 4H5ZM7.2 8.7999C7.86274 8.7999 8.4 8.26264 8.4 7.5999C8.4 6.93716 7.86274 6.3999 7.2 6.3999C6.53726 6.3999 6 6.93716 6 7.5999C6 8.26264 6.53726 8.7999 7.2 8.7999ZM11.0002 6.59985C10.4479 6.59985 10.0002 7.04757 10.0002 7.59985C10.0002 8.15214 10.4479 8.59985 11.0002 8.59985H17.0001C17.5524 8.59985 18.0001 8.15214 18.0001 7.59985C18.0001 7.04757 17.5524 6.59985 17.0001 6.59985H11.0002ZM7.2 13.1998C7.86274 13.1998 8.4 12.6625 8.4 11.9998C8.4 11.3371 7.86274 10.7998 7.2 10.7998C6.53726 10.7998 6 11.3371 6 11.9998C6 12.6625 6.53726 13.1998 7.2 13.1998ZM11.0002 10.9998C10.4479 10.9998 10.0002 11.4475 10.0002 11.9998C10.0002 12.552 10.4479 12.9998 11.0002 12.9998H17.0001C17.5524 12.9998 18.0001 12.552 18.0001 11.9998C18.0001 11.4475 17.5524 10.9998 17.0001 10.9998H11.0002ZM7.2 17.6C7.86274 17.6 8.4 17.0627 8.4 16.4C8.4 15.7372 7.86274 15.2 7.2 15.2C6.53726 15.2 6 15.7372 6 16.4C6 17.0627 6.53726 17.6 7.2 17.6ZM11.0002 15.3999C10.4479 15.3999 10.0002 15.8476 10.0002 16.3999C10.0002 16.9522 10.4479 17.3999 11.0002 17.3999H17.0001C17.5524 17.3999 18.0001 16.9522 18.0001 16.3999C18.0001 15.8476 17.5524 15.3999 17.0001 15.3999H11.0002Z" />
</svg>
