<svg width="1em" height="1em" viewBox="0 0 24 24" fill="none" xmlns="http://www.w3.org/2000/svg">
<path fill="currentColor" fill-rule="evenodd" clip-rule="evenodd" d="M8.5 3C9.05228 3 9.5 3.44772 9.5 4V5.0625H11.2502H14.0002C14.5525 5.0625 15.0002 5.51022 15.0002 6.0625C15.0002 6.61478 14.5525 7.0625 14.0002 7.0625H12.1961C11.9935 8.9253 11.2291 10.6863 10.0011 12.1082C11.186 12.8912 12.5764 13.3101 14 13.3101C14.074 13.3101 14.1461 13.3181 14.2155 13.3334L15.6058 10.5528C15.7752 10.214 16.1214 10 16.5002 10C16.879 10 17.2253 10.214 17.3946 10.5528L20.5942 16.9519C20.6047 16.9713 20.6146 16.9911 20.6239 17.0113L21.8946 19.5528C22.1416 20.0468 21.9414 20.6474 21.4474 20.8944C20.9535 21.1414 20.3528 20.9412 20.1058 20.4472L19.0962 18.428H13.9043L12.8946 20.4472C12.6477 20.9412 12.047 21.1414 11.553 20.8944C11.059 20.6474 10.8588 20.0468 11.1058 19.5528L12.3786 17.0073C12.3866 16.9898 12.3952 16.9727 12.4043 16.9558L13.2427 15.279C11.5983 15.144 10.015 14.5712 8.66003 13.6138C8.60665 13.5761 8.55371 13.5378 8.50122 13.4991C6.91865 14.6697 4.99258 15.3125 3.00024 15.3125C2.44796 15.3125 2.00024 14.8648 2.00024 14.3125C2.00024 13.7602 2.44796 13.3125 3.00024 13.3125C4.43338 13.3125 5.82276 12.8882 7.00043 12.1091C6.25106 11.2425 5.66481 10.2392 5.27784 9.14698C5.0934 8.62641 5.36588 8.05488 5.88646 7.87043C6.40704 7.68599 6.97857 7.95848 7.16301 8.47905C7.46412 9.32889 7.91915 10.1101 8.50038 10.786C9.40782 9.72942 9.98975 8.43579 10.181 7.0625H8.5H3.00024C2.44796 7.0625 2.00024 6.61478 2.00024 6.0625C2.00024 5.51022 2.44796 5.0625 3.00024 5.0625H7.5V4C7.5 3.44772 7.94772 3 8.5 3ZM18.0962 16.428L16.5002 13.2361L14.9043 16.428H18.0962Z" />
</svg>
