<svg width="1em" height="1em" viewBox="0 0 24 24" fill="currentColor" xmlns="http://www.w3.org/2000/svg">
<path fill-rule="evenodd" clip-rule="evenodd" d="M12 2C9.992 2 8.01876 2.80341 6.54426 4.04209C5.07437 5.27691 4 7.03559 4 9C4 11.3312 4.91065 12.5918 5.71247 13.6165L5.78817 13.7131C6.30349 14.3706 6.70133 14.8782 6.88631 15.5675C6.95165 15.811 7.15953 16.0004 7.41165 16.0004L10.5006 16.0001C10.7765 16 11.0002 15.7765 11.0005 15.5006L11.0031 13.125C11.0033 12.9922 10.9506 12.8648 10.8567 12.7709L8.79289 10.7071C8.40237 10.3166 8.40237 9.68342 8.79289 9.29289C9.18342 8.90237 9.81658 8.90237 10.2071 9.29289L12 11.0858L13.7929 9.29289C14.1834 8.90237 14.8166 8.90237 15.2071 9.29289C15.5976 9.68342 15.5976 10.3166 15.2071 10.7071L13.1433 12.7709C13.0494 12.8648 12.9967 12.9922 12.9969 13.125L12.9995 15.5006C12.9998 15.7765 13.2235 16 13.4994 16.0001L16.5883 16.0004C16.8405 16.0004 17.0483 15.811 17.1137 15.5675C17.2987 14.8782 17.6965 14.3706 18.2118 13.7131L18.2875 13.6165C19.0894 12.5918 20 11.3312 20 9C20 7.03559 18.9256 5.27691 17.4557 4.04209C15.9812 2.80341 14.008 2 12 2ZM7.5 18C7.22386 18 7 18.2239 7 18.5V18.9992C7 20.6555 8.3426 22 10 22H12H14C15.6574 22 17 20.6555 17 18.9992V18.5C17 18.2239 16.7761 18 16.5 18H7.5Z" fill="currentColor"/>
</svg>
