<svg width="1em" height="1em" viewBox="0 0 24 24" fill="currentColor" xmlns="http://www.w3.org/2000/svg">
<path fill-rule="evenodd" clip-rule="evenodd" d="M6.54426 4.04209C8.01876 2.80341 9.992 2 12 2C14.008 2 15.9812 2.80341 17.4557 4.04209C18.9256 5.27691 20 7.03559 20 9C20 11.3312 19.0894 12.5918 18.2875 13.6165L18.2118 13.7131C17.491 14.6328 17 15.2592 17 16.5V17V18.9992C17 20.6555 15.6574 22 14 22H12H10C8.3426 22 7 20.6555 7 18.9992L7 17L7 16.5C7 15.2592 6.50902 14.6328 5.78817 13.7131L5.71247 13.6165C4.91065 12.5918 4 11.3312 4 9C4 7.03559 5.07437 5.27691 6.54426 4.04209ZM9 18V18.9992C9 19.552 9.44826 20 10 20H12H14C14.5517 20 15 19.552 15 18.9992V18H9ZM15.0201 16H13V13C13 12.9722 12.9989 12.9447 12.9967 12.9176L15.2071 10.7071C15.5976 10.3166 15.5976 9.68342 15.2071 9.29289C14.8166 8.90237 14.1834 8.90237 13.7929 9.29289L12 11.0858L10.2071 9.29289C9.81658 8.90237 9.18342 8.90237 8.79289 9.29289C8.40237 9.68342 8.40237 10.3166 8.79289 10.7071L11.0033 12.9176C11.0011 12.9447 11 12.9722 11 13V16H8.97986C8.84519 14.3616 8.06065 13.3656 7.40507 12.5334C7.3654 12.4831 7.32607 12.4332 7.28752 12.3839C6.58935 11.4917 6 10.6688 6 9C6 7.78513 6.67561 6.54381 7.83071 5.57345C8.9812 4.60695 10.508 4 12 4C13.492 4 15.0188 4.60695 16.1693 5.57345C17.3244 6.54381 18 7.78513 18 9C18 10.6688 17.4106 11.4917 16.7125 12.3839C16.6739 12.4332 16.6347 12.4829 16.5951 12.5333C15.9395 13.3655 15.1548 14.3616 15.0201 16Z" fill="currentColor"/>
</svg>
