<svg width="1em" height="1em" viewBox="0 0 24 24" fill="none" xmlns="http://www.w3.org/2000/svg">
<path fill="currentColor" fill-rule="evenodd" clip-rule="evenodd" d="M17.111 2C15.8143 2 14.5707 2.5151 13.6539 3.43197L11.4676 5.61825C11.077 6.00877 11.077 6.64194 11.4676 7.03246C11.8581 7.42299 12.4913 7.42299 12.8818 7.03246L15.0681 4.84619C15.6099 4.30438 16.3447 4 17.111 4C18.7066 4 20.0001 5.29349 20.0001 6.88909V7.24264C20.0001 8.10264 19.6584 8.92742 19.0503 9.53553L16.0543 12.5315C14.8561 13.7297 12.942 13.8166 11.6402 12.7318C11.2159 12.3782 10.5854 12.4355 10.2318 12.8598C9.87825 13.2841 9.93558 13.9147 10.3599 14.2682C12.4563 16.0152 15.5389 15.8754 17.4685 13.9458L20.4645 10.9497C21.4477 9.96656 22.0001 8.63308 22.0001 7.24264V6.88909C22.0001 4.18892 19.8111 2 17.111 2ZM6.88906 22C8.18572 22 9.42928 21.4849 10.3462 20.568L12.5324 18.3818C12.923 17.9912 12.923 17.3581 12.5324 16.9675C12.1419 16.577 11.5088 16.577 11.1182 16.9675L8.93195 19.1538C8.39014 19.6956 7.65529 20 6.88906 20C5.29346 20 3.99997 18.7065 3.99997 17.1109V16.7574C3.99997 15.8974 4.3416 15.0726 4.94972 14.4645L7.94573 11.4685C9.14392 10.2703 11.0581 10.1834 12.3598 11.2682C12.7841 11.6218 13.4146 11.5645 13.7682 11.1402C14.1218 10.7159 14.0644 10.0853 13.6402 9.73178C11.5438 7.98479 8.46114 8.12462 6.53152 10.0542L3.5355 13.0503C2.55232 14.0334 1.99997 15.3669 1.99997 16.7574V17.1109C1.99997 19.8111 4.18889 22 6.88906 22Z" />
</svg>
