<svg width="1em" height="1em" viewBox="0 0 24 24" fill="none" xmlns="http://www.w3.org/2000/svg">
<path fill="currentColor" fill-rule="evenodd" clip-rule="evenodd" d="M5.4 5.9998C5.4 6.66255 4.86274 7.1998 4.2 7.1998C3.53726 7.1998 3 6.66255 3 5.9998C3 5.33706 3.53726 4.7998 4.2 4.7998C4.86274 4.7998 5.4 5.33706 5.4 5.9998ZM8.5 5C7.94772 5 7.5 5.44772 7.5 6C7.5 6.55228 7.94772 7 8.5 7H20C20.5523 7 21 6.55228 21 6C21 5.44772 20.5523 5 20 5H8.5ZM8.5 11C7.94772 11 7.5 11.4477 7.5 12C7.5 12.5523 7.94772 13 8.5 13H20C20.5523 13 21 12.5523 21 12C21 11.4477 20.5523 11 20 11H8.5ZM7.5 18C7.5 17.4477 7.94772 17 8.5 17H19.9999C20.5522 17 20.9999 17.4477 20.9999 18C20.9999 18.5523 20.5522 19 19.9999 19H8.5C7.94772 19 7.5 18.5523 7.5 18ZM4.2 13.1998C4.86274 13.1998 5.4 12.6625 5.4 11.9998C5.4 11.3371 4.86274 10.7998 4.2 10.7998C3.53726 10.7998 3 11.3371 3 11.9998C3 12.6625 3.53726 13.1998 4.2 13.1998ZM5.4 17.9998C5.4 18.6625 4.86274 19.1998 4.2 19.1998C3.53726 19.1998 3 18.6625 3 17.9998C3 17.3371 3.53726 16.7998 4.2 16.7998C4.86274 16.7998 5.4 17.3371 5.4 17.9998Z" />
</svg>
