<svg width="1em" height="1em" viewBox="0 0 24 24" fill="none" xmlns="http://www.w3.org/2000/svg">
<path fill="currentColor" fill-rule="evenodd" clip-rule="evenodd" d="M5.11077 4.01247C5.33601 4.06261 5.49513 4.25222 5.49513 4.47047V8.23521C5.49513 8.49511 5.27172 8.7058 4.99612 8.7058C4.72053 8.7058 4.49712 8.49511 4.49712 8.23521V5.80529C4.27947 5.98664 4.02149 6.16207 3.72227 6.30316C3.47578 6.41939 3.17604 6.32517 3.05279 6.0927C2.92954 5.86024 3.02945 5.57757 3.27595 5.46134C3.68874 5.2667 4.00977 4.96814 4.23222 4.70591C4.34202 4.57647 4.42397 4.46041 4.47758 4.37825C4.50231 4.34035 4.52645 4.30197 4.54839 4.26255C4.65612 4.07037 4.88245 3.96164 5.11077 4.01247ZM3.14618 10.921C2.95129 10.7372 2.95127 10.4393 3.14613 10.2555L3.14735 10.2543L3.14877 10.253L3.1522 10.2498L3.16141 10.2415C3.16858 10.2351 3.17784 10.227 3.18913 10.2174C3.21169 10.1984 3.24255 10.1734 3.28135 10.1447C3.35871 10.0873 3.46913 10.0136 3.60985 9.9406C3.89084 9.79476 4.30199 9.64696 4.8136 9.64698L4.82199 9.64705C5.19547 9.65299 5.60085 9.74434 5.9266 9.97183C6.27072 10.2121 6.49303 10.5841 6.49303 11.0588C6.49303 11.5744 6.25122 11.935 5.92363 12.1924C5.67321 12.3892 5.35262 12.5376 5.09119 12.6585L5.09116 12.6585L5.0905 12.6588C5.04853 12.6782 5.00807 12.697 4.96967 12.7151C4.65903 12.8615 4.42348 12.9906 4.25808 13.1622C4.19175 13.231 4.13232 13.3114 4.08708 13.4118H5.99402C6.26962 13.4118 6.49303 13.6225 6.49303 13.8824C6.49303 14.1423 6.26906 14.353 5.99347 14.353H3.499C3.22341 14.353 3 14.1423 3 13.8824C3 13.2996 3.19879 12.8619 3.51962 12.5291C3.82204 12.2154 4.21024 12.0209 4.52336 11.8732C4.57348 11.8496 4.62201 11.827 4.66776 11.8056L4.66777 11.8056L4.66778 11.8056C4.9375 11.6797 5.13366 11.5881 5.28472 11.4694C5.42494 11.3592 5.49502 11.2492 5.49502 11.0588C5.49502 10.8888 5.42822 10.7949 5.33267 10.7282C5.21944 10.6491 5.03615 10.5924 4.80933 10.5882C4.50732 10.589 4.26266 10.6761 4.09105 10.7652C4.00508 10.8098 3.93978 10.8537 3.89809 10.8846C3.87736 10.9 3.86286 10.9119 3.85495 10.9185L3.84839 10.9242C3.65326 11.1047 3.33991 11.1037 3.14618 10.921ZM4.74662 17.1764C4.47103 17.1764 4.24762 17.3871 4.24762 17.647C4.24762 17.9069 4.47103 18.1176 4.74662 18.1176C5.08873 18.1176 5.27778 18.2086 5.37301 18.29C5.46709 18.3703 5.50572 18.47 5.50172 18.5706C5.49448 18.7527 5.3162 19.0588 4.74662 19.0588C4.33494 19.0588 4.12172 18.9631 4.02541 18.9026C3.97496 18.8708 3.94783 18.8433 3.93704 18.8311L3.93295 18.8263C3.80289 18.61 3.51449 18.5254 3.27595 18.6379C3.02945 18.7541 2.92954 19.0368 3.05279 19.2693L3.0535 19.2706L3.05425 19.272L3.05583 19.2749L3.05937 19.2813L3.06801 19.2961C3.0745 19.3069 3.08245 19.3195 3.09203 19.3335C3.11119 19.3616 3.13689 19.3957 3.17035 19.4336C3.23752 19.5096 3.33515 19.5997 3.47182 19.6857C3.74976 19.8604 4.1603 20 4.74662 20C5.77386 20 6.46884 19.3649 6.49902 18.6059C6.51278 18.26 6.38123 17.9134 6.10339 17.647C6.38123 17.3807 6.51278 17.0341 6.49902 16.6882C6.46884 15.9291 5.77386 15.2941 4.74662 15.2941C4.1603 15.2941 3.74976 15.4337 3.47182 15.6084C3.33515 15.6943 3.23752 15.7845 3.17035 15.8605C3.13689 15.8983 3.11119 15.9325 3.09203 15.9606C3.08245 15.9746 3.0745 15.9872 3.06801 15.998L3.05937 16.0128L3.05583 16.0192L3.05425 16.0221L3.0535 16.0235L3.05279 16.0248C2.92954 16.2573 3.02945 16.5399 3.27595 16.6562C3.51449 16.7687 3.80289 16.684 3.93295 16.4678L3.93704 16.463C3.94783 16.4508 3.97496 16.4232 4.02541 16.3915C4.12172 16.331 4.33494 16.2353 4.74662 16.2353C5.3162 16.2353 5.49448 16.5414 5.50172 16.7235C5.50572 16.824 5.46709 16.9238 5.37301 17.0041C5.27778 17.0855 5.08873 17.1764 4.74662 17.1764ZM9.5 5C8.94772 5 8.5 5.44772 8.5 6C8.5 6.55228 8.94772 7 9.5 7H20C20.5523 7 21 6.55228 21 6C21 5.44772 20.5523 5 20 5H9.5ZM9.5 11C8.94772 11 8.5 11.4477 8.5 12C8.5 12.5523 8.94772 13 9.5 13H20C20.5523 13 21 12.5523 21 12C21 11.4477 20.5523 11 20 11H9.5ZM8.5 18C8.5 17.4477 8.94772 17 9.5 17H20.0001C20.5523 17 21.0001 17.4477 21.0001 18C21.0001 18.5523 20.5523 19 20.0001 19H9.5C8.94772 19 8.5 18.5523 8.5 18Z" />
</svg>
