<svg width="1em" height="1em" viewBox="0 0 24 24" fill="none" xmlns="http://www.w3.org/2000/svg">
<path fill="currentColor" fill-rule="evenodd" clip-rule="evenodd" d="M6 10C6 6.68629 8.68629 4 12 4C15.3137 4 18 6.68629 18 10C18 12.0834 16.6486 14.6063 15.0311 16.7164C14.2419 17.746 13.4307 18.6235 12.7764 19.2348C12.4625 19.5281 12.1982 19.7475 12 19.8905C11.8018 19.7475 11.5375 19.5281 11.2236 19.2348C10.5693 18.6235 9.75814 17.746 8.9689 16.7164C7.35144 14.6063 6 12.0834 6 10ZM11.7564 20.0433C11.7566 20.0429 11.762 20.0403 11.772 20.0365C11.7613 20.0418 11.7563 20.0437 11.7564 20.0433ZM12.228 20.0365C12.2381 20.0403 12.2434 20.0429 12.2436 20.0433C12.2437 20.0437 12.2387 20.0418 12.228 20.0365ZM12 2C7.58172 2 4 5.58172 4 10C4 12.7826 5.71556 15.7597 7.3816 17.9331C8.23412 19.0453 9.11884 20.0054 9.85819 20.6962C10.2262 21.04 10.573 21.3311 10.8732 21.5434C11.022 21.6487 11.178 21.7479 11.3325 21.8249C11.4549 21.8859 11.7035 22 12 22C12.2965 22 12.5451 21.8859 12.6675 21.8249C12.822 21.7479 12.978 21.6487 13.1268 21.5434C13.427 21.3311 13.7738 21.04 14.1418 20.6962C14.8812 20.0054 15.7659 19.0453 16.6184 17.9331C18.2844 15.7597 20 12.7826 20 10C20 5.58172 16.4183 2 12 2ZM10 10C10 8.89543 10.8954 8 12 8C13.1046 8 14 8.89543 14 10C14 11.1046 13.1046 12 12 12C10.8954 12 10 11.1046 10 10ZM12 6C9.79086 6 8 7.79086 8 10C8 12.2091 9.79086 14 12 14C14.2091 14 16 12.2091 16 10C16 7.79086 14.2091 6 12 6Z" />
</svg>
