<svg width="1em" height="1em" viewBox="0 0 24 24" fill="none" xmlns="http://www.w3.org/2000/svg">
<path fill="currentColor" fill-rule="evenodd" clip-rule="evenodd" d="M4 10C4 5.58172 7.58172 2 12 2C16.4183 2 20 5.58172 20 10C20 12.7826 18.2844 15.7597 16.6184 17.9331C15.7659 19.0453 14.8812 20.0054 14.1418 20.6962C13.7738 21.04 13.427 21.3311 13.1268 21.5434C12.978 21.6487 12.822 21.7479 12.6675 21.8249C12.5451 21.8859 12.2965 22 12 22C11.7035 22 11.4549 21.8859 11.3325 21.8249C11.178 21.7479 11.022 21.6487 10.8732 21.5434C10.573 21.3311 10.2262 21.04 9.85819 20.6962C9.11884 20.0054 8.23412 19.0453 7.3816 17.9331C5.71556 15.7597 4 12.7826 4 10ZM12 13C13.6569 13 15 11.6569 15 10C15 8.34315 13.6569 7 12 7C10.3431 7 9 8.34315 9 10C9 11.6569 10.3431 13 12 13Z" />
</svg>
