<svg width="1em" height="1em" viewBox="0 0 20 20" fill="none" xmlns="http://www.w3.org/2000/svg">
<path fill-rule="evenodd" clip-rule="evenodd" d="M14.5833 6.25008C14.5833 3.71878 12.5313 1.66675 10 1.66675C7.46869 1.66675 5.41667 3.71878 5.41667 6.25008L5.41667 8.33342H5C3.61929 8.33342 2.5 9.4527 2.5 10.8334V15.8334C2.5 17.2141 3.61929 18.3334 5 18.3334H15C16.3807 18.3334 17.5 17.2141 17.5 15.8334V10.8334C17.5 9.4527 16.3807 8.33342 15 8.33342H14.5833V6.25008ZM12.9167 8.33342V6.25008C12.9167 4.63925 11.6108 3.33341 10 3.33341C8.38917 3.33341 7.08333 4.63925 7.08333 6.25008V8.33342H12.9167Z" fill="currentColor"/>
</svg>
