<svg width="1em" height="1em" viewBox="0 0 24 24" fill="none" xmlns="http://www.w3.org/2000/svg">
<path fill="currentColor" fill-rule="evenodd" clip-rule="evenodd" d="M15 4C14.4477 4 14 3.55228 14 3C14 2.44772 14.4477 2 15 2H19C20.6569 2 22 3.34315 22 5V19C22 20.6569 20.6569 22 19 22H15C14.4477 22 14 21.5523 14 21C14 20.4477 14.4477 20 15 20H19C19.5523 20 20 19.5523 20 19V5C20 4.44772 19.5523 4 19 4L15 4ZM15.7071 11.2929C15.8037 11.3895 15.8765 11.501 15.9253 11.62C15.9734 11.7372 16 11.8655 16 12C16 12.2661 15.8961 12.5079 15.7266 12.6871C15.7194 12.6946 15.7122 12.7021 15.7048 12.7094L10.7071 17.7071C10.3166 18.0976 9.68342 18.0976 9.2929 17.7071C8.90237 17.3166 8.90237 16.6834 9.2929 16.2929L12.5858 13L3 13C2.44771 13 2 12.5523 2 12C2 11.4477 2.44772 11 3 11L12.5858 11L9.2929 7.70711C8.90237 7.31658 8.90237 6.68342 9.2929 6.29289C9.68342 5.90237 10.3166 5.90237 10.7071 6.29289L15.7071 11.2929Z" />
</svg>
