<svg width="1em" height="1em" viewBox="0 0 24 24" fill="none" xmlns="http://www.w3.org/2000/svg">
<path fill="currentColor" fill-rule="evenodd" clip-rule="evenodd" d="M9 4C9.55229 4 10 3.55228 10 3C10 2.44772 9.55229 2 9 2H5C3.34315 2 2 3.34315 2 5V19C2 20.6569 3.34315 22 5 22H9C9.55228 22 10 21.5523 10 21C10 20.4477 9.55228 20 9 20H5C4.44772 20 4 19.5523 4 19L4 5C4 4.44772 4.44772 4 5 4L9 4ZM21.7071 11.2929C21.8037 11.3895 21.8765 11.501 21.9253 11.62C21.9734 11.7372 22 11.8655 22 12C22 12.2661 21.8961 12.5079 21.7266 12.6871C21.7194 12.6947 21.7121 12.7022 21.7047 12.7095L16.7071 17.7071C16.3166 18.0976 15.6834 18.0976 15.2929 17.7071C14.9024 17.3166 14.9024 16.6834 15.2929 16.2929L18.5858 13L9 13C8.44771 13 8 12.5523 8 12C8 11.4477 8.44772 11 9 11L18.5858 11L15.2929 7.70711C14.9024 7.31658 14.9024 6.68342 15.2929 6.29289C15.6834 5.90237 16.3166 5.90237 16.7071 6.29289L21.7071 11.2929Z" />
</svg>
