<svg width="1em" height="1em" viewBox="0 0 24 24" fill="none" xmlns="http://www.w3.org/2000/svg">
<path fill="currentColor" fill-rule="evenodd" clip-rule="evenodd" d="M2.01702 6.67858C2.1774 5.17287 3.45174 4 5.00001 4H19C20.5483 4 21.8226 5.17287 21.983 6.67859C21.9976 6.75661 22.0028 6.83562 21.9988 6.91393C21.9996 6.94252 22 6.97121 22 7V17C22 18.6569 20.6569 20 19 20H5.00001C3.34315 20 2.00001 18.6569 2.00001 17V7C2.00001 6.97122 2.00041 6.94253 2.00122 6.91394C1.99721 6.83563 2.00237 6.7566 2.01702 6.67858ZM4.00001 8.75579V17C4.00001 17.5523 4.44772 18 5.00001 18H19C19.5523 18 20 17.5523 20 17V8.75579L12.5826 13.8131C12.4116 13.9356 12.207 13.9999 12 14.0001C11.793 13.9999 11.5884 13.9356 11.4174 13.8131L4.00001 8.75579ZM12 11.7897L4.16587 6.44824C4.34491 6.17811 4.65166 6 5.00001 6H19C19.3484 6 19.6551 6.17811 19.8341 6.44824L12 11.7897Z" />
</svg>
