<svg width="1em" height="1em" viewBox="0 0 24 24" fill="none" xmlns="http://www.w3.org/2000/svg">
<path fill="currentColor" fill-rule="evenodd" clip-rule="evenodd" d="M14.8908 10.5235C15.5892 11.5043 16 12.7042 16 14C16 17.3137 13.3137 20 10 20C6.68629 20 4 17.3137 4 14C4 10.6863 6.68629 8 10 8C11.2958 8 12.4957 8.41079 13.4765 9.10926L16.5842 6.00156H14.2C13.6477 6.00156 13.2 5.55384 13.2 5.00156C13.2 4.44927 13.6477 4.00156 14.2 4.00156H18.9441C19.2183 3.98629 19.4976 4.0834 19.7071 4.29289C19.9018 4.48753 19.9994 4.74244 20 4.99754L20 9.8C20 10.3523 19.5523 10.8 19 10.8C18.4477 10.8 18 10.3523 18 9.8V7.41421L14.8908 10.5235ZM14 14C14 16.2091 12.2091 18 10 18C7.79086 18 6 16.2091 6 14C6 11.7909 7.79086 10 10 10C12.2091 10 14 11.7909 14 14Z" />
</svg>
