<svg width="1em" height="1em" viewBox="0 0 24 24" fill="none" xmlns="http://www.w3.org/2000/svg">
<path fill="currentColor" fill-rule="evenodd" clip-rule="evenodd" d="M10 5.61804L14 7.61804V14.2251C14.5538 13.6384 15.2353 13.1736 16 12.8749V7.78078L20 6.78078V12V12.8589V12.8749C20.7647 13.1736 21.4462 13.6384 22 14.2251V12.8589V12V5.5C22 5.19207 21.8581 4.9013 21.6154 4.7118C21.3727 4.52229 21.0562 4.45517 20.7575 4.52986L15.1163 5.94014L9.44721 3.10557C9.2337 2.99882 8.98905 2.97196 8.75746 3.02986L2.75746 4.52986C2.3123 4.64115 2 5.04113 2 5.5V12.1411V13V18.5C2 18.8079 2.14187 19.0987 2.38459 19.2882C2.6273 19.4777 2.94379 19.5448 3.24254 19.4701L8.88366 18.0599L12.9026 20.0693C12.643 19.4305 12.5 18.732 12.5 18C12.5 17.8783 12.504 17.7576 12.5117 17.6378L10 16.382V5.61804ZM8 16.2192V5.28078L4 6.28078V12.1411V13V17.2192L8 16.2192ZM22 18C22 20.2091 20.2091 22 18 22C15.7909 22 14 20.2091 14 18C14 15.7909 15.7909 14 18 14C20.2091 14 22 15.7909 22 18ZM18 15.3999C18.3314 15.3999 18.6 15.6685 18.6 15.9999V17.8804L20.1963 18.4329C20.5094 18.5413 20.6754 18.883 20.567 19.1962C20.4586 19.5093 20.1169 19.6753 19.8037 19.5669L17.8037 18.8746C17.5621 18.7909 17.4 18.5633 17.4 18.3076V15.9999C17.4 15.6685 17.6686 15.3999 18 15.3999Z" />
</svg>
