<svg width="1em" height="1em" viewBox="0 0 24 24" fill="none" xmlns="http://www.w3.org/2000/svg">
<path fill="currentColor" fill-rule="evenodd" clip-rule="evenodd" d="M14.5 21L9.5 18.4628V3L14.5 5.5372V21ZM16.5 20.7846L21.2425 19.5813C21.6877 19.4684 22 19.0624 22 18.5967V12.8717V12V5.40327C22 5.09075 21.8581 4.79566 21.6154 4.60334C21.3727 4.41101 21.0562 4.3429 20.7575 4.41869L16.5 5.4989V20.7846ZM2.75746 4.41869L7.5 3.21542V18.5011L3.24254 19.5813C2.94379 19.6571 2.6273 19.589 2.38459 19.3967C2.14187 19.2043 2 18.9092 2 18.5967V13.0149V12.1432V5.40327C2 4.93758 2.3123 4.53164 2.75746 4.41869Z" />
</svg>
