<svg width="1em" height="1em" viewBox="0 0 24 24" fill="none" xmlns="http://www.w3.org/2000/svg">
<path fill="currentColor" fill-rule="evenodd" clip-rule="evenodd" d="M10 5.61804L14 7.61804V18.382L10 16.382V5.61804ZM8 16.2192V5.28078L4 6.28078V12.1411V13V17.2192L8 16.2192ZM2 12.1411V5.5C2 5.04113 2.3123 4.64115 2.75746 4.52986L8.75746 3.02986C8.98905 2.97196 9.2337 2.99882 9.44721 3.10557L15.1163 5.94014L20.7575 4.52986C21.0562 4.45517 21.3727 4.52229 21.6154 4.7118C21.8581 4.9013 22 5.19207 22 5.5V12V12.8589V18.5C22 18.9589 21.6877 19.3589 21.2425 19.4701L15.2425 20.9701C15.011 21.028 14.7663 21.0012 14.5528 20.8944L8.88366 18.0599L3.24254 19.4701C2.94379 19.5448 2.6273 19.4777 2.38459 19.2882C2.14187 19.0987 2 18.8079 2 18.5V13V12.1411ZM20 12V6.78078L16 7.78078V18.7192L20 17.7192V12.8589V12Z" />
</svg>
