<svg width="1em" height="1em" viewBox="0 0 24 24" fill="none" xmlns="http://www.w3.org/2000/svg">
<path fill="currentColor" fill-rule="evenodd" clip-rule="evenodd" d="M20.9998 4.02085C21.0053 3.75802 20.9077 3.49346 20.7072 3.29289C20.5203 3.10603 20.2779 3.00858 20.0331 3.00054C20.022 3.00018 20.0109 3 19.9998 3H14.6665C14.1142 3 13.6665 3.44772 13.6665 4C13.6665 4.55228 14.1142 5 14.6665 5H17.5858L13.0707 9.51512C12.6802 9.90564 12.6802 10.5388 13.0707 10.9293C13.4612 11.3199 14.0944 11.3199 14.4849 10.9293L18.9998 6.41443V9.33333C18.9998 9.88562 19.4476 10.3333 19.9998 10.3333C20.5521 10.3333 20.9998 9.88562 20.9998 9.33333V4.02085ZM10.9293 14.4845C11.3199 14.0939 11.3199 13.4608 10.9293 13.0702C10.5388 12.6797 9.90564 12.6797 9.51512 13.0702L5 17.5854V14.667C5 14.1147 4.55228 13.667 4 13.667C3.44772 13.667 3 14.1147 3 14.667V19.9994C3 20.5517 3.44772 21.0003 4 21.0003H9.33333C9.88562 21.0003 10.3333 20.5526 10.3333 20.0003C10.3333 19.448 9.88562 19.0003 9.33333 19.0003H6.41345L10.9293 14.4845Z" />
</svg>
