<svg width="1em" height="1em" viewBox="0 0 24 24" fill="none" xmlns="http://www.w3.org/2000/svg">
<path fill="currentColor" fill-rule="evenodd" clip-rule="evenodd" d="M20 11.832V10.5V4.00623L17.314 5.45256C17.0962 5.56983 16.8737 5.69176 16.6468 5.8161C15.3183 6.54421 13.8392 7.35487 12.27 7.79489C11.2628 8.07733 10.6538 8.24109 9.87545 8.31417C9.75503 8.32547 9.63064 8.33458 9.5 8.34183V13.9901L9.56114 13.9937C10.5032 14.0514 11.1182 14.2142 12.27 14.5371C13.8392 14.9772 15.3183 15.7878 16.6468 16.5159C16.8737 16.6403 17.0962 16.7622 17.314 16.8795L20 18.3258V11.832ZM7.5 13.97V8.36204C7.31292 8.36027 7.1144 8.35814 6.90294 8.35587L6.65913 8.35327C5.19546 8.33778 4 9.52504 4 11C4 12.6582 5.34311 13.9927 6.99031 13.9752C7.16936 13.9733 7.33894 13.9716 7.5 13.97ZM2 11C2 8.42342 4.09265 6.326 6.68029 6.35338L6.79441 6.35459C8.35446 6.37113 9.09175 6.37895 9.68851 6.32292C10.2639 6.2689 10.7107 6.15499 11.73 5.86917C13.0597 5.4963 14.3101 4.81304 15.6486 4.08159C15.8845 3.95265 16.1234 3.82212 16.3658 3.69162L19.0616 2.24C20.3896 1.52491 22 2.48677 22 3.99508V10.5V11.832V18.3369C22 19.8453 20.3896 20.8071 19.0616 20.092L16.3658 18.6404C16.1234 18.5099 15.8846 18.3794 15.6486 18.2504C14.3101 17.519 13.0597 16.8357 11.73 16.4629C11.6221 16.4326 11.5205 16.4042 11.4244 16.3776L11.1166 19.7639C11.0016 21.0303 9.93975 22 8.66812 22C7.51726 22 6.5204 21.2016 6.26892 20.0786L5.28523 15.6857C3.36668 14.9967 2 13.1556 2 11ZM7.39867 15.9711L8.22059 19.6416C8.2675 19.8511 8.45344 20 8.66812 20C8.90532 20 9.10338 19.8191 9.12485 19.5829L9.45129 15.9907C9.44716 15.9904 9.44301 15.9902 9.43886 15.9899C8.96416 15.9609 8.3711 15.9616 7.39867 15.9711Z" />
</svg>
