<svg width="1em" height="1em" viewBox="0 0 24 24" fill="none" xmlns="http://www.w3.org/2000/svg">
<path fill="currentColor" fill-rule="evenodd" clip-rule="evenodd" d="M12 4C7.58172 4 4 7.58172 4 12C4 16.4142 7.57505 19.9933 11.9877 20L12 19.9999C13.3747 19.9999 14.6656 19.654 15.7935 19.0453C16.2795 18.783 16.8862 18.9643 17.1485 19.4503C17.4108 19.9364 17.2294 20.543 16.7434 20.8053C16.3556 21.0146 15.9523 21.1991 15.5359 21.3565L15.5231 21.3614C14.426 21.7745 13.2382 22 12 22C6.47715 22 2 17.5228 2 12C2 6.47715 6.47715 2 12 2C17.5228 2 22 6.47715 22 12V12.75C22 14.8211 20.3211 16.5 18.25 16.5C17.0513 16.5 15.9839 15.9376 15.2975 15.0622C14.4757 15.9466 13.3025 16.5 12 16.5C9.51472 16.5 7.5 14.4853 7.5 12C7.5 9.51472 9.51472 7.5 12 7.5C12.9361 7.5 13.8054 7.78581 14.5254 8.27493C14.6275 7.83103 15.0251 7.5 15.5 7.5C16.0523 7.5 16.5 7.94772 16.5 8.5V12V12.75C16.5 13.7165 17.2835 14.5 18.25 14.5C19.2165 14.5 20 13.7165 20 12.75V12C20 7.58172 16.4183 4 12 4ZM14.5 12C14.5 10.6193 13.3807 9.5 12 9.5C10.6193 9.5 9.5 10.6193 9.5 12C9.5 13.3807 10.6193 14.5 12 14.5C13.3807 14.5 14.5 13.3807 14.5 12Z" />
</svg>
