<svg width="1em" height="1em" viewBox="0 0 24 24" fill="none" xmlns="http://www.w3.org/2000/svg">
<path fill="currentColor" fill-rule="evenodd" clip-rule="evenodd" d="M4 17C4 16.4477 4.44772 16 5 16L19 16C19.5523 16 20 16.4477 20 17C20 17.5523 19.5523 18 19 18L5 18C4.44772 18 4 17.5523 4 17ZM4 7C4 6.44771 4.44772 6 5 6L19 6C19.5523 6 20 6.44772 20 7C20 7.55229 19.5523 8 19 8L5 8C4.44772 8 4 7.55229 4 7ZM5 11C4.44771 11 4 11.4477 4 12C4 12.5523 4.44772 13 5 13L15 13C15.5523 13 16 12.5523 16 12C16 11.4477 15.5523 11 15 11L5 11Z" />
</svg>
