<svg width="1em" height="1em" viewBox="0 0 24 24" fill="none" xmlns="http://www.w3.org/2000/svg">
<path fill="currentColor" fill-rule="evenodd" clip-rule="evenodd" d="M9.96761 6.79905L13.4684 11H18.5858L17.0429 9.45711C16.6524 9.06658 16.6524 8.43342 17.0429 8.04289C17.4334 7.65237 18.0666 7.65237 18.4571 8.04289L21.7064 11.2922C21.8878 11.4732 22 11.7235 22 12C22 12.2765 21.8878 12.5268 21.7064 12.7078L18.4571 15.9571C18.0666 16.3476 17.4334 16.3476 17.0429 15.9571C16.6524 15.5666 16.6524 14.9334 17.0429 14.5429L18.5858 13H13.4684L9.96761 17.2009C9.01764 18.3409 7.6104 19 6.1265 19H3C2.44772 19 2 18.5523 2 18C2 17.4477 2.44772 17 3 17H6.1265C7.01684 17 7.86118 16.6046 8.43116 15.9206L11.6983 12L8.43116 8.07942C7.86118 7.39544 7.01684 6.99997 6.1265 6.99997H3C2.44772 6.99997 2 6.55226 2 5.99997C2 5.44769 2.44772 4.99998 3 4.99998H6.1265C7.6104 4.99998 9.01764 5.65909 9.96761 6.79905Z" />
</svg>
