<svg width="1em" height="1em" viewBox="0 0 24 24" fill="none" xmlns="http://www.w3.org/2000/svg">
<path fill="currentColor" fill-rule="evenodd" clip-rule="evenodd" d="M8.5 11.5V10.7581L12.1338 14.9975C12.0894 14.9992 12.0448 15 12 15C10.067 15 8.5 13.433 8.5 11.5ZM12.0099 16.5C12.4488 16.4992 12.8745 16.4418 13.28 16.3347L14.6804 17.9685C14.15 18.1886 13.5867 18.3452 13 18.4292V20H16C16.5523 20 17 20.4477 17 21C17 21.5523 16.5523 22 16 22H12H8C7.44772 22 7 21.5523 7 21C7 20.4477 7.44772 20 8 20H11V18.4291C7.60771 17.9439 5 15.0265 5 11.5V10.5C5 9.94772 5.44772 9.5 6 9.5C6.55228 9.5 7 9.94772 7 10.5V11.5C7 14.2614 9.23858 16.5 12 16.5L12.0099 16.5ZM16.8308 12.7944L18.3144 14.5252C18.7538 13.6096 19 12.5836 19 11.5001V10.4996C19 9.94735 18.5523 9.49963 18 9.49963C17.4477 9.49963 17 9.94735 17 10.4996V11.5001C17 11.9477 16.9412 12.3816 16.8308 12.7944ZM13.5 8.90844L15.5 11.2418V5.5C15.5 3.567 13.933 2 12 2C10.7361 2 9.62865 2.66995 9.01343 3.6741L10.5026 5.41144C10.5484 4.62423 11.2013 4 12 4C12.8284 4 13.5 4.67157 13.5 5.5V8.90844ZM6.75924 3.34923C6.39982 2.9299 5.76852 2.88134 5.3492 3.24076C4.92987 3.60018 4.88131 4.23148 5.24073 4.65081L17.2407 18.6508C17.6002 19.0702 18.2315 19.1187 18.6508 18.7593C19.0701 18.3999 19.1187 17.7686 18.7592 17.3493L6.75924 3.34923Z" />
</svg>
