<svg width="1em" height="1em" viewBox="0 0 24 24" fill="none" xmlns="http://www.w3.org/2000/svg">
<path fill="currentColor" fill-rule="evenodd" clip-rule="evenodd" d="M8.5 5.5C8.5 3.567 10.067 2 12 2C13.933 2 15.5 3.567 15.5 5.5V11.5C15.5 13.433 13.933 15 12 15C10.067 15 8.5 13.433 8.5 11.5V5.5ZM12 4C11.1716 4 10.5 4.67157 10.5 5.5V11.5C10.5 12.3284 11.1716 13 12 13C12.8284 13 13.5 12.3284 13.5 11.5V5.5C13.5 4.67157 12.8284 4 12 4ZM18 9.49963C18.5523 9.49963 19 9.94735 19 10.4996V11.5001C19 15.0265 16.3923 17.9439 13 18.4292V20H16C16.5523 20 17 20.4477 17 21C17 21.5523 16.5523 22 16 22H12H8C7.44772 22 7 21.5523 7 21C7 20.4477 7.44772 20 8 20H11V18.4291C7.60771 17.9439 5 15.0265 5 11.5V10.5C5 9.94772 5.44772 9.5 6 9.5C6.55228 9.5 7 9.94772 7 10.5V11.5C7 14.2614 9.23858 16.5 12 16.5L12.0099 16.5C14.7668 16.4947 17 14.2582 17 11.5001V10.4996C17 9.94735 17.4477 9.49963 18 9.49963Z" />
</svg>
