<svg width="1em" height="1em" viewBox="0 0 24 24" fill="none" xmlns="http://www.w3.org/2000/svg">
<path fill="currentColor" fill-rule="evenodd" clip-rule="evenodd" d="M20.7072 3.29289C21.0977 3.68342 21.0977 4.31658 20.7072 4.70711L16.1923 9.22201H19.1112C19.6635 9.22201 20.1112 9.66972 20.1112 10.222C20.1112 10.7743 19.6635 11.222 19.1112 11.222H13.7987C13.5359 11.2275 13.2713 11.1299 13.0707 10.9293C12.952 10.8107 12.8694 10.6696 12.8229 10.5197C12.7936 10.4257 12.7778 10.3257 12.7778 10.222V4.88867C12.7778 4.33639 13.2255 3.88867 13.7778 3.88867C14.3301 3.88867 14.7778 4.33639 14.7778 4.88867V7.80801L19.2929 3.29289C19.6835 2.90237 20.3166 2.90237 20.7072 3.29289ZM10.9293 13.0702C11.1299 13.2708 11.2275 13.5354 11.222 13.7982V19.1107C11.222 19.663 10.7743 20.1107 10.222 20.1107C9.66972 20.1107 9.22201 19.663 9.22201 19.1107V16.1918L4.70711 20.7067C4.31658 21.0972 3.68342 21.0972 3.29289 20.7067C2.90237 20.3161 2.90237 19.683 3.29289 19.2925L7.80801 14.7773H4.88867C4.33639 14.7773 3.88867 14.3296 3.88867 13.7773C3.88867 13.2251 4.33639 12.7773 4.88867 12.7773H10.222C10.233 12.7773 10.2442 12.7775 10.2552 12.7779C10.5 12.7859 10.7425 12.8834 10.9293 13.0702Z" />
</svg>
