<svg width="1em" height="1em" viewBox="0 0 24 24" fill="none" xmlns="http://www.w3.org/2000/svg">
<path fill="currentColor" fill-rule="evenodd" clip-rule="evenodd" d="M21.7071 2.29289C21.9813 2.56705 22.0722 2.97497 21.9406 3.33964L15.4406 21.3396C15.297 21.7372 14.919 22.0015 14.4964 22C14.0737 21.9985 13.6977 21.7314 13.557 21.3328L10.7162 13.2838L2.66718 10.443C2.26862 10.3023 2.00154 9.92627 2.00001 9.50362C1.99848 9.08097 2.26283 8.703 2.66036 8.55944L20.6604 2.05944C21.025 1.92776 21.4329 2.01873 21.7071 2.29289ZM12.6527 12.7615L14.5108 18.0259L19.3359 4.66414L5.97409 9.48922L11.2385 11.3473L13.7929 8.79289C14.1834 8.40237 14.8166 8.40237 15.2071 8.79289C15.5976 9.18342 15.5976 9.81658 15.2071 10.2071L12.6527 12.7615Z" />
</svg>
