<svg width="1em" height="1em" viewBox="0 0 24 24" fill="none" xmlns="http://www.w3.org/2000/svg">
<path fill="currentColor" fill-rule="evenodd" clip-rule="evenodd" d="M21.7071 2.29289C21.9813 2.56705 22.0722 2.97497 21.9406 3.33964L15.4406 21.3396C15.297 21.7372 14.919 22.0015 14.4964 22C14.0737 21.9985 13.6977 21.7314 13.557 21.3328L11.2949 14.9234C11.1667 14.5603 11.2584 14.1558 11.5307 13.8835L15.2071 10.2071C15.5976 9.81658 15.5976 9.18342 15.2071 8.79289C14.8166 8.40237 14.1834 8.40237 13.7929 8.79289L10.1165 12.4693C9.84422 12.7416 9.43975 12.8333 9.0766 12.7051L2.66718 10.443C2.26862 10.3023 2.00154 9.92627 2.00001 9.50362C1.99848 9.08097 2.26283 8.703 2.66036 8.55944L20.6604 2.05944C21.025 1.92776 21.4329 2.01873 21.7071 2.29289Z" />
</svg>
