<svg width="1em" height="1em" viewBox="0 0 24 24" fill="none" xmlns="http://www.w3.org/2000/svg">
<path fill-rule="evenodd" clip-rule="evenodd" d="M13.971 5.41663C13.5107 5.41663 13.1376 5.78972 13.1376 6.24996C13.1376 6.7102 13.5107 7.08329 13.971 7.08329H15.9532L14.7458 8.91702C14.5772 9.17299 14.5628 9.50083 14.7082 9.77063C14.8535 10.0404 15.1353 10.2087 15.4418 10.2086C15.6339 10.2086 15.8257 10.2588 16.0006 10.3582C16.176 10.4578 16.331 10.6049 16.448 10.791C16.5651 10.9773 16.6394 11.1951 16.6607 11.4251C16.682 11.6552 16.6494 11.8863 16.5673 12.097C16.4852 12.3075 16.3575 12.4881 16.2001 12.6254C16.0429 12.7624 15.8608 12.8525 15.6711 12.8926C15.4817 12.9326 15.286 12.9226 15.0999 12.8626C14.9135 12.8025 14.7386 12.6929 14.5931 12.5382C14.2776 12.203 13.7502 12.187 13.4151 12.5025C13.0799 12.8179 13.0639 13.3453 13.3794 13.6804C13.7125 14.0345 14.1271 14.3002 14.5886 14.4489C15.0504 14.5978 15.5412 14.6236 16.0158 14.5232C16.4902 14.423 16.9293 14.2009 17.2955 13.8815C17.6614 13.5624 17.9431 13.1564 18.1201 12.7023C18.2971 12.2483 18.3653 11.7571 18.3202 11.2713C18.2752 10.7854 18.1179 10.3156 17.8588 9.90374C17.5997 9.49167 17.2455 9.14846 16.8237 8.90892C16.805 8.89829 16.7861 8.88788 16.7672 8.87769L18.1957 6.70826C18.3643 6.45229 18.3787 6.12446 18.2333 5.85466C18.088 5.58485 17.8062 5.41663 17.4997 5.41663H13.971ZM4.64796 5.50978C4.92467 5.65291 5.09843 5.93843 5.09843 6.24996V13.75C5.09843 14.2102 4.72534 14.5833 4.2651 14.5833C3.80486 14.5833 3.43177 14.2102 3.43177 13.75V7.86104L2.98193 8.17954C2.60631 8.44548 2.08622 8.35658 1.82027 7.98096C1.55433 7.60534 1.64323 7.08524 2.01885 6.8193L3.78356 5.56984C4.03781 5.38982 4.37125 5.36666 4.64796 5.50978ZM9.50146 7.08626C9.37955 7.07592 9.25616 7.09262 9.1384 7.13649C9.02047 7.18042 8.90873 7.25146 8.81179 7.3482C8.71471 7.44508 8.63484 7.56547 8.58005 7.7032C8.40993 8.13084 7.92535 8.33961 7.49771 8.16949C7.07007 7.99937 6.8613 7.51479 7.03142 7.08715C7.16827 6.74311 7.37277 6.42966 7.63451 6.16846C7.89638 5.90713 8.20998 5.7038 8.55659 5.57467C8.90337 5.44549 9.27345 5.39428 9.64225 5.42555C10.011 5.45681 10.3672 5.56955 10.6879 5.75412C11.0084 5.93858 11.2851 6.18998 11.5027 6.48932C11.7201 6.78855 11.8742 7.12988 11.9576 7.49078C12.0409 7.85164 12.0522 8.22638 11.991 8.59169C11.9298 8.95704 11.7969 9.3073 11.5988 9.6197C11.5915 9.6312 11.5839 9.64252 11.5761 9.65364L9.27474 12.9164L11.1964 12.9162C11.6566 12.9161 12.0297 13.2892 12.0298 13.7494C12.0299 14.2096 11.6568 14.5828 11.1966 14.5828L7.66716 14.5833C7.35588 14.5833 7.07052 14.4099 6.92725 14.1335C6.78397 13.8572 6.80665 13.524 6.98607 13.2696L10.2006 8.71211C10.2727 8.59429 10.3232 8.45977 10.3473 8.31624C10.3723 8.16663 10.3676 8.01295 10.3336 7.86585C10.2997 7.71879 10.2378 7.58385 10.1544 7.46908C10.0711 7.35444 9.96882 7.26327 9.85647 7.1986C9.74431 7.13404 9.62342 7.0966 9.50146 7.08626Z" fill="currentColor"/>
</svg>
