<svg width="1em" height="1em" viewBox="0 0 24 24" fill="none" xmlns="http://www.w3.org/2000/svg">
<path fill="currentColor" fill-rule="evenodd" clip-rule="evenodd" d="M2 7C2 5.34315 3.34315 4 5 4H19C20.6569 4 22 5.34315 22 7V17C22 18.6569 20.6569 20 19 20H5C3.34315 20 2 18.6569 2 17V7ZM11.077 15.1337C11.5643 14.5561 11.808 13.7451 11.808 12.7005V11.369C11.801 10.303 11.5521 9.47594 11.0612 8.8877C10.5703 8.2959 9.89888 8 9.04687 8C8.18083 8 7.50412 8.30125 7.01676 8.90374C6.52939 9.50267 6.28571 10.3369 6.28571 11.4064V12.738C6.29272 13.7683 6.54166 14.5704 7.03253 15.1444C7.52341 15.7148 8.19836 16 9.05738 16C9.91992 16 10.5931 15.7112 11.077 15.1337ZM9.96199 9.82888C10.1583 10.1711 10.2565 10.6934 10.2565 11.3957V12.7487C10.253 13.4118 10.1531 13.902 9.95673 14.2193C9.76038 14.533 9.4606 14.6898 9.05738 14.6898C8.64014 14.6898 8.33159 14.5294 8.13174 14.2086C7.93188 13.8841 7.83195 13.3815 7.83195 12.7005V11.3155C7.83897 10.6417 7.94065 10.1408 8.137 9.81283C8.33335 9.48128 8.63664 9.31551 9.04687 9.31551C9.4606 9.31551 9.76564 9.48663 9.96199 9.82888ZM15.9103 13.1337C16.0716 13.2941 16.1523 13.533 16.1523 13.8503C16.1523 14.4314 15.8823 14.7219 15.3423 14.7219C14.9531 14.7219 14.6726 14.6203 14.5008 14.4171C14.4488 14.3556 14.4047 14.2829 14.3685 14.1989C14.1987 13.8055 13.8958 13.4385 13.4674 13.4385C13.0389 13.4385 12.676 13.7922 12.7858 14.2064C12.8426 14.4206 12.9252 14.6192 13.0335 14.8021C13.2649 15.1872 13.5839 15.4831 13.9907 15.6898C14.3974 15.8966 14.8479 16 15.3423 16C16.0716 16 16.6484 15.8093 17.0726 15.4278C17.4969 15.0463 17.709 14.5169 17.709 13.8396C17.709 13.2228 17.539 12.7148 17.1989 12.3155C16.8623 11.9162 16.3205 11.5793 15.5737 11.3048C15.146 11.1194 14.8479 10.9412 14.6796 10.7701C14.5113 10.5954 14.4272 10.4011 14.4272 10.1872C14.4272 9.91266 14.5026 9.69519 14.6533 9.53476C14.8041 9.37077 15.0145 9.28877 15.2845 9.28877C15.572 9.28877 15.7911 9.38503 15.9419 9.57754C15.9641 9.60475 15.9847 9.63377 16.0037 9.66461C16.2271 10.0268 16.5183 10.4064 16.9438 10.4064C17.3693 10.4064 17.7295 10.0544 17.6137 9.64497C17.565 9.47284 17.4986 9.30955 17.4145 9.15508C17.2181 8.78788 16.9359 8.50446 16.5677 8.30481C16.1996 8.1016 15.7806 8 15.3108 8C14.606 8 14.024 8.19964 13.5646 8.59893C13.1088 8.99465 12.8809 9.5205 12.8809 10.1765C12.8809 10.7184 13.0492 11.1889 13.3858 11.5882C13.7224 11.984 14.2747 12.3298 15.0425 12.6257C15.4633 12.8004 15.7525 12.9697 15.9103 13.1337Z" />
</svg>
