<svg width="1em" height="1em" viewBox="0 0 24 24" fill="none" xmlns="http://www.w3.org/2000/svg">
<path fill="currentColor" fill-rule="evenodd" clip-rule="evenodd" d="M5.5 4.25C5.5 3.55964 6.05964 3 6.75 3H8.75C9.44036 3 10 3.55964 10 4.25V19.75C10 20.4404 9.44036 21 8.75 21H6.75C6.05964 21 5.5 20.4404 5.5 19.75V4.25ZM14 4.25C14 3.55964 14.5596 3 15.25 3H17.25C17.9404 3 18.5 3.55964 18.5 4.25V19.7503C18.5 20.4407 17.9404 21.0003 17.25 21.0003H15.25C14.5596 21.0003 14 20.4407 14 19.7503V4.25Z" />
</svg>
