<svg width="1em" height="1em" viewBox="0 0 24 24" fill="none" xmlns="http://www.w3.org/2000/svg">
<path fill="currentColor" fill-rule="evenodd" clip-rule="evenodd" d="M14.1104 2.00611C13.5615 1.94513 13.0671 2.34068 13.0061 2.88958C12.9451 3.43849 13.3407 3.9329 13.8896 3.99388C15.4509 4.16733 16.9068 4.86651 18.0183 5.97661C19.1298 7.08672 19.8308 8.54177 20.0063 10.1029C20.0679 10.6517 20.5628 11.0466 21.1117 10.9849C21.6605 10.9233 22.0554 10.4284 21.9937 9.87953C21.7677 7.86755 20.8642 5.99224 19.4317 4.56151C17.9991 3.13077 16.1227 2.22966 14.1104 2.00611ZM14.1915 5.54052C13.6494 5.43476 13.1243 5.78845 13.0185 6.33052C12.9127 6.87258 13.2664 7.39774 13.8085 7.5035C14.4732 7.63318 15.084 7.95825 15.5629 8.43711C16.0417 8.91596 16.3668 9.52682 16.4965 10.1915C16.6023 10.7336 17.1274 11.0872 17.6695 10.9815C18.2115 10.8757 18.5652 10.3506 18.4595 9.8085C18.2536 8.75314 17.7374 7.78322 16.9771 7.0229C16.2168 6.26257 15.2469 5.74642 14.1915 5.54052ZM4.89474 2C3.29602 2 2 3.29601 2 4.89473C2 14.3417 9.65829 22 19.1053 22C20.704 22 22 20.704 22 19.1053V16.6396C22 15.2096 20.9906 13.9783 19.5883 13.6979L17.073 13.1948C16.236 13.0274 15.3674 13.2244 14.6846 13.7365L14.1219 14.1586C13.9452 14.2911 13.713 14.3244 13.5062 14.2468C11.7719 13.5965 10.4035 12.2281 9.75318 10.4938C9.67561 10.287 9.70888 10.0548 9.84143 9.87808L10.2635 9.31537C10.7756 8.63257 10.9726 7.76396 10.8052 6.92702L10.3021 4.41165C10.0217 3.00938 8.79043 2 7.36039 2H4.89474ZM4 4.89473C4 4.40058 4.40059 4 4.89474 4H7.36039C7.83707 4 8.24749 4.33646 8.34097 4.80388L8.84405 7.31926C8.89984 7.59823 8.83417 7.88777 8.66347 8.11537L8.24144 8.67808C7.69937 9.40084 7.5633 10.3501 7.88052 11.1961C8.73369 13.4712 10.5288 15.2663 12.8039 16.1195C13.6499 16.4367 14.5992 16.3006 15.3219 15.7586L15.8846 15.3365C16.1122 15.1658 16.4018 15.1002 16.6807 15.1559L19.1961 15.659C19.6635 15.7525 20 16.1629 20 16.6396V19.1053C20 19.5994 19.5994 20 19.1053 20C10.7629 20 4 13.2371 4 4.89473Z" />
</svg>
