<svg width="1em" height="1em" viewBox="0 0 24 24" fill="none" xmlns="http://www.w3.org/2000/svg">
<path fill="currentColor" fill-rule="evenodd" clip-rule="evenodd" d="M9.75318 10.4938C9.77731 10.5582 9.80242 10.622 9.82851 10.6853L8.39879 12.3193C8.20001 11.9605 8.02648 11.5853 7.88052 11.1961C7.5633 10.3501 7.69937 9.40084 8.24144 8.67809L8.66347 8.11538C8.83417 7.88778 8.89984 7.59824 8.84405 7.31926L8.34097 4.80388C8.24749 4.33646 7.83707 4 7.36039 4H4.89474C4.40059 4 4 4.40059 4 4.89474C4 8.28008 5.11366 11.4053 6.99461 13.9241L5.65137 15.4592C3.36423 12.5505 2 8.88195 2 4.89474C2 3.29602 3.29602 2 4.89474 2H7.36039C8.79043 2 10.0217 3.00938 10.3021 4.41165L10.8052 6.92703C10.9726 7.76396 10.7756 8.63257 10.2635 9.31538L9.84143 9.87809C9.70888 10.0548 9.67561 10.287 9.75318 10.4938ZM13.3939 14.2035L12.0167 15.7775C12.2718 15.9042 12.5345 16.0184 12.8039 16.1195C13.6499 16.4367 14.5992 16.3006 15.3219 15.7586L15.8846 15.3365C16.1122 15.1658 16.4018 15.1002 16.6807 15.156L19.1961 15.659C19.6635 15.7525 20 16.1629 20 16.6396V19.1053C20 19.5994 19.5994 20 19.1053 20C15.955 20 13.0299 19.0356 10.6093 17.386L9.28363 18.901C12.0632 20.8537 15.4503 22 19.1053 22C20.704 22 22 20.704 22 19.1053V16.6396C22 15.2096 20.9906 13.9783 19.5883 13.6979L17.073 13.1948C16.236 13.0274 15.3674 13.2244 14.6846 13.7365L14.1219 14.1586C13.9452 14.2911 13.713 14.3244 13.5062 14.2468C13.4686 14.2327 13.4312 14.2183 13.3939 14.2035ZM18.2474 3.34151C18.6111 2.92587 19.2429 2.88375 19.6585 3.24744C20.0741 3.61112 20.1162 4.24288 19.7526 4.65852L5.75256 20.6586C5.38888 21.0742 4.75712 21.1163 4.34148 20.7526C3.92585 20.3889 3.88373 19.7572 4.24741 19.3415L18.2474 3.34151Z" />
</svg>
