<svg width="1em" height="1em" viewBox="0 0 24 24" fill="none" xmlns="http://www.w3.org/2000/svg">
<path fill="currentColor" fill-rule="evenodd" clip-rule="evenodd" d="M4.89474 2C3.29602 2 2 3.29602 2 4.89474C2 14.3417 9.65829 22 19.1053 22C20.704 22 22 20.704 22 19.1053V16.6396C22 15.2096 20.9906 13.9783 19.5883 13.6979L17.073 13.1948C16.236 13.0274 15.3674 13.2244 14.6846 13.7365L14.1219 14.1586C13.9452 14.2911 13.713 14.3244 13.5062 14.2468C11.7719 13.5965 10.4035 12.2281 9.75318 10.4938C9.67561 10.287 9.70888 10.0548 9.84143 9.87809L10.2635 9.31538C10.7756 8.63257 10.9726 7.76396 10.8052 6.92703L10.3021 4.41165C10.0217 3.00938 8.79043 2 7.36039 2H4.89474ZM4 4.89474C4 4.40059 4.40059 4 4.89474 4H7.36039C7.83707 4 8.24749 4.33646 8.34097 4.80388L8.84405 7.31926C8.89984 7.59824 8.83417 7.88778 8.66347 8.11538L8.24144 8.67809C7.69937 9.40084 7.5633 10.3501 7.88052 11.1961C8.73369 13.4712 10.5288 15.2663 12.8039 16.1195C13.6499 16.4367 14.5992 16.3006 15.3219 15.7586L15.8846 15.3365C16.1122 15.1658 16.4018 15.1002 16.6807 15.156L19.1961 15.659C19.6635 15.7525 20 16.1629 20 16.6396V19.1053C20 19.5994 19.5994 20 19.1053 20C10.7629 20 4 13.2371 4 4.89474ZM18.5962 2.28148C18.1994 1.89736 17.5663 1.90767 17.1822 2.3045C16.7981 2.70133 16.8084 3.33441 17.2052 3.71853L18.5291 5L13.7142 5C13.1619 5 12.7142 5.44772 12.7142 6C12.7142 6.55229 13.1619 7 13.7142 7H18.5291L17.2052 8.28148C16.8084 8.66559 16.7981 9.29867 17.1822 9.6955C17.5663 10.0923 18.1994 10.1026 18.5962 9.71853L21.6955 6.71853C21.8901 6.53014 22 6.27086 22 6C22 5.72914 21.8901 5.46986 21.6955 5.28148L18.5962 2.28148Z" />
</svg>
