<svg width="1em" height="1em" viewBox="0 0 24 24" fill="none" xmlns="http://www.w3.org/2000/svg">
<path fill="currentColor" fill-rule="evenodd" clip-rule="evenodd" d="M21.4216 11.4913C16.2239 5.50289 7.77611 5.50289 2.57845 11.4913C1.80718 12.38 1.80718 13.8022 2.57845 14.6908L3.96144 16.2842C4.67221 17.1031 5.80947 17.2406 6.66101 16.5865L8.35407 15.2861C8.85385 14.9022 9.17544 14.3025 9.25677 13.6466L9.33567 13.0102C9.37792 12.6695 9.56486 12.4016 9.80061 12.2781C11.1993 11.5456 12.8007 11.5456 14.1994 12.2781C14.4351 12.4016 14.6221 12.6695 14.6643 13.0102L14.7432 13.6466C14.8246 14.3025 15.1461 14.9022 15.6459 15.2861L17.339 16.5865C18.1905 17.2406 19.3278 17.1031 20.0386 16.2842L21.4216 14.6908C22.1928 13.8022 22.1928 12.38 21.4216 11.4913Z" />
</svg>
