<svg width="1em" height="1em" viewBox="0 0 24 24" fill="none" xmlns="http://www.w3.org/2000/svg">
<path fill="currentColor" fill-rule="evenodd" clip-rule="evenodd" d="M2.68086 11.2045C7.81682 5.5985 16.1832 5.5985 21.3191 11.2045C22.227 12.1954 22.227 13.7687 21.3191 14.7596L20.0053 16.1937C19.1628 17.1132 17.798 17.2746 16.7778 16.5323L15.1694 15.3619C14.5766 14.9305 14.2042 14.2643 14.1103 13.5469L14.0353 12.9742C14.015 12.8186 13.9295 12.7291 13.8672 12.6983C12.6784 12.1085 11.3216 12.1085 10.1328 12.6983C10.0705 12.7291 9.98502 12.8186 9.96466 12.9742L9.8897 13.5469C9.79582 14.2643 9.42337 14.9305 8.83056 15.3619L7.22216 16.5323C6.20199 17.2746 4.83716 17.1132 3.9947 16.1937L2.68086 14.7596C1.77305 13.7687 1.77305 12.1954 2.68086 11.2045ZM19.8445 12.5555C15.5012 7.81482 8.49877 7.81482 4.15554 12.5555C3.94815 12.7819 3.94815 13.1822 4.15554 13.4085L5.46938 14.8426C5.64294 15.0321 5.87001 15.0427 6.04538 14.9151L7.65379 13.7447C7.77452 13.6568 7.87922 13.4967 7.90661 13.2874L7.98157 12.7146C8.08104 11.9547 8.53481 11.2585 9.2439 10.9067C10.9927 10.039 13.0073 10.039 14.7561 10.9067C15.4652 11.2585 15.919 11.9547 16.0184 12.7146L16.0934 13.2874C16.1208 13.4967 16.2255 13.6568 16.3462 13.7447L17.9546 14.9151C18.13 15.0427 18.3571 15.0321 18.5306 14.8426L19.8445 13.4085C20.0518 13.1822 20.0518 12.7819 19.8445 12.5555Z" />
</svg>
