<svg width="1em" height="1em" viewBox="0 0 24 24" fill="none" xmlns="http://www.w3.org/2000/svg">
<path fill="currentColor" fill-rule="evenodd" clip-rule="evenodd" d="M4.89474 2C3.29602 2 2 3.29602 2 4.89474C2 14.3417 9.65829 22 19.1053 22C20.704 22 22 20.704 22 19.1053V16.6396C22 15.2096 20.9906 13.9783 19.5883 13.6979L17.073 13.1948C16.236 13.0274 15.3674 13.2244 14.6846 13.7365L14.1219 14.1586C13.9452 14.2911 13.713 14.3244 13.5062 14.2468C11.7719 13.5965 10.4035 12.2281 9.75318 10.4938C9.67561 10.287 9.70888 10.0548 9.84143 9.87809L10.2635 9.31538C10.7756 8.63257 10.9726 7.76396 10.8052 6.92703L10.3021 4.41165C10.0217 3.00938 8.79043 2 7.36039 2H4.89474Z" />
</svg>
