<svg width="1em" height="1em" viewBox="0 0 24 24" fill="none" xmlns="http://www.w3.org/2000/svg">
<path fill="currentColor" fill-rule="evenodd" clip-rule="evenodd" d="M21.9241 2.61722C21.8757 2.50014 21.804 2.3904 21.7092 2.29502L21.705 2.29078C21.5242 2.11106 21.2751 2 21 2H16C15.4477 2 15 2.44772 15 3C15 3.55228 15.4477 4 16 4H18.5858L14.2929 8.29289C13.9024 8.68342 13.9024 9.31658 14.2929 9.70711C14.6834 10.0976 15.3166 10.0976 15.7071 9.70711L20 5.41421V8C20 8.55228 20.4477 9 21 9C21.5523 9 22 8.55228 22 8V3C22 2.86441 21.973 2.73512 21.9241 2.61722ZM2 4.89474C2 3.29602 3.29602 2 4.89474 2H7.36039C8.79043 2 10.0217 3.00938 10.3021 4.41165L10.8052 6.92703C10.9726 7.76396 10.7756 8.63257 10.2635 9.31538L9.84143 9.87809C9.70888 10.0548 9.67561 10.287 9.75318 10.4938C10.4035 12.2281 11.7719 13.5965 13.5062 14.2468C13.713 14.3244 13.9452 14.2911 14.1219 14.1586L14.6846 13.7365C15.3674 13.2244 16.236 13.0274 17.073 13.1948L19.5883 13.6979C20.9906 13.9783 22 15.2096 22 16.6396V19.1053C22 20.704 20.704 22 19.1053 22C9.65829 22 2 14.3417 2 4.89474ZM4.89474 4C4.40059 4 4 4.40059 4 4.89474C4 13.2371 10.7629 20 19.1053 20C19.5994 20 20 19.5994 20 19.1053V16.6396C20 16.1629 19.6635 15.7525 19.1961 15.659L16.6807 15.156C16.4018 15.1002 16.1122 15.1658 15.8846 15.3365L15.3219 15.7586C14.5992 16.3006 13.6499 16.4367 12.8039 16.1195C10.5288 15.2663 8.73369 13.4712 7.88052 11.1961C7.5633 10.3501 7.69937 9.40084 8.24144 8.67809L8.66347 8.11538C8.83417 7.88778 8.89984 7.59824 8.84405 7.31926L8.34097 4.80388C8.24749 4.33646 7.83707 4 7.36039 4H4.89474Z" />
</svg>
