<svg width="1em" height="1em" viewBox="0 0 24 24" fill="none" xmlns="http://www.w3.org/2000/svg">
<path fill="currentColor" fill-rule="evenodd" clip-rule="evenodd" d="M7.01717 5.06274C7.00851 5.07731 7 5.09871 7 5.13425L7 18.8658C7 18.9013 7.00851 18.9227 7.01716 18.9373C7.02731 18.9543 7.04329 18.9708 7.06419 18.983C7.08507 18.9952 7.10497 18.9997 7.12019 19C7.13225 19.0002 7.14967 18.9982 7.17581 18.983L18.9358 12.1172C18.9621 12.1019 18.9749 12.0861 18.9831 12.0711C18.9928 12.0534 19 12.0288 19 12C19 11.9712 18.9928 11.9467 18.9831 11.9289C18.9749 11.9139 18.9621 11.8981 18.9358 11.8828L7.17581 5.01702C7.14967 5.00176 7.13225 4.9998 7.12019 5.00001C7.10497 5.00028 7.08507 5.00482 7.06419 5.01702C7.04329 5.02922 7.02731 5.04567 7.01717 5.06274ZM5 5.13425C5 3.50993 6.75411 2.45492 8.18419 3.28983L19.9442 10.1556C21.3519 10.9775 21.3519 13.0225 19.9442 13.8444L8.18419 20.7102C6.7541 21.5451 5 20.4901 5 18.8658L5 5.13425Z" />
</svg>
