<svg width="1em" height="1em" viewBox="0 0 20 20" fill="none" xmlns="http://www.w3.org/2000/svg">
<path fill="currentColor" fill-rule="evenodd" clip-rule="evenodd" d="M11.125 5.5C11.125 4.87868 10.6213 4.375 10 4.375C9.37868 4.375 8.875 4.87868 8.875 5.5L8.875 8.875L5.5 8.875C4.87868 8.875 4.375 9.37868 4.375 10C4.375 10.6213 4.87868 11.125 5.5 11.125L8.875 11.125V14.5C8.875 15.1213 9.37868 15.625 10 15.625C10.6213 15.625 11.125 15.1213 11.125 14.5V11.125L14.5 11.125C15.1213 11.125 15.625 10.6213 15.625 10C15.625 9.37868 15.1213 8.875 14.5 8.875L11.125 8.875V5.5Z" />
</svg>
