<svg width="1em" height="1em" viewBox="0 0 24 24" fill="none" xmlns="http://www.w3.org/2000/svg">
<path fill="currentColor" fill-rule="evenodd" clip-rule="evenodd" d="M8 2C6.89543 2 6 2.89543 6 4V6H5C3.34315 6 2 7.34315 2 9V16C2 17.6569 3.34315 19 5 19H6V20C6 21.1046 6.89543 22 8 22H16C17.1046 22 18 21.1046 18 20V19H19C20.6569 19 22 17.6569 22 16V9C22 7.34315 20.6569 6 19 6H18V4C18 2.89543 17.1046 2 16 2H8ZM6 14.5V17H5C4.44772 17 4 16.5523 4 16V9C4 8.44772 4.44772 8 5 8H19C19.5523 8 20 8.44772 20 9V16C20 16.5523 19.5523 17 19 17H18V14.5C18 13.3954 17.1046 12.5 16 12.5H8C6.89543 12.5 6 13.3954 6 14.5ZM16 6V4H8V6H16ZM16 14.5H8V20H16V14.5ZM18.75 10.375C18.75 10.9963 18.2463 11.5 17.625 11.5C17.0037 11.5 16.5 10.9963 16.5 10.375C16.5 9.75368 17.0037 9.25 17.625 9.25C18.2463 9.25 18.75 9.75368 18.75 10.375Z" />
</svg>
