<svg width="1em" height="1em" viewBox="0 0 24 24" fill="none" xmlns="http://www.w3.org/2000/svg">
<path fill="currentColor" fill-rule="evenodd" clip-rule="evenodd" d="M8 2C6.89543 2 6 2.89543 6 4V6H5C3.34315 6 2 7.34315 2 9V16C2 17.6569 3.34315 19 5 19H6V20C6 21.1046 6.89543 22 8 22H16C17.1046 22 18 21.1046 18 20V19H19C20.6569 19 22 17.6569 22 16V9C22 7.34315 20.6569 6 19 6H18V4C18 2.89543 17.1046 2 16 2H8ZM16 6V4H8V6H16ZM17.625 11.5C18.2463 11.5 18.75 10.9963 18.75 10.375C18.75 9.75368 18.2463 9.25 17.625 9.25C17.0037 9.25 16.5 9.75368 16.5 10.375C16.5 10.9963 17.0037 11.5 17.625 11.5ZM8 14.5H16V20H8V14.5Z" />
</svg>
