<svg width="1em" height="1em" viewBox="0 0 24 24" fill="none" xmlns="http://www.w3.org/2000/svg">
<path fill="currentColor" fill-rule="evenodd" clip-rule="evenodd" d="M2 12C2 6.47715 6.47715 2 12 2C17.5228 2 22 6.47715 22 12C22 17.5228 17.5228 22 12 22C6.47715 22 2 17.5228 2 12ZM10.6965 6.25929C11.3189 6.00148 12.0038 5.93402 12.6645 6.06545C13.3253 6.19688 13.9322 6.5213 14.4086 6.99767C14.885 7.47404 15.2094 8.08098 15.3408 8.74172C15.4722 9.40247 15.4048 10.0874 15.147 10.7098C14.8892 11.3322 14.4526 11.8642 13.8924 12.2384C13.6001 12.4338 13.3564 12.6315 13.1927 12.828C13.0327 13.02 13 13.1479 13 13.2299V13.5C13 14.0523 12.5523 14.5 12 14.5C11.4477 14.5 11 14.0523 11 13.5V13.2299C11 12.529 11.3103 11.963 11.656 11.5479C11.998 11.1374 12.4227 10.8151 12.7813 10.5755C13.0125 10.421 13.1928 10.2014 13.2992 9.9444C13.4056 9.68744 13.4335 9.40469 13.3792 9.13191C13.325 8.85912 13.191 8.60855 12.9944 8.41188C12.7977 8.21521 12.5471 8.08128 12.2743 8.02702C12.0016 7.97276 11.7188 8.00061 11.4619 8.10705C11.2049 8.21348 10.9853 8.39372 10.8307 8.62498C10.6762 8.85624 10.5938 9.12812 10.5938 9.40625C10.5938 9.95854 10.146 10.4063 9.59375 10.4063C9.04147 10.4063 8.59375 9.95854 8.59375 9.40625C8.59375 8.73256 8.79352 8.074 9.16781 7.51384C9.54209 6.95369 10.0741 6.5171 10.6965 6.25929ZM13 17C13 17.5523 12.5523 18 12 18C11.4477 18 11 17.5523 11 17C11 16.4477 11.4477 16 12 16C12.5523 16 13 16.4477 13 17Z" />
</svg>
