<svg width="1em" height="1em" viewBox="0 0 24 24" fill="none" xmlns="http://www.w3.org/2000/svg">
<path fill="currentColor" fill-rule="evenodd" clip-rule="evenodd" d="M5 3.5C3.89543 3.5 3 4.39543 3 5.5V11.5C3 12.6046 3.89543 13.5 5 13.5H9V15.5C9 17.1569 7.65685 18.5 6 18.5C5.44772 18.5 5 18.9477 5 19.5C5 20.0523 5.44772 20.5 6 20.5C8.76142 20.5 11 18.2614 11 15.5V11.5V9.39746V5.5C11 4.39543 10.1046 3.5 9 3.5H5ZM9 9.39746V5.5H5V11.5H9V9.39746ZM15 3.5C13.8954 3.5 13 4.39543 13 5.5V11.5C13 12.6046 13.8954 13.5 15 13.5H19V15.5C19 17.1569 17.6569 18.5 16 18.5C15.4477 18.5 15 18.9477 15 19.5C15 20.0523 15.4477 20.5 16 20.5C18.7614 20.5 21 18.2614 21 15.5V11.5V9.39746V5.5C21 4.39543 20.1046 3.5 19 3.5H15ZM19 9.39746V11.5H15V5.5H19V9.39746Z" />
</svg>
