<svg width="1em" height="1em" viewBox="0 0 24 24" fill="none" xmlns="http://www.w3.org/2000/svg">
<path fill="currentColor" fill-rule="evenodd" clip-rule="evenodd" d="M18.5854 10.0004L15.2929 13.2929C14.9024 13.6834 14.9024 14.3166 15.2929 14.7071C15.6834 15.0976 16.3166 15.0976 16.7071 14.7071L21.6903 9.72396C21.8811 9.54185 22 9.285 22 9.00039C22 8.92148 21.9909 8.84471 21.9736 8.77108C21.9326 8.59584 21.8437 8.42951 21.7071 8.29289L16.7071 3.29289C16.3166 2.90237 15.6834 2.90237 15.2929 3.29289C14.9024 3.68342 14.9024 4.31658 15.2929 4.70711L18.5862 8.00039L7.9998 8.00039C4.6862 8.00039 2 10.6866 2 14.0002C2 17.3138 4.6862 20 7.9998 20H13.5C14.0523 20 14.5 19.5523 14.5 19C14.5 18.4477 14.0523 18 13.5 18L7.9998 18C5.79077 18 4 16.2092 4 14.0002C4 11.7912 5.79077 10.0004 7.9998 10.0004L18.5854 10.0004Z" />
</svg>
