<svg width="1em" height="1em" viewBox="0 0 24 24" fill="currentColor" xmlns="http://www.w3.org/2000/svg">
<path fill-rule="evenodd" clip-rule="evenodd" d="M21.9836 3.18017C22.0831 2.63693 21.7234 2.11587 21.1802 2.01636C20.6369 1.91685 20.1159 2.27657 20.0164 2.81981L19.6046 5.06791C17.7414 3.17497 15.1237 2 12.2308 2C6.60449 2 2 6.45344 2 12C2 17.5466 6.60449 22 12.2308 22C16.7475 22 20.5969 19.1355 21.9474 15.1381C22.1242 14.6149 21.8433 14.0474 21.3201 13.8707C20.7969 13.6939 20.2294 13.9747 20.0526 14.498C18.9771 17.6812 15.8911 20 12.2308 20C7.66102 20 4 16.3946 4 12C4 7.60544 7.66102 4 12.2308 4C14.7061 4 16.9205 5.06066 18.4274 6.73448L15.1514 6.23254C14.6055 6.1489 14.0952 6.52364 14.0115 7.06956C13.9279 7.61547 14.3026 8.12583 14.8485 8.20947L19.9326 8.98846C20.4674 9.07038 20.9703 8.71226 21.0677 8.18017L21.9836 3.18017Z" fill="currentColor"/>
</svg>
