<svg width="1em" height="1em" viewBox="0 0 24 24" fill="none" xmlns="http://www.w3.org/2000/svg">
<path fill-rule="evenodd" clip-rule="evenodd" d="M18.0743 2.26285C18.4814 1.88966 19.114 1.91716 19.4872 2.32428L21.7372 4.77883C22.0876 5.16115 22.0876 5.74795 21.7372 6.13028L19.4872 8.58482C19.114 8.99194 18.4814 9.01944 18.0743 8.64625C17.6672 8.27306 17.6397 7.64049 18.0128 7.23337L18.7268 6.45455H9C7.70338 6.45455 6.44026 7.01567 5.49451 8.04739C4.5461 9.08203 4 10.5025 4 12C4 12.5523 3.55228 13 3 13C2.44772 13 2 12.5523 2 12C2 10.0255 2.71818 8.11633 4.02021 6.69595C5.3249 5.27265 7.11402 4.45455 9 4.45455H18.7268L18.0128 3.67573C17.6397 3.26861 17.6672 2.63604 18.0743 2.26285ZM12.8856 8.68566C13.189 8.86584 13.375 9.19259 13.375 9.54546V14.4546C13.375 15.0068 12.9273 15.4546 12.375 15.4546C11.8227 15.4546 11.375 15.0068 11.375 14.4546V11.2293L11.3535 11.241C10.8686 11.5053 10.2612 11.3264 9.99693 10.8415C9.73264 10.3565 9.91153 9.74914 10.3965 9.48485L11.8965 8.66739C12.2063 8.49853 12.5822 8.50547 12.8856 8.68566ZM21 11C21.5523 11 22 11.4477 22 12C22 13.9745 21.2818 15.8837 19.9798 17.3041C18.6751 18.7274 16.886 19.5455 15 19.5455H5.27324L5.98715 20.3243C6.36035 20.7314 6.33284 21.364 5.92572 21.7372C5.51861 22.1104 4.88604 22.0828 4.51285 21.6757L2.26285 19.2212C1.91238 18.8389 1.91238 18.2521 2.26285 17.8697L4.51285 15.4152C4.88604 15.0081 5.51861 14.9806 5.92572 15.3538C6.33284 15.727 6.36035 16.3595 5.98715 16.7666L5.27324 17.5455H15C16.2966 17.5455 17.5597 16.9843 18.5055 15.9526C19.4539 14.918 20 13.4975 20 12C20 11.4477 20.4477 11 21 11Z" fill="currentColor"/>
</svg>
