<svg width="1em" height="1em" viewBox="0 0 24 24" fill="none" xmlns="http://www.w3.org/2000/svg">
<path fill="currentColor" fill-rule="evenodd" clip-rule="evenodd" d="M11.0886 3.07269C10.7104 2.92007 10.2775 3.01233 9.99445 3.30586L2.28016 11.3056C1.90662 11.693 1.90661 12.3065 2.28015 12.6939L9.99446 20.6941C10.2775 20.9877 10.7104 21.0799 11.0886 20.9273C11.4667 20.7747 11.7143 20.4078 11.7143 20V16.3211C11.732 16.3207 11.7497 16.3204 11.7674 16.3201C13.0874 16.2951 14.322 16.2717 15.585 16.629C17.0814 17.0522 18.6521 18.0417 20.1435 20.5162C20.3754 20.9009 20.8352 21.0838 21.2679 20.9634C21.7006 20.8431 22 20.4491 22 20C22 17.9815 21.8478 14.9102 20.3362 12.3283C18.8706 9.82497 16.2238 7.93494 11.7143 7.69303V4C11.7143 3.59223 11.4667 3.2253 11.0886 3.07269ZM9.71428 6.47763V8.6668C9.71428 9.21908 10.162 9.6668 10.7143 9.6668C15.2337 9.6668 17.4489 11.3551 18.6102 13.3388C19.2412 14.4166 19.5912 15.6308 19.7821 16.8261C18.6192 15.7092 17.3884 15.0606 16.1293 14.7045C14.5504 14.2579 12.9418 14.2919 11.5981 14.3204C11.2882 14.3269 10.9924 14.3332 10.7143 14.3332C10.162 14.3332 9.71431 14.7809 9.71431 15.3332V17.5223L4.38919 11.9998L9.71428 6.47763Z" />
</svg>
