<svg width="1em" height="1em" viewBox="0 0 24 24" fill="none" xmlns="http://www.w3.org/2000/svg">
<path fill="currentColor" fill-rule="evenodd" clip-rule="evenodd" d="M9.99445 3.30586C10.2775 3.01233 10.7104 2.92007 11.0886 3.07269C11.4667 3.2253 11.7143 3.59223 11.7143 4V7.69303C16.2238 7.93494 18.8706 9.82497 20.3362 12.3283C21.8478 14.9102 22 17.9815 22 20C22 20.4491 21.7006 20.8431 21.2679 20.9634C20.8352 21.0838 20.3754 20.9009 20.1435 20.5162C18.6521 18.0417 17.0814 17.0522 15.585 16.629C14.322 16.2717 13.0874 16.2951 11.7674 16.3201L11.7143 16.3211V20C11.7143 20.4078 11.4667 20.7747 11.0886 20.9273C10.7104 21.0799 10.2775 20.9877 9.99446 20.6941L2.28015 12.6939C1.90661 12.3065 1.90662 11.693 2.28016 11.3056L9.99445 3.30586Z" />
</svg>
