<svg width="1em" height="1em" viewBox="0 0 24 24" fill="none" xmlns="http://www.w3.org/2000/svg">
<path fill-rule="evenodd" clip-rule="evenodd" d="M15.1474 6.16362C17.1459 4.01141 19.0703 3.9263 19.9694 4.02507C20.0757 5.02744 20.018 7.19667 17.9614 9.41148L12.3485 15.4561C12.2894 15.4341 12.228 15.4176 12.165 15.407L9.36464 12.3912L15.1474 6.16362ZM7.26721 13.0717L11.1725 17.2774L11.914 20.6023L11.9143 20.6035C11.9878 20.9348 12.1572 21.229 12.3894 21.4594C12.6211 21.6892 12.9074 21.8485 13.2124 21.9318C13.5173 22.015 13.8393 22.0221 14.1472 21.9529C14.4551 21.8837 14.7477 21.7383 14.9896 21.5211L18.4118 18.4353C18.7659 18.1209 18.9919 17.6702 18.9998 17.1717L19 17.1559V11.2322L19.427 10.7724C22.1154 7.8772 22.1113 4.93167 21.9342 3.61414C21.887 3.24307 21.7272 2.888 21.4661 2.60679C21.204 2.32456 20.8522 2.13124 20.4592 2.07302C19.1734 1.87283 16.3849 1.89173 13.6818 4.80271L13.4151 5.08996C13.2887 5.03219 13.1481 5 13 5H6.84409L6.82825 5.00013C6.32981 5.00802 5.87908 5.23406 5.56468 5.5882L2.48031 9.00878L2.4789 9.01035C2.26173 9.25222 2.11631 9.54482 2.0471 9.85281C1.9779 10.1607 1.98497 10.4827 2.0682 10.7876C2.15147 11.0926 2.31077 11.3789 2.54063 11.6106C2.77101 11.8428 3.06514 12.0121 3.39645 12.0857L3.39771 12.0859L7.15326 12.9235C7.186 12.9755 7.22398 13.0251 7.26721 13.0717ZM7.88932 11.0408L11.6415 7H6.98466L4.10426 10.1944L7.82411 11.024C7.84618 11.0289 7.86793 11.0345 7.88932 11.0408ZM17 17.0153V13.3861L13.2536 17.4206L13.8056 19.8957L17 17.0153ZM6.88233 15.9669C7.41086 15.7892 7.69523 15.2166 7.5175 14.6881C7.33976 14.1596 6.76722 13.8752 6.2387 14.0529C3.05647 15.1231 2.23978 18.3986 2.01994 19.9194C1.84367 21.1388 2.86119 22.1563 4.08063 21.9801C5.6014 21.7602 8.87693 20.9435 9.94706 17.7613C10.1248 17.2328 9.84043 16.6602 9.3119 16.4825C8.78337 16.3048 8.21083 16.5891 8.0331 17.1177C7.40692 18.9797 5.49305 19.6859 4.06176 19.9382C4.31414 18.507 5.02027 16.5931 6.88233 15.9669Z" fill="currentColor"/>
</svg>
