<svg width="1em" height="1em" viewBox="0 0 24 24" fill="none" xmlns="http://www.w3.org/2000/svg">
<path fill-rule="evenodd" clip-rule="evenodd" d="M5 4C4.44772 4 4 4.44772 4 5C4 5.55228 4.44772 6 5 6C5.55228 6 6 5.55228 6 5C6 4.44772 5.55228 4 5 4ZM7.82929 4C7.41746 2.83481 6.30622 2 5 2C3.34315 2 2 3.34315 2 5C2 6.65685 3.34315 8 5 8C6.30622 8 7.41746 7.16519 7.82929 6H17.5C18.8807 6 20 7.11929 20 8.5C20 9.88071 18.8807 11 17.5 11H6.5C4.01472 11 2 13.0147 2 15.5C2 17.9853 4.01472 20 6.5 20H10.5V21C10.5 21.4045 10.7436 21.7691 11.1173 21.9239C11.491 22.0787 11.9211 21.9931 12.2071 21.7071L14.2071 19.7071C14.5976 19.3166 14.5976 18.6834 14.2071 18.2929L12.2071 16.2929C11.9211 16.0069 11.491 15.9213 11.1173 16.0761C10.7436 16.2309 10.5 16.5955 10.5 17V18H6.5C5.11929 18 4 16.8807 4 15.5C4 14.1193 5.11929 13 6.5 13H17.5C19.9853 13 22 10.9853 22 8.5C22 6.01472 19.9853 4 17.5 4H7.82929ZM19 18C18.4477 18 18 18.4477 18 19C18 19.5523 18.4477 20 19 20C19.5523 20 20 19.5523 20 19C20 18.4477 19.5523 18 19 18ZM16 19C16 17.3431 17.3431 16 19 16C20.6569 16 22 17.3431 22 19C22 20.6569 20.6569 22 19 22C17.3431 22 16 20.6569 16 19Z" fill="currentColor"/>
</svg>
