<svg width="1em" height="1em" viewBox="0 0 20 20" fill="none" xmlns="http://www.w3.org/2000/svg">
<path fill-rule="evenodd" clip-rule="evenodd" d="M1.66666 4.16699C1.66666 2.78628 2.78594 1.66699 4.16666 1.66699C5.25517 1.66699 6.1812 2.36267 6.5244 3.33366H14.5833C16.6544 3.33366 18.3333 5.01259 18.3333 7.08366C18.3333 9.15473 16.6544 10.8337 14.5833 10.8337H5.41666C4.26606 10.8337 3.33332 11.7664 3.33332 12.917C3.33332 14.0676 4.26606 15.0003 5.41666 15.0003H8.74999V14.167C8.74999 13.8299 8.95303 13.5261 9.26442 13.3971C9.57582 13.2681 9.93425 13.3394 10.1726 13.5777L11.8392 15.2444C12.1647 15.5698 12.1647 16.0975 11.8392 16.4229L10.1726 18.0896C9.93425 18.3279 9.57582 18.3992 9.26442 18.2702C8.95303 18.1412 8.74999 17.8374 8.74999 17.5003V16.667H5.41666C3.34559 16.667 1.66666 14.9881 1.66666 12.917C1.66666 10.8459 3.34559 9.16699 5.41666 9.16699H14.5833C15.7339 9.16699 16.6667 8.23425 16.6667 7.08366C16.6667 5.93307 15.7339 5.00033 14.5833 5.00033H6.5244C6.1812 5.97132 5.25517 6.66699 4.16666 6.66699C2.78594 6.66699 1.66666 5.5477 1.66666 4.16699ZM13.3333 15.8337C13.3333 14.4529 14.4526 13.3337 15.8333 13.3337C17.214 13.3337 18.3333 14.4529 18.3333 15.8337C18.3333 17.2144 17.214 18.3337 15.8333 18.3337C14.4526 18.3337 13.3333 17.2144 13.3333 15.8337Z" fill="currentColor"/>
</svg>
