<svg width="1em" height="1em" viewBox="0 0 24 24" fill="none" xmlns="http://www.w3.org/2000/svg">
<path fill="currentColor" fill-rule="evenodd" clip-rule="evenodd" d="M5 4C4.44772 4 4 4.44772 4 5V19C4 19.5523 4.44772 20 5 20H6V16.5C6 14.8431 7.34315 13.5 9 13.5H15C16.6569 13.5 18 14.8431 18 16.5V20H19C19.5523 20 20 19.5523 20 19V9.7241C20 9.49016 19.918 9.26363 19.7682 9.08392L16 4.56205V6.5C16 7.60457 15.1046 8.5 14 8.5H9C7.89543 8.5 7 7.60457 7 6.5V4H5ZM9 2H14H15.0633C15.9536 2 16.7979 2.39547 17.3679 3.07945L21.3047 7.80355C21.754 8.34269 22 9.02229 22 9.7241V19C22 20.6569 20.6569 22 19 22H16H8H5C3.34315 22 2 20.6569 2 19V5C2 3.34315 3.34315 2 5 2H9ZM9 4V6.5H14V4H9ZM16 20H8V16.5C8 15.9477 8.44772 15.5 9 15.5H15C15.5523 15.5 16 15.9477 16 16.5V20Z" />
</svg>
