<svg width="1em" height="1em" viewBox="0 0 24 24" fill="none" xmlns="http://www.w3.org/2000/svg">
<path fill="currentColor" fill-rule="evenodd" clip-rule="evenodd" d="M10.8635 2C9.94543 2 9.15499 2.61174 8.97494 3.46161L8.77539 4.4035C8.00406 4.69553 7.28796 5.08897 6.64552 5.56605L5.67973 5.25762C4.81007 4.97989 3.85366 5.32025 3.39462 6.07083L2.25811 7.92916C1.79908 8.67973 1.96505 9.63184 2.65466 10.204L3.41991 10.8389C3.36271 11.2185 3.33318 11.6062 3.33318 12C3.33318 12.3938 3.36271 12.7815 3.41991 13.1611L2.65466 13.796C1.96505 14.3681 1.79908 15.3203 2.25811 16.0708L3.39462 17.9292C3.85365 18.6797 4.81007 19.0201 5.67973 18.7424L6.6455 18.4339C7.28795 18.911 8.00405 19.3045 8.77539 19.5965L8.97494 20.5384C9.15499 21.3883 9.94543 22 10.8635 22H13.1365C14.0546 22 14.845 21.3883 15.0251 20.5384L15.2246 19.5965C15.996 19.3045 16.7121 18.911 17.3545 18.4339L18.3203 18.7424C19.1899 19.0201 20.1463 18.6797 20.6054 17.9292L21.7419 16.0708C22.2009 15.3203 22.035 14.3681 21.3453 13.796L20.5801 13.1611C20.6373 12.7815 20.6669 12.3938 20.6669 12C20.6669 11.6062 20.6373 11.2185 20.5801 10.8388L21.3453 10.204C22.035 9.63184 22.2009 8.67973 21.7419 7.92916L20.6054 6.07083C20.1463 5.32025 19.1899 4.97989 18.3203 5.25762L17.3545 5.56605C16.7121 5.08897 15.996 4.69553 15.2246 4.40349L15.0251 3.46161C14.845 2.61175 14.0546 2 13.1365 2H10.8635ZM15.5 12C15.5 13.933 13.933 15.5 12 15.5C10.067 15.5 8.5 13.933 8.5 12C8.5 10.067 10.067 8.5 12 8.5C13.933 8.5 15.5 10.067 15.5 12Z" />
</svg>
