<svg width="1em" height="1em" viewBox="0 0 24 24" fill="none" xmlns="http://www.w3.org/2000/svg">
<path fill="currentColor" fill-rule="evenodd" clip-rule="evenodd" d="M15.7071 2.29291C15.4211 2.00692 14.991 1.92137 14.6173 2.07615C14.2436 2.23093 14 2.59557 14 3.00003V5.53268C10.5689 5.76244 8.49832 7.18632 7.33271 9.1062C6.11653 11.1093 6.00003 13.4793 6 15C5.99999 15.4461 6.29548 15.8383 6.72429 15.9613C7.15311 16.0843 7.61154 15.9083 7.84799 15.53C8.97653 13.7245 10.1516 13.018 11.2631 12.7148C12.1647 12.4689 13.0421 12.4706 14 12.4871V15C14 15.4045 14.2436 15.7691 14.6173 15.9239C14.991 16.0787 15.4211 15.9931 15.7071 15.7071L21.7071 9.70697C21.8946 9.51943 22 9.26507 22 8.99986C22 8.73464 21.8946 8.48029 21.7071 8.29275L15.7071 2.29291ZM16 6.50012V5.4142L19.5858 8.99989L16 12.5858V11.4999C16 10.9477 15.5523 10.4999 15 10.4999C14.7905 10.4999 14.5654 10.4953 14.3278 10.4903C13.2825 10.4687 11.9954 10.442 10.7368 10.7853C9.90138 11.0132 9.08243 11.3962 8.29855 12.0078C8.45522 11.3595 8.69075 10.7232 9.04229 10.1441C9.8925 8.74377 11.5353 7.50012 15 7.50012C15.5523 7.50012 16 7.05241 16 6.50012ZM4 5C4 4.44772 4.44772 4 5 4H9C9.55228 4 10 3.55228 10 3C10 2.44772 9.55228 2 9 2H5C3.34315 2 2 3.34315 2 5V19C2 20.6569 3.34315 22 5 22H19C20.6569 22 22 20.6569 22 19V15C22 14.4477 21.5523 14 21 14C20.4477 14 20 14.4477 20 15V19C20 19.5523 19.5523 20 19 20H5C4.44772 20 4 19.5523 4 19V5Z" />
</svg>
