<svg width="1em" height="1em" viewBox="0 0 32 32" fill="none" xmlns="http://www.w3.org/2000/svg">
<path fill-rule="evenodd" clip-rule="evenodd" d="M16.4484 2.74418C16.1584 2.64061 15.8415 2.64061 15.5515 2.74418L6.21814 6.07751C5.68748 6.26704 5.33325 6.76969 5.33325 7.33317V18.0239C5.33325 21.3733 7.12792 24.4658 10.036 26.1275L15.3384 29.1575C15.7483 29.3917 16.2515 29.3917 16.6614 29.1575L21.9639 26.1275C24.8719 24.4658 26.6666 21.3733 26.6666 18.0239V7.33317C26.6666 6.76969 26.3124 6.26704 25.7817 6.07751L16.4484 2.74418ZM7.99992 18.0239V8.2728L15.9999 5.41565L23.9999 8.2728V18.0239C23.9999 20.4163 22.718 22.6253 20.6408 23.8122L15.9999 26.4642L11.359 23.8122C9.28183 22.6253 7.99992 20.4163 7.99992 18.0239ZM20.9427 14.276C21.4634 13.7553 21.4634 12.9111 20.9427 12.3904C20.422 11.8697 19.5778 11.8697 19.0571 12.3904L14.6703 16.7771L12.9465 15.0395C12.4279 14.5167 11.5836 14.5133 11.0609 15.0319C10.5381 15.5506 10.5347 16.3948 11.0534 16.9175L13.72 19.6056C13.9697 19.8572 14.3094 19.9991 14.6639 19.9998C15.0185 20.0005 15.3587 19.86 15.6094 19.6093L20.9427 14.276Z" fill="currentColor"/>
</svg>
