<svg width="1em" height="1em" viewBox="0 0 20 20" fill="none" xmlns="http://www.w3.org/2000/svg">
<path fill-rule="evenodd" clip-rule="evenodd" d="M9.71964 1.71456C9.90089 1.64983 10.099 1.64983 10.2802 1.71456L16.1135 3.7979C16.4452 3.91635 16.6666 4.2305 16.6666 4.58268V11.2644C16.6666 13.3577 15.5449 15.2906 13.7274 16.3292L10.4134 18.2229C10.1572 18.3693 9.84266 18.3693 9.58647 18.2229L6.27244 16.3292C4.45492 15.2906 3.33325 13.3577 3.33325 11.2644V4.58268C3.33325 4.2305 3.55464 3.91635 3.8863 3.7979L9.71964 1.71456ZM13.0892 8.92194C13.4146 8.5965 13.4146 8.06886 13.0892 7.74343C12.7637 7.41799 12.2361 7.41799 11.9107 7.74343L9.16894 10.4852L8.09152 9.39911C7.76738 9.07238 7.23975 9.07028 6.91302 9.39442C6.58628 9.71855 6.58418 10.2462 6.90832 10.5729L8.57499 12.2529C8.73105 12.4102 8.94334 12.4989 9.16493 12.4993C9.38651 12.4998 9.59915 12.412 9.75584 12.2553L13.0892 8.92194Z" fill="currentColor"/>
</svg>
