<svg width="1em" height="1em" viewBox="0 0 24 24" fill="none" xmlns="http://www.w3.org/2000/svg">
<path fill-rule="evenodd" clip-rule="evenodd" d="M2.95972 3C2.42968 3 2 3.44772 2 4C2 4.55228 2.42968 5 2.95972 5H4.27823L6.50243 17.4875C6.096 17.8542 5.8389 18.3958 5.8389 19C5.8389 20.1046 6.69826 21 7.75835 21C8.81843 21 9.6778 20.1046 9.6778 19H14.4764C14.4764 20.1046 15.3358 21 16.3959 21C17.4559 21 18.3153 20.1046 18.3153 19C18.3153 17.8954 17.4559 17 16.3959 17H8.36783L8.0116 15L17.8412 15C18.3815 15.0013 18.9092 14.8084 19.3286 14.4511C19.7483 14.0935 20.035 13.593 20.1331 13.0352L20.1335 13.0333L20.967 8.36589C21.1867 7.13584 20.2807 6 19.08 6H6.40856L6.12341 4.39909L6.12298 4.39661C6.05379 4.00235 5.85278 3.64918 5.55956 3.39583C5.26613 3.1423 4.89819 3.0037 4.51972 3H2.95972ZM6.76479 8L7.65537 13H17.844L17.8469 13C17.9469 13.0003 18.0412 12.9645 18.1135 12.9028C18.1854 12.8416 18.2302 12.7598 18.2452 12.6742L18.2458 12.6708L19.08 8H6.76479Z" fill="currentColor"/>
</svg>
