<svg width="1em" height="1em" viewBox="0 0 24 24" fill="none" xmlns="http://www.w3.org/2000/svg">
<path fill="currentColor" fill-rule="evenodd" clip-rule="evenodd" d="M8.61527 5.00486C10.3469 5.09894 11.6596 6.56048 11.9806 8.21559C12.2194 9.44643 11.8668 10.6477 11.2915 11.7005C10.7144 12.7563 9.86448 13.7555 8.94661 14.6429C8.41001 15.1616 7.83724 15.6545 7.26018 16.1103C7.94591 16.6715 8.68389 16.9399 9.28425 16.9391C9.86353 16.9384 10.3274 16.6978 10.6318 16.1489C11.6861 14.2475 12.8672 13.1147 14.1287 12.7844C15.4711 12.4329 16.6011 13.06 17.2876 13.9644C17.3351 14.027 17.3815 14.0887 17.4272 14.1494C17.6439 14.4373 17.8445 14.7038 18.065 14.9406C18.3378 15.2334 18.5316 15.3557 18.6506 15.3909L18.6548 15.3921C18.6981 15.4052 18.7823 15.4306 18.9865 15.2698C19.2477 15.0642 19.6334 14.5959 20.1054 13.6232C20.3524 13.1142 20.953 12.9078 21.447 13.1623C21.941 13.4169 22.1412 14.0358 21.8942 14.5448C21.3662 15.6329 20.8144 16.4242 20.2007 16.9074C19.5367 17.4302 18.8071 17.5811 18.0991 17.3718C17.4681 17.1853 16.9744 16.7458 16.6222 16.3677C16.321 16.0444 16.0433 15.6745 15.8273 15.3868C15.7867 15.3327 15.7482 15.2815 15.7122 15.234C15.3987 14.8209 15.0287 14.6751 14.6212 14.7818C14.1327 14.9097 13.3138 15.4661 12.3682 17.1713C11.6727 18.4256 10.5083 18.9984 9.28676 19C8.10673 19.0015 6.90119 18.4799 5.9157 17.6401C5.80147 17.5427 5.68962 17.4406 5.5805 17.334C4.78193 17.8703 4.03922 18.3074 3.4474 18.6124C2.95343 18.8669 2.35277 18.6606 2.10579 18.1515C1.85881 17.6425 2.05903 17.0236 2.55299 16.7691C3.04772 16.5142 3.6705 16.1494 4.34575 15.7026C3.38722 13.9548 3.07338 11.6362 4.0717 9.06441C5.1413 6.30893 6.80116 4.9063 8.61527 5.00486ZM5.99427 14.5135C6.53743 14.0868 7.07665 13.6248 7.57825 13.1399C8.41446 12.3315 9.10822 11.4954 9.54887 10.6892C9.99123 9.87976 10.1305 9.19198 10.0194 8.61953C9.84062 7.69764 9.15335 7.09784 8.50997 7.06288C7.94911 7.03241 6.85896 7.43305 5.92861 9.8298C5.20676 11.6894 5.38924 13.2979 5.99427 14.5135Z" />
</svg>
