<svg width="1em" height="1em" viewBox="0 0 24 24" fill="none" xmlns="http://www.w3.org/2000/svg">
<path fill="currentColor" fill-rule="evenodd" clip-rule="evenodd" d="M17.5312 4.46909C16.9028 3.8362 15.8743 3.83919 15.2497 4.47574L5.41205 14.5013C5.39285 14.5209 5.37873 14.5448 5.37092 14.571L4.49626 17.5076L7.3847 16.6348C7.41443 16.6258 7.44151 16.6098 7.46362 16.5881L17.5168 6.71555C18.1446 6.09907 18.151 5.09344 17.5312 4.46909ZM13.8123 3.08169C15.2217 1.64533 17.5425 1.63858 18.9603 3.0667C20.3591 4.47553 20.3446 6.74473 18.928 8.13583L18.6823 8.37715L19.1626 8.97752C20.1175 10.1712 20.0222 11.892 18.9413 12.9729L17.2071 14.7071C16.8166 15.0977 16.1834 15.0977 15.7929 14.7071C15.4024 14.3166 15.4024 13.6835 15.7929 13.2929L17.5271 11.5587C17.8874 11.1984 17.9192 10.6248 17.6009 10.2269L17.2479 9.78574L8.87483 18.0084C8.62101 18.2576 8.31002 18.4418 7.96868 18.5449L3.29607 19.9568C2.94265 20.0636 2.55879 19.9689 2.29666 19.7101C2.03454 19.4514 1.93647 19.0705 2.04134 18.7184L3.44544 14.0042C3.54591 13.6669 3.72754 13.359 3.97462 13.1072L13.8123 3.08169ZM11.8536 20.2586L11.8558 20.2571C12.2524 19.9753 12.6006 19.7279 12.9415 19.5171C13.3561 19.2607 13.6896 19.1046 13.9784 19.0349C14.2452 18.9706 14.4768 18.9788 14.7214 19.0711C14.983 19.1699 15.327 19.3912 15.7575 19.8666C16.2864 20.4507 16.8452 20.8612 17.4613 21.0537C18.0989 21.2531 18.6899 21.1854 19.2054 21.0028C19.693 20.8301 20.1299 20.5478 20.487 20.3028C20.5987 20.2262 20.7024 20.1535 20.8013 20.0842C21.05 19.9098 21.2687 19.7565 21.5087 19.6151C21.9841 19.3351 22.1417 18.7239 21.8607 18.2501C21.5797 17.7763 20.9664 17.6192 20.491 17.8993C20.1769 18.0844 19.8618 18.3053 19.5939 18.4932C19.5083 18.5533 19.4275 18.6099 19.3531 18.661C19.0105 18.896 18.7577 19.0461 18.5355 19.1248C18.3412 19.1936 18.2023 19.1965 18.0598 19.1519C17.8957 19.1006 17.6242 18.953 17.2423 18.5313C16.6727 17.9023 16.077 17.4515 15.4297 17.2072C14.7652 16.9564 14.1186 16.9505 13.5081 17.0976C12.9198 17.2395 12.3772 17.5204 11.8871 17.8234C11.4862 18.0713 11.0733 18.3648 10.6745 18.6484C10.5894 18.7089 10.505 18.7689 10.4215 18.8279C9.33139 19.5983 8.70442 19.8545 8.29454 19.948C7.98861 20.0178 7.79831 20.011 7.49451 20.0002C7.35903 19.9953 7.20095 19.9897 6.99999 19.9897C6.44771 19.9897 6 20.4359 6 20.9863C6 21.5367 6.44771 21.9829 6.99999 21.9829C7.07191 21.9829 7.15694 21.9861 7.25309 21.9898C7.62274 22.0038 8.15666 22.0241 8.74077 21.8909C9.50932 21.7156 10.3823 21.299 11.5784 20.4538C11.6729 20.387 11.7644 20.322 11.8536 20.2586Z" />
</svg>
