<svg width="1em" height="1em" viewBox="0 0 24 24" fill="none" xmlns="http://www.w3.org/2000/svg">
<path fill="currentColor" fill-rule="evenodd" clip-rule="evenodd" d="M10.5 19C10.5 19.4044 10.7436 19.7691 11.1173 19.9238C11.491 20.0786 11.9211 19.9931 12.2071 19.7071L19.2071 12.7071C19.3946 12.5195 19.5 12.2652 19.5 12C19.5 11.7348 19.3946 11.4804 19.2071 11.2929L12.2071 4.29286C11.9211 4.00686 11.491 3.92131 11.1173 4.07609C10.7436 4.23087 10.5 4.59551 10.5 4.99997L10.5 19ZM17.0858 12L12.5 16.5858L12.5 7.41418L17.0858 12ZM7.5 5C7.5 4.44771 7.05228 4 6.5 4C5.94772 4 5.5 4.44771 5.5 5V19C5.5 19.5523 5.94772 20 6.5 20C7.05229 20 7.5 19.5523 7.5 19L7.5 5Z" />
</svg>
