<svg width="1em" height="1em" viewBox="0 0 24 24" fill="none" xmlns="http://www.w3.org/2000/svg">
<path fill="currentColor" fill-rule="evenodd" clip-rule="evenodd" d="M13.5 19C13.5 19.4044 13.2564 19.7691 12.8827 19.9238C12.509 20.0786 12.0789 19.9931 11.7929 19.7071L4.79289 12.7071C4.60536 12.5195 4.5 12.2652 4.5 12C4.5 11.7348 4.60536 11.4804 4.79289 11.2929L11.7929 4.29286C12.0789 4.00686 12.509 3.92131 12.8827 4.07609C13.2564 4.23087 13.5 4.59551 13.5 4.99997V19ZM6.91421 12L11.5 16.5858L11.5 7.41418L6.91421 12Z" />
<path fill="currentColor" d="M16.5 5C16.5 4.44771 16.9477 4 17.5 4C18.0523 4 18.5 4.44771 18.5 5V19C18.5 19.5523 18.0523 20 17.5 20C16.9477 20 16.5 19.5523 16.5 19L16.5 5Z" />
</svg>
