<svg width="1em" height="1em" viewBox="0 0 24 24" fill="none" xmlns="http://www.w3.org/2000/svg">
<path fill="currentColor" fill-rule="evenodd" clip-rule="evenodd" d="M5 18.6C5 19.3732 5.6268 20 6.4 20C7.1732 20 7.8 19.3732 7.8 18.6L7.8 5.4C7.8 4.6268 7.1732 4 6.4 4C5.6268 4 5 4.6268 5 5.4V18.6ZM11.6173 19.9239C11.2436 19.7691 11 19.4045 11 19V5.00003C11 4.59557 11.2436 4.23093 11.6173 4.07615C11.991 3.92137 12.4211 4.00692 12.7071 4.29292L19.7071 11.2929C20.0976 11.6834 20.0976 12.3166 19.7071 12.7071L12.7071 19.7071C12.4211 19.9931 11.991 20.0787 11.6173 19.9239Z" />
</svg>
