<svg width="1em" height="1em" viewBox="0 0 24 24" fill="none" xmlns="http://www.w3.org/2000/svg">
<path fill="currentColor" fill-rule="evenodd" clip-rule="evenodd" d="M19 18.6C19 19.3732 18.3732 20 17.6 20C16.8268 20 16.2 19.3732 16.2 18.6L16.2 5.4C16.2 4.6268 16.8268 4 17.6 4C18.3732 4 19 4.6268 19 5.4V18.6ZM12.3827 19.9239C12.7564 19.7691 13 19.4045 13 19V5.00003C13 4.59557 12.7564 4.23093 12.3827 4.07615C12.009 3.92137 11.5789 4.00692 11.2929 4.29292L4.29289 11.2929C3.90237 11.6834 3.90237 12.3166 4.29289 12.7071L11.2929 19.7071C11.5789 19.9931 12.009 20.0787 12.3827 19.9239Z" />
</svg>
