<svg width="1em" height="1em" viewBox="0 0 24 24" fill="none" xmlns="http://www.w3.org/2000/svg">
<path fill="currentColor" fill-rule="evenodd" clip-rule="evenodd" d="M16.906 18.3202C13.7675 20.7627 9.22787 20.5416 6.34315 17.6569C3.45843 14.7721 3.23731 10.2325 5.67979 7.09403L16.906 18.3202ZM18.3202 16.906L7.094 5.67982C10.2324 3.23731 14.7721 3.45842 17.6569 6.34315C20.5416 9.22788 20.7627 13.7676 18.3202 16.906ZM19.0711 19.0711C15.1658 22.9763 8.83417 22.9763 4.92893 19.0711C1.02369 15.1658 1.02369 8.83418 4.92893 4.92893C8.83418 1.02369 15.1658 1.02369 19.0711 4.92893C22.9763 8.83418 22.9763 15.1658 19.0711 19.0711Z" />
</svg>
