<svg width="1em" height="1em" viewBox="0 0 24 24" fill="none" xmlns="http://www.w3.org/2000/svg">
<path fill="currentColor" fill-rule="evenodd" clip-rule="evenodd" d="M13 12V5.00001C13 4.6156 12.7797 4.26523 12.4332 4.09871C12.0867 3.93219 11.6755 3.97901 11.3753 4.21914L6.64922 8.00001H3C2.44772 8.00001 2 8.44772 2 9.00001V12V15C2 15.5523 2.44772 16 3 16H6.64922L11.3753 19.7809C11.6755 20.021 12.0867 20.0678 12.4332 19.9013C12.7797 19.7348 13 19.3844 13 19V12ZM15.4168 8.18764C15.8654 7.86554 16.4902 7.96812 16.8123 8.41676L17.2516 9.0286C18.4323 10.6731 18.5048 12.8673 17.4353 14.5861L16.8491 15.5283C16.5573 15.9972 15.9406 16.1408 15.4717 15.849C15.0028 15.5572 14.8592 14.9406 15.151 14.4717L15.7372 13.5295C16.3789 12.4982 16.3354 11.1817 15.627 10.195L15.1877 9.58317C14.8656 9.13454 14.9682 8.50974 15.4168 8.18764Z" />
</svg>
