<svg width="1em" height="1em" viewBox="0 0 24 24" fill="none" xmlns="http://www.w3.org/2000/svg">
<path fill="currentColor" fill-rule="evenodd" clip-rule="evenodd" d="M13 12V5.00001C13 4.6156 12.7797 4.26523 12.4332 4.09871C12.0867 3.93219 11.6755 3.979 11.3753 4.21914L6.64922 8.00001H3C2.44772 8.00001 2 8.44773 2 9.00001V12V15C2 15.5523 2.44772 16 3 16H6.64922L11.3753 19.7809C11.6755 20.021 12.0867 20.0678 12.4332 19.9013C12.7797 19.7348 13 19.3844 13 19V12ZM16.7071 8.79289C16.3166 8.40237 15.6834 8.40237 15.2929 8.79289C14.9024 9.18342 14.9024 9.81658 15.2929 10.2071L17.0858 12L15.2929 13.7929C14.9024 14.1834 14.9024 14.8166 15.2929 15.2071C15.6834 15.5976 16.3166 15.5976 16.7071 15.2071L18.5 13.4142L20.2929 15.2071C20.6834 15.5976 21.3166 15.5976 21.7071 15.2071C22.0976 14.8166 22.0976 14.1834 21.7071 13.7929L19.9142 12L21.7071 10.2071C22.0976 9.81658 22.0976 9.18342 21.7071 8.79289C21.3166 8.40237 20.6834 8.40237 20.2929 8.79289L18.5 10.5858L16.7071 8.79289Z" />
</svg>
