<svg width="1em" height="1em" viewBox="0 0 24 24" fill="none" xmlns="http://www.w3.org/2000/svg">
<path fill="currentColor" fill-rule="evenodd" clip-rule="evenodd" d="M13 5.00001V12V19C13 19.3844 12.7797 19.7348 12.4332 19.9013C12.0867 20.0678 11.6755 20.021 11.3753 19.7809L6.64922 16H3C2.44772 16 2 15.5523 2 15V12V9.00001C2 8.44773 2.44772 8.00001 3 8.00001H6.64922L11.3753 4.21914C11.6755 3.979 12.0867 3.93219 12.4332 4.09871C12.7797 4.26523 13 4.6156 13 5.00001ZM17.3173 4.26935C17.7208 3.89228 18.3536 3.91372 18.7307 4.31725L19.2674 4.89164C22.7304 8.59765 22.9238 14.5091 19.7224 18.4621L18.7771 19.6294C18.4295 20.0585 17.7998 20.1247 17.3707 19.7771C16.9415 19.4295 16.8753 18.7998 17.2229 18.3707L18.1682 17.2034C20.7462 14.0201 20.5828 9.2287 17.8061 6.25715L17.2694 5.68276C16.8923 5.27923 16.9137 4.64643 17.3173 4.26935ZM16.8123 8.41675C16.4902 7.96811 15.8654 7.86553 15.4168 8.18763C14.9682 8.50973 14.8656 9.13453 15.1877 9.58316L15.627 10.195C16.3354 11.1817 16.3789 12.4982 15.7372 13.5295L15.151 14.4717C14.8592 14.9406 15.0028 15.5572 15.4717 15.849C15.9406 16.1408 16.5573 15.9972 16.8491 15.5283L17.4353 14.5861C18.5048 12.8673 18.4323 10.6731 17.2516 9.02859L16.8123 8.41675Z" />
</svg>
