<svg width="1em" height="1em" viewBox="0 0 24 24" fill="none" xmlns="http://www.w3.org/2000/svg">
<path fill="currentColor" fill-rule="evenodd" clip-rule="evenodd" d="M5.75259 3.34151C5.38891 2.92587 4.75715 2.88375 4.34151 3.24744C3.92587 3.61112 3.88375 4.24288 4.24744 4.65852L18.2474 20.6586C18.6111 21.0742 19.2429 21.1163 19.6585 20.7526C20.0742 20.3889 20.1163 19.7572 19.7526 19.3415L5.75259 3.34151ZM3 8.00001H5.17816L13 16.9393V19C13 19.3844 12.7797 19.7348 12.4332 19.9013C12.0867 20.0678 11.6755 20.021 11.3753 19.7809L6.64922 16H3C2.44772 16 2 15.5523 2 15V12V9.00001C2 8.44773 2.44772 8.00001 3 8.00001ZM16.0544 12.837L17.4965 14.4851C18.5015 12.782 18.4093 10.6411 17.2516 9.02859L16.8123 8.41675C16.4902 7.96811 15.8654 7.86553 15.4168 8.18763C14.9682 8.50973 14.8656 9.13453 15.1877 9.58316L15.627 10.195C16.1843 10.9714 16.3301 11.9519 16.0544 12.837ZM18.9153 16.1067L20.294 17.6823C22.8858 13.7634 22.5094 8.3611 19.2674 4.89164L18.7307 4.31725C18.3536 3.91372 17.7208 3.89228 17.3173 4.26935C16.9137 4.64643 16.8923 5.27923 17.2694 5.68276L17.8061 6.25715C20.2794 8.90398 20.6793 12.9946 18.9153 16.1067ZM9.69203 5.56576L13 9.3463V5.00001C13 4.6156 12.7797 4.26523 12.4332 4.09871C12.0867 3.93219 11.6755 3.979 11.3753 4.21914L9.69203 5.56576Z" />
</svg>
