<svg width="1em" height="1em" viewBox="0 0 24 24" fill="none" xmlns="http://www.w3.org/2000/svg">
<path fill="currentColor" fill-rule="evenodd" clip-rule="evenodd" d="M4 12L4 14H7C7.22707 14 7.44738 14.0773 7.62469 14.2191L11 16.9194V12V7.08061L7.62469 9.78086C7.44738 9.92271 7.22707 9.99999 7 9.99999H4L4 12ZM13 12V4.99999C13 4.61559 12.7797 4.26521 12.4332 4.09869C12.0867 3.93217 11.6755 3.97899 11.3753 4.21912L6.64922 7.99999H3C2.44772 7.99999 2 8.44771 2 8.99999V12V15C2 15.5523 2.44772 16 3 16H6.64922L11.3753 19.7809C11.6755 20.021 12.0867 20.0678 12.4332 19.9013C12.7797 19.7348 13 19.3844 13 19V12Z" />
</svg>
