<svg width="1em" height="1em" viewBox="0 0 24 24" fill="none" xmlns="http://www.w3.org/2000/svg">
<path fill="currentColor" fill-rule="evenodd" clip-rule="evenodd" d="M4 14L4 12V10L7 10C7.22707 10 7.44738 9.92272 7.62469 9.78087L11 7.08062V12V16.9194L7.62469 14.2191C7.44738 14.0773 7.22707 14 7 14H4ZM13 5V12V19C13 19.3844 12.7797 19.7348 12.4332 19.9013C12.0867 20.0678 11.6755 20.021 11.3753 19.7809L6.64922 16H3C2.44772 16 2 15.5523 2 15V12V9C2 8.44772 2.44772 8 3 8L6.64922 8L11.3753 4.21913C11.6755 3.979 12.0867 3.93218 12.4332 4.0987C12.7797 4.26522 13 4.61559 13 5ZM16.7071 8.79289C16.3166 8.40237 15.6834 8.40237 15.2929 8.79289C14.9024 9.18342 14.9024 9.81658 15.2929 10.2071L17.0858 12L15.2929 13.7929C14.9024 14.1834 14.9024 14.8166 15.2929 15.2071C15.6834 15.5976 16.3166 15.5976 16.7071 15.2071L18.5 13.4142L20.2929 15.2071C20.6834 15.5976 21.3166 15.5976 21.7071 15.2071C22.0976 14.8166 22.0976 14.1834 21.7071 13.7929L19.9142 12L21.7071 10.2071C22.0976 9.81658 22.0976 9.18342 21.7071 8.79289C21.3166 8.40237 20.6834 8.40237 20.2929 8.79289L18.5 10.5858L16.7071 8.79289Z" />
</svg>
