<svg width="1em" height="1em" viewBox="0 0 24 24" fill="none" xmlns="http://www.w3.org/2000/svg">
<path fill="currentColor" fill-rule="evenodd" clip-rule="evenodd" d="M4 14L4 12V10H7C7.22707 10 7.44738 9.92272 7.62469 9.78087L11 7.08062V12V16.9194L7.6247 14.2191C7.44738 14.0773 7.22707 14 7 14H4ZM13 5V12V19C13 19.3844 12.7797 19.7348 12.4332 19.9013C12.0867 20.0678 11.6755 20.021 11.3753 19.7809L6.64922 16H3C2.44772 16 2 15.5523 2 15V12V9C2 8.44772 2.44772 8 3 8H6.64922L11.3753 4.21913C11.6755 3.979 12.0867 3.93218 12.4332 4.0987C12.7797 4.26522 13 4.61559 13 5ZM16.8123 8.41675C16.4902 7.96811 15.8654 7.86553 15.4168 8.18763C14.9682 8.50973 14.8656 9.13453 15.1877 9.58316L15.627 10.195C16.3354 11.1817 16.3789 12.4982 15.7372 13.5295L15.151 14.4717C14.8592 14.9406 15.0028 15.5572 15.4717 15.849C15.9406 16.1408 16.5573 15.9972 16.8491 15.5283L17.4353 14.5861C18.5048 12.8673 18.4323 10.6731 17.2516 9.02859L16.8123 8.41675Z" />
</svg>
