<svg width="16" height="16" viewBox="0 0 16 16" fill="none" xmlns="http://www.w3.org/2000/svg">
<path fill-rule="evenodd" clip-rule="evenodd" d="M8 2.08696C4.73432 2.08696 2.08696 4.73432 2.08696 8C2.08696 11.2657 4.73432 13.913 8 13.913C11.2657 13.913 13.913 11.2657 13.913 8C13.913 4.73432 11.2657 2.08696 8 2.08696ZM0 8C0 3.58172 3.58172 0 8 0C12.4183 0 16 3.58172 16 8C16 12.4183 12.4183 16 8 16C3.58172 16 0 12.4183 0 8Z" fill="#E9EBED"/>
<path fill-rule="evenodd" clip-rule="evenodd" d="M6.95654 1.04348C6.95654 0.467181 7.42372 0 8.00002 0C12.4183 0 16 3.58172 16 8C16 8.5763 15.5328 9.04348 14.9565 9.04348C14.3802 9.04348 13.9131 8.5763 13.9131 8C13.9131 4.73432 11.2657 2.08696 8.00002 2.08696C7.42372 2.08696 6.95654 1.61978 6.95654 1.04348Z" fill="#3A9DF2"/>
</svg>
