<svg width="24" height="24" viewBox="0 0 24 24" fill="none" xmlns="http://www.w3.org/2000/svg">
<path fill-rule="evenodd" clip-rule="evenodd" d="M10.115 3.27473C10.821 1.57509 13.179 1.57509 13.885 3.27474L15.6645 7.55875C15.6728 7.5788 15.6835 7.58997 15.6907 7.59544C15.6944 7.5982 15.6986 7.60012 15.6986 7.60012L15.7011 7.6008L20.1538 8.04374C21.9947 8.22687 22.5964 10.5105 21.3271 11.6805L17.9741 14.7711C17.9654 14.7792 17.9549 14.7934 17.9481 14.8152C17.9413 14.837 17.9399 14.8617 17.945 14.8859L18.9175 19.4436C19.2749 21.1191 17.4992 22.6926 15.8588 21.6816L12.0071 19.3076C12.0039 19.3057 12.0014 19.3049 12.0014 19.3049L12 19.3047L11.9986 19.3049C11.9986 19.3049 11.996 19.3057 11.9929 19.3076L8.14117 21.6816C6.5008 22.6926 4.72506 21.1191 5.08253 19.4436L6.05497 14.8859C6.06013 14.8617 6.05869 14.837 6.05189 14.8152C6.04509 14.7934 6.0346 14.7792 6.02586 14.7711L2.67293 11.6805C1.40356 10.5105 2.00527 8.22687 3.84616 8.04374L8.29888 7.6008L8.3014 7.60012C8.3014 7.60012 8.30563 7.5982 8.30927 7.59544C8.31648 7.58997 8.32718 7.5788 8.33551 7.55875L10.115 3.27473ZM11.982 4.00688C11.9789 4.0107 11.9715 4.02061 11.9632 4.04061L10.1837 8.32462C9.89733 9.01397 9.26064 9.51356 8.49718 9.58951L4.04446 10.0324C4.03254 10.0336 4.0318 10.0357 4.0318 10.0357C4.027 10.0399 4.01326 10.0553 4.00391 10.0853C3.99461 10.1152 3.99485 10.1434 3.99954 10.1631C4.0031 10.1781 4.00975 10.1932 4.02993 10.2118L7.38287 13.3024C7.93555 13.8119 8.16645 14.5782 8.01194 15.3024L7.0395 19.8602C7.03064 19.9017 7.03671 19.9245 7.04153 19.9369C7.04791 19.9534 7.05932 19.9682 7.07275 19.9784C7.07694 19.9815 7.08043 19.9836 7.08306 19.985C7.08506 19.9839 7.08751 19.9826 7.09044 19.9808L10.9422 17.6068C11.5927 17.2059 12.4073 17.2059 13.0578 17.6068L16.9096 19.9808C16.9125 19.9826 16.9149 19.9839 16.9169 19.985C16.9196 19.9836 16.9231 19.9815 16.9273 19.9784C16.9407 19.9682 16.9521 19.9533 16.9585 19.9369C16.9633 19.9245 16.9694 19.9017 16.9605 19.8602L15.9881 15.3024C15.8336 14.5782 16.0645 13.8119 16.6171 13.3024L19.9701 10.2118C19.9902 10.1932 19.9969 10.1781 20.0005 10.1631C20.0052 10.1434 20.0054 10.1152 19.9961 10.0853C19.9867 10.0553 19.973 10.04 19.9682 10.0358C19.9682 10.0358 19.9688 10.0338 19.9555 10.0324L15.5028 9.58951C14.7394 9.51356 14.1027 9.01397 13.8163 8.32462L12.0368 4.04061C12.0285 4.02061 12.0211 4.0107 12.018 4.00688C12.0147 4.00292 12.0123 4.00134 12.0123 4.00134C12.0123 4.00134 12.0072 3.99854 12 3.99854C11.9928 3.99854 11.9877 4.00134 11.9877 4.00134C11.9877 4.00134 11.9853 4.00292 11.982 4.00688Z" fill="#6A7681"/>
</svg>
