<svg width="1em" height="1em" viewBox="0 0 24 24" fill="none" xmlns="http://www.w3.org/2000/svg">
<path fill="currentColor" fill-rule="evenodd" clip-rule="evenodd" d="M11.2034 3C8.60578 3 6.5 5.10577 6.5 7.70338C6.5 8.33265 6.62534 8.9411 6.85649 9.5H9.18332C8.75229 9.01516 8.5 8.38023 8.5 7.70338C8.5 6.21034 9.71034 5 11.2034 5H12.0522C13.5812 5 14.9385 5.97829 15.4221 7.42872L15.5513 7.81629C15.726 8.34022 16.2924 8.62334 16.8163 8.44866C17.3402 8.27398 17.6233 7.70765 17.4487 7.18371L17.3194 6.79615C16.5636 4.5291 14.442 3 12.0522 3H11.2034ZM17.5 16.2966C17.5 18.8942 15.3942 21 12.7966 21H11.9478C9.55803 21 7.43639 19.4709 6.68055 17.2039L6.55134 16.8163C6.37666 16.2924 6.65978 15.726 7.18371 15.5513C7.70765 15.3767 8.27398 15.6598 8.44866 16.1837L8.57788 16.5713C9.06145 18.0217 10.4188 19 11.9478 19H12.7966C14.2897 19 15.5 17.7897 15.5 16.2966C15.5 15.187 14.8219 14.19 13.7899 13.7823L13.0753 13.5H4C3.44772 13.5 3 13.0523 3 12.5C3 11.9477 3.44772 11.5 4 11.5H20C20.5523 11.5 21 11.9477 21 12.5C21 13.0523 20.5523 13.5 20 13.5H16.5783C17.1642 14.2925 17.5 15.2666 17.5 16.2966Z" />
</svg>
