<svg width="1em" height="1em" viewBox="0 0 24 24" fill="currentColor" xmlns="http://www.w3.org/2000/svg">
<path fill-rule="evenodd" clip-rule="evenodd" d="M2 6C2 3.79086 3.79086 2 6 2H18C20.2091 2 22 3.79086 22 6V18C22 20.2091 20.2091 22 18 22H6C3.79086 22 2 20.2091 2 18V6ZM15.9808 7.19631C16.0891 6.65475 15.7379 6.12792 15.1963 6.01961C14.6547 5.9113 14.1279 6.26252 14.0196 6.80408L13.5804 9L11.6195 9L11.9803 7.19631C12.0886 6.65475 11.7374 6.12792 11.1958 6.01961C10.6543 5.9113 10.1274 6.26252 10.0191 6.80408L9.57994 9H8C7.44772 9 7 9.44772 7 10C7 10.5523 7.44772 11 8 11H9.17994L8.77994 13H7C6.44772 13 6 13.4477 6 14C6 14.5523 6.44772 15 7 15H8.37994L8.01912 16.8041C7.91081 17.3456 8.26203 17.8725 8.80359 17.9808C9.34515 18.0891 9.87197 17.7379 9.98029 17.1963L10.4195 15H12.3804L12.0196 16.8041C11.9113 17.3456 12.2625 17.8725 12.8041 17.9808C13.3456 18.0891 13.8725 17.7379 13.9808 17.1963L14.42 15H16C16.5523 15 17 14.5523 17 14C17 13.4477 16.5523 13 16 13H14.82L15.22 11H17C17.5523 11 18 10.5523 18 10C18 9.44771 17.5523 9 17 9L15.62 9L15.9808 7.19631ZM10.8195 13L11.2195 11H13.1804L12.7804 13H10.8195Z" fill="currentColor"/>
</svg>
