<svg width="1em" height="1em" viewBox="0 0 24 24" fill="currentColor" xmlns="http://www.w3.org/2000/svg">
<path fill-rule="evenodd" clip-rule="evenodd" d="M6 2C3.79086 2 2 3.79086 2 6V18C2 20.2091 3.79086 22 6 22H18C20.2091 22 22 20.2091 22 18V6C22 3.79086 20.2091 2 18 2H6ZM4 6C4 4.89543 4.89543 4 6 4H18C19.1046 4 20 4.89543 20 6V18C20 19.1046 19.1046 20 18 20H6C4.89543 20 4 19.1046 4 18V6ZM15.9808 7.19613C16.0891 6.65457 15.7379 6.12774 15.1963 6.01943C14.6547 5.91112 14.1279 6.26233 14.0196 6.80389L13.5804 8.99982L11.6195 8.99982L11.9803 7.19613C12.0886 6.65457 11.7374 6.12774 11.1958 6.01943C10.6543 5.91112 10.1274 6.26233 10.0191 6.80389L9.57994 8.99982H8C7.44772 8.99982 7 9.44753 7 9.99982C7 10.5521 7.44772 10.9998 8 10.9998H9.17994L8.77994 12.9998H7C6.44772 12.9998 6 13.4475 6 13.9998C6 14.5521 6.44772 14.9998 7 14.9998H8.37994L8.01912 16.8039C7.91081 17.3455 8.26203 17.8723 8.80359 17.9806C9.34515 18.0889 9.87197 17.7377 9.98029 17.1961L10.4195 14.9998H12.3804L12.0196 16.8039C11.9113 17.3455 12.2625 17.8723 12.8041 17.9806C13.3456 18.0889 13.8725 17.7377 13.9808 17.1961L14.42 14.9998H16C16.5523 14.9998 17 14.5521 17 13.9998C17 13.4475 16.5523 12.9998 16 12.9998H14.82L15.22 10.9998H17C17.5523 10.9998 18 10.5521 18 9.99982C18 9.44753 17.5523 8.99982 17 8.99982H15.62L15.9808 7.19613ZM10.8195 12.9998L11.2195 10.9998H13.1804L12.7804 12.9998H10.8195Z" fill="currentColor"/>
</svg>
