<svg width="1em" height="1em" viewBox="0 0 24 24" fill="none" xmlns="http://www.w3.org/2000/svg">
<path fill="currentColor" fill-rule="evenodd" clip-rule="evenodd" d="M2 4.97448C2 3.33172 3.33172 2 4.97448 2H10.5427C11.3316 2 12.0882 2.31338 12.646 2.87121L21.1288 11.354C22.2904 12.5156 22.2904 14.3989 21.1288 15.5605L15.5605 21.1288C14.3989 22.2904 12.5156 22.2904 11.354 21.1288L2.87121 12.646C2.31338 12.0882 2 11.3316 2 10.5427V4.97448ZM6.36612 8.13388C5.87796 7.64573 5.87796 6.85427 6.36612 6.36612C6.85427 5.87796 7.64573 5.87796 8.13388 6.36612C8.62204 6.85427 8.62204 7.64573 8.13388 8.13388C7.64573 8.62204 6.85427 8.62204 6.36612 8.13388Z" />
</svg>
