<svg width="1em" height="1em" viewBox="0 0 24 24" fill="none" xmlns="http://www.w3.org/2000/svg">
<path fill="currentColor" fill-rule="evenodd" clip-rule="evenodd" d="M12.646 2.87121L14.7899 5.01511L13.4812 6.51078L11.2438 4.27339C11.0579 4.08745 10.8057 3.98299 10.5427 3.98299H4.97448C4.4269 3.98299 3.98299 4.4269 3.98299 4.97448V10.5427C3.98299 10.8057 4.08745 11.0579 4.27339 11.2438L6.97548 13.9459L5.66678 15.4416L2.87121 12.646C2.31338 12.0882 2 11.3316 2 10.5427V4.97448C2 3.33172 3.33172 2 4.97448 2H10.5427C11.3316 2 12.0882 2.31338 12.646 2.87121ZM18.3333 8.5585L17.0246 10.0542L19.7266 12.7562C20.1138 13.1434 20.1138 13.7712 19.7266 14.1584L14.1584 19.7266C13.7712 20.1138 13.1434 20.1138 12.7562 19.7266L10.5189 17.4893L9.21016 18.985L11.354 21.1288C12.5156 22.2904 14.3989 22.2904 15.5605 21.1288L21.1288 15.5605C22.2904 14.3989 22.2904 12.5156 21.1288 11.354L18.3333 8.5585ZM6.36612 8.13388C5.87796 7.64573 5.87796 6.85427 6.36612 6.36612C6.85427 5.87796 7.64573 5.87796 8.13388 6.36612C8.62204 6.85427 8.62204 7.64573 8.13388 8.13388C7.64573 8.62204 6.85427 8.62204 6.36612 8.13388ZM18.2474 3.34151C18.6111 2.92587 19.2429 2.88375 19.6585 3.24744C20.0741 3.61112 20.1162 4.24288 19.7526 4.65852L5.75256 20.6586C5.38888 21.0742 4.75712 21.1163 4.34148 20.7526C3.92585 20.3889 3.88373 19.7572 4.24741 19.3415L18.2474 3.34151Z" />
</svg>
