<svg width="1em" height="1em" viewBox="0 0 24 24" fill="none" xmlns="http://www.w3.org/2000/svg">
<path fill="currentColor" fill-rule="evenodd" clip-rule="evenodd" d="M10.1442 4.25581C10.8164 2.584 13.1831 2.584 13.8554 4.25581L18.4276 15.6266C18.6336 16.139 18.3853 16.7215 17.8728 16.9275C17.3604 17.1335 16.778 16.8852 16.572 16.3728L15.2121 12.9908C15.1893 12.9924 15.1663 12.9932 15.1431 12.9932H8.85742C8.83391 12.9932 8.81059 12.9924 8.78748 12.9908L7.42758 16.3728C7.22154 16.8852 6.63912 17.1335 6.12671 16.9275C5.6143 16.7215 5.36593 16.139 5.57197 15.6266L10.1442 4.25581ZM11.9998 5.00195L14.4088 10.9932H9.59071L11.9998 5.00195ZM4 19C3.44772 19 3 19.4477 3 20C3 20.5523 3.44772 21 4 21H20C20.5523 21 21 20.5523 21 20C21 19.4477 20.5523 19 20 19H4Z" />
</svg>
