<svg width="1em" height="1em" viewBox="0 0 24 24" fill="none" xmlns="http://www.w3.org/2000/svg">
<path fill="currentColor" fill-rule="evenodd" clip-rule="evenodd" d="M5.72954 2.31606C5.35181 1.91315 4.71898 1.89274 4.31606 2.27047C3.91315 2.6482 3.89274 3.28103 4.27047 3.68394L19.2705 19.684C19.6482 20.0869 20.281 20.1073 20.6839 19.7296C21.0869 19.3518 21.1073 18.719 20.7295 18.3161L5.72954 2.31606ZM3 8V4.50036C3.05427 4.57252 3.11299 4.64248 3.17616 4.70986L5 6.65529V8C5 8.55228 4.55228 9 4 9C3.44772 9 3 8.55228 3 8ZM11 5V5.74472L13 7.87806V5H19V8C19 8.55228 19.4477 9 20 9C20.5523 9 21 8.55228 21 8V4C21 3.44772 20.5523 3 20 3H8.42683L10.3018 5H11ZM11 19V13.0553L13 15.1886V19H15.5C16.0523 19 16.5 19.4477 16.5 20C16.5 20.5523 16.0523 21 15.5 21H8.5C7.94772 21 7.5 20.5523 7.5 20C7.5 19.4477 7.94772 19 8.5 19H11Z" />
</svg>
