<svg width="1em" height="1em" viewBox="0 0 24 24" fill="none" xmlns="http://www.w3.org/2000/svg">
<path fill="currentColor" fill-rule="evenodd" clip-rule="evenodd" d="M8 5C8 3.34315 9.34315 2 11 2H13C14.6569 2 16 3.34315 16 5V5.5H19H20.5C21.0523 5.5 21.5 5.94772 21.5 6.5C21.5 7.05228 21.0523 7.5 20.5 7.5H19.8715L18.1097 20.2733C17.9732 21.2629 17.1274 22 16.1285 22H7.87154C6.87257 22 6.0268 21.2629 5.8903 20.2733L4.12847 7.5H3.5C2.94772 7.5 2.5 7.05228 2.5 6.5C2.5 5.94772 2.94772 5.5 3.5 5.5H5.00001H8V5ZM10 5.5H14V5C14 4.44772 13.5523 4 13 4H11C10.4477 4 10 4.44772 10 5V5.5ZM11 10.5C11 9.94772 10.5523 9.5 10 9.5C9.44772 9.5 9 9.94772 9 10.5V17C9 17.5523 9.44772 18 10 18C10.5523 18 11 17.5523 11 17V10.5ZM15 10.5C15 9.94772 14.5523 9.5 14 9.5C13.4477 9.5 13 9.94772 13 10.5V17C13 17.5523 13.4477 18 14 18C14.5523 18 15 17.5523 15 17V10.5Z" />
</svg>
