<svg width="1em" height="1em" viewBox="0 0 24 24" fill="none" xmlns="http://www.w3.org/2000/svg">
<path fill="currentColor" fill-rule="evenodd" clip-rule="evenodd" d="M8 5C8 3.34315 9.34315 2 11 2H13C14.6569 2 16 3.34315 16 5V5.5H19H20.5C21.0523 5.5 21.5 5.94772 21.5 6.5C21.5 7.05228 21.0523 7.5 20.5 7.5H19.8715L18.1097 20.2733C17.9732 21.2629 17.1274 22 16.1285 22H7.87154C6.87256 22 6.02679 21.2629 5.89029 20.2733L4.12846 7.5H3.5C2.94772 7.5 2.5 7.05228 2.5 6.5C2.5 5.94772 2.94772 5.5 3.5 5.5H5H8V5ZM10 5.5H14V5C14 4.44772 13.5523 4 13 4H11C10.4477 4 10 4.44772 10 5V5.5ZM6.1474 7.5L7.87154 20H16.1285L17.8526 7.5H15H9H6.1474Z" />
</svg>
