<svg width="1em" height="1em" viewBox="0 0 24 24" fill="none" xmlns="http://www.w3.org/2000/svg">
<path fill="currentColor" fill-rule="evenodd" clip-rule="evenodd" d="M11 2C9.34315 2 8 3.34315 8 5V5.5H5H3.5C2.94772 5.5 2.5 5.94772 2.5 6.5C2.5 7.05228 2.94772 7.5 3.5 7.5H4.12846L5.89029 20.2733C6.02679 21.2629 6.87256 22 7.87154 22H16.1285C17.1274 22 17.9732 21.2629 18.1097 20.2733L19.8715 7.5H20.5C21.0523 7.5 21.5 7.05228 21.5 6.5C21.5 5.94772 21.0523 5.5 20.5 5.5H19H16V5C16 3.34315 14.6569 2 13 2H11ZM14 5.5H10V5C10 4.44772 10.4477 4 11 4H13C13.5523 4 14 4.44772 14 5V5.5Z" />
</svg>
