<svg width="1em" height="1em" viewBox="0 0 24 24" fill="none" xmlns="http://www.w3.org/2000/svg">
<path fill="currentColor" fill-rule="evenodd" clip-rule="evenodd" d="M2.30975 9.72396C2.11891 9.54185 2 9.285 2 9.00039C2 8.92194 2.00903 8.84561 2.02611 8.77237C2.06701 8.59665 2.15593 8.42985 2.29289 8.29289L7.29289 3.29289C7.68341 2.90237 8.31658 2.90237 8.7071 3.29289C9.09763 3.68342 9.09763 4.31658 8.7071 4.70711L5.41382 8.00039L16.0002 8.00039C19.3138 8.00039 22 10.6866 22 14.0002C22 17.3138 19.3138 20 16.0002 20H10.5C9.94772 20 9.5 19.5523 9.5 19C9.5 18.4477 9.94772 18 10.5 18L16.0002 18C18.2092 18 20 16.2092 20 14.0002C20 11.7912 18.2092 10.0004 16.0002 10.0004L5.4146 10.0004L8.7071 13.2929C9.09763 13.6834 9.09763 14.3166 8.7071 14.7071C8.31658 15.0976 7.68341 15.0976 7.29289 14.7071L2.30975 9.72396Z" />
</svg>
