<svg width="1em" height="1em" viewBox="0 0 24 24" fill="none" xmlns="http://www.w3.org/2000/svg">
<path fill="currentColor" fill-rule="evenodd" clip-rule="evenodd" d="M11.3113 2.27497C11.402 2.18869 11.505 2.12272 11.6144 2.07705C11.7331 2.02742 11.8633 2 12 2C12.2559 2 12.5119 2.09763 12.7071 2.29289L17.7071 7.29289C18.0976 7.68341 18.0976 8.31658 17.7071 8.7071C17.3166 9.09763 16.6834 9.09763 16.2929 8.7071L13 5.41421L13 15C13 15.5523 12.5523 16 12 16C11.4477 16 11 15.5523 11 15L11 5.41422L7.70712 8.7071C7.3166 9.09763 6.68343 9.09763 6.29291 8.7071C5.90238 8.31658 5.90238 7.68341 6.29291 7.29289L11.2908 2.29503C11.2975 2.28825 11.3043 2.28156 11.3113 2.27497ZM4 15C4 14.4477 3.55228 14 3 14C2.44772 14 2 14.4477 2 15V19C2 20.6569 3.34315 22 5 22H19C20.6569 22 22 20.6569 22 19V15C22 14.4477 21.5523 14 21 14C20.4477 14 20 14.4477 20 15V19C20 19.5523 19.5523 20 19 20H5C4.44772 20 4 19.5523 4 19V15Z" />
</svg>
