<svg width="1em" height="1em" viewBox="0 0 24 24" fill="none" xmlns="http://www.w3.org/2000/svg">
<path fill="currentColor" fill-rule="evenodd" clip-rule="evenodd" d="M4.66663 7.55556C4.66663 5.03959 6.70622 3 9.22218 3C11.7381 3 13.7777 5.03959 13.7777 7.55556C13.7777 10.0715 11.7381 12.1111 9.22218 12.1111C6.70622 12.1111 4.66663 10.0715 4.66663 7.55556ZM6.38934 13.3622C8.25673 12.962 10.1877 12.962 12.0551 13.3622C14.6153 13.9108 16.4444 16.1734 16.4444 18.7917V20.0001C16.4444 20.5523 15.9967 21.0001 15.4444 21.0001H3C2.44772 21.0001 2 20.5523 2 20.0001V18.7917C2 16.1734 3.8291 13.9108 6.38934 13.3622ZM21 21.0001H17.7365C17.8703 20.6938 17.9445 20.3556 17.9445 20.0001V18.7917C17.9445 16.4636 16.806 14.357 15.0074 13.0636C15.8719 13.08 16.7353 13.1788 17.5855 13.3602C20.1599 13.9094 22 16.1835 22 18.8158V20.0001C22 20.5523 21.5523 21.0001 21 21.0001ZM14.7501 12.1111C14.289 12.1111 13.8437 12.043 13.4238 11.9163C14.5668 10.8148 15.2778 9.26823 15.2778 7.55556C15.2778 5.84288 14.5668 4.29627 13.4238 3.19479C13.8437 3.06809 14.289 3 14.7501 3C17.2706 3 19.3215 5.0354 19.3215 7.55556C19.3215 10.0757 17.2706 12.1111 14.7501 12.1111Z" />
</svg>
