<svg width="1em" height="1em" viewBox="0 0 24 24" fill="none" xmlns="http://www.w3.org/2000/svg">
<path fill-rule="evenodd" clip-rule="evenodd" d="M11 4C9.34315 4 8 5.34315 8 7C8 8.65685 9.34315 10 11 10C12.6569 10 14 8.65685 14 7C14 5.34315 12.6569 4 11 4ZM6 7C6 4.23858 8.23858 2 11 2C13.7614 2 16 4.23858 16 7C16 9.76142 13.7614 12 11 12C8.23858 12 6 9.76142 6 7ZM14.6094 13.6691C14.4908 13.6405 14.371 13.6148 14.2499 13.5921C12.102 13.1894 9.89797 13.1894 7.75005 13.5921C4.41601 14.2172 2 17.1283 2 20.5205V21.0002C2 21.5524 2.44772 22.0002 3 22.0002H14.2252C13.6385 21.4463 13.1737 20.7649 12.875 20.0002H4.02665C4.25328 17.7982 5.90293 15.9733 8.11863 15.5578C9.77422 15.2474 11.4674 15.2069 13.1329 15.4362C13.4962 14.7478 14.0014 14.1458 14.6094 13.6691ZM22 18C22 20.2091 20.2091 22 18 22C15.7909 22 14 20.2091 14 18C14 15.7909 15.7909 14 18 14C20.2091 14 22 15.7909 22 18ZM18 15.4C18.3314 15.4 18.6 15.6687 18.6 16V17.8805L20.1963 18.433C20.5094 18.5414 20.6754 18.8832 20.567 19.1963C20.4586 19.5094 20.1169 19.6754 19.8038 19.567L17.8038 18.8747C17.5621 18.7911 17.4 18.5634 17.4 18.3077V16C17.4 15.6687 17.6687 15.4 18 15.4Z" fill="currentColor"/>
</svg>
