<svg width="1em" height="1em" viewBox="0 0 24 24" fill="none" xmlns="http://www.w3.org/2000/svg">
<path fill="currentColor" fill-rule="evenodd" clip-rule="evenodd" d="M9 7C9 5.34315 10.3431 4 12 4C13.6569 4 15 5.34315 15 7C15 8.65685 13.6569 10 12 10C10.3431 10 9 8.65685 9 7ZM12 2C9.23858 2 7 4.23858 7 7C7 9.76142 9.23858 12 12 12C14.7614 12 17 9.76142 17 7C17 4.23858 14.7614 2 12 2ZM21 20.5204C21 17.1282 18.584 14.2171 15.2499 13.592C13.102 13.1892 10.898 13.1892 8.75005 13.592C5.41601 14.2171 3 17.1282 3 20.5204V21C3 21.5523 3.44772 22 4 22H20C20.5523 22 21 21.5523 21 21V20.5204ZM9.11863 15.5577C11.023 15.2007 12.977 15.2007 14.8814 15.5577C17.0971 15.9732 18.7467 17.7981 18.9733 20H5.02665C5.25328 17.7981 6.90293 15.9732 9.11863 15.5577Z" />
</svg>
