<svg width="1em" height="1em" viewBox="0 0 24 24" fill="none" xmlns="http://www.w3.org/2000/svg">
<path fill="currentColor" fill-rule="evenodd" clip-rule="evenodd" d="M9.22218 5C7.81079 5 6.66663 6.14416 6.66663 7.55556C6.66663 8.96695 7.81079 10.1111 9.22218 10.1111C10.6336 10.1111 11.7777 8.96695 11.7777 7.55556C11.7777 6.14416 10.6336 5 9.22218 5ZM4.66663 7.55556C4.66663 5.03959 6.70622 3 9.22218 3C11.7381 3 13.7777 5.03959 13.7777 7.55556C13.7777 10.0715 11.7381 12.1111 9.22218 12.1111C6.70622 12.1111 4.66663 10.0715 4.66663 7.55556ZM6.38934 13.3622C8.25673 12.962 10.1877 12.962 12.0551 13.3622C14.6153 13.9108 16.4444 16.1734 16.4444 18.7917V20.0001C16.4444 20.5523 15.9967 21.0001 15.4444 21.0001H3C2.44772 21.0001 2 20.5523 2 20.0001V18.7917C2 16.1734 3.8291 13.9108 6.38934 13.3622ZM11.636 15.3178C10.0449 14.9768 8.39955 14.9768 6.8084 15.3178C5.1703 15.6688 4 17.1164 4 18.7917V19.0001H14.4444V18.7917C14.4444 17.1164 13.2741 15.6688 11.636 15.3178ZM20 19.0001H17.9445V20.0001C17.9445 20.3556 17.8703 20.6938 17.7365 21.0001H21C21.5523 21.0001 22 20.5523 22 20.0001V18.8158C22 16.1835 20.1599 13.9094 17.5855 13.3602C16.7353 13.1788 15.8719 13.08 15.0074 13.0636C15.8274 13.6533 16.5102 14.412 17.0105 15.2837C17.0631 15.2942 17.1157 15.305 17.1683 15.3162C18.8197 15.6685 20 17.1273 20 18.8158V19.0001ZM14.7501 12.1111C14.289 12.1111 13.8437 12.043 13.4238 11.9163C13.9574 11.4021 14.3969 10.7908 14.7138 10.1109L14.7501 10.1111C16.1744 10.1111 17.3215 8.96276 17.3215 7.55556C17.3215 6.14836 16.1744 5 14.7501 5L14.7138 5.00025C14.3969 4.32033 13.9574 3.70905 13.4238 3.19479C13.8437 3.06809 14.289 3 14.7501 3C17.2706 3 19.3215 5.0354 19.3215 7.55556C19.3215 10.0757 17.2706 12.1111 14.7501 12.1111Z" />
</svg>
