<svg width="1em" height="1em" viewBox="0 0 24 24" fill="none" xmlns="http://www.w3.org/2000/svg">
<path fill="currentColor" fill-rule="evenodd" clip-rule="evenodd" d="M11 4C9.34315 4 8 5.34315 8 7C8 8.65685 9.34315 10 11 10C12.6569 10 14 8.65685 14 7C14 5.34315 12.6569 4 11 4ZM6 7C6 4.23858 8.23858 2 11 2C13.7614 2 16 4.23858 16 7C16 9.76142 13.7614 12 11 12C8.23858 12 6 9.76142 6 7ZM7.75005 13.5921C9.44331 13.2746 11.1715 13.2074 12.8795 13.3905C13.4286 13.4493 13.8261 13.9422 13.7672 14.4914C13.7083 15.0405 13.2155 15.4379 12.6663 15.3791C11.152 15.2168 9.61985 15.2764 8.11863 15.5578C5.90293 15.9733 4.25329 17.7982 4.02665 20.0001L12 20C12.5523 20 13 20.4477 13 21C13 21.5523 12.5523 22 12 22L3.00002 22.0002C2.7348 22.0002 2.48044 21.8948 2.2929 21.7073C2.10536 21.5197 2 21.2654 2 21.0002V20.5205C2 17.1283 4.41601 14.2172 7.75005 13.5921ZM21.7071 16.7071C22.0976 16.3166 22.0976 15.6834 21.7071 15.2929C21.3166 14.9024 20.6834 14.9024 20.2929 15.2929L17.0028 18.583L15.7099 17.2797C15.321 16.8876 14.6878 16.8851 14.2957 17.2741C13.9036 17.663 13.9011 18.2962 14.2901 18.6883L16.2901 20.7043C16.4774 20.8931 16.7321 20.9995 16.998 21C17.2639 21.0005 17.5191 20.8951 17.7071 20.7071L21.7071 16.7071Z" />
</svg>
