<svg width="1em" height="1em" viewBox="0 0 24 24" fill="none" xmlns="http://www.w3.org/2000/svg">
<path fill="currentColor" fill-rule="evenodd" clip-rule="evenodd" d="M8 7C8 5.34315 9.34315 4 11 4C12.6569 4 14 5.34315 14 7C14 8.65685 12.6569 10 11 10C9.34315 10 8 8.65685 8 7ZM11 2C8.23858 2 6 4.23858 6 7C6 9.76142 8.23858 12 11 12C13.7614 12 16 9.76142 16 7C16 4.23858 13.7614 2 11 2ZM12.8795 13.3905C11.1715 13.2074 9.44331 13.2746 7.75005 13.5921C4.41601 14.2172 2 17.1283 2 20.5205V21.0002C2 21.2654 2.10536 21.5197 2.2929 21.7073C2.48044 21.8948 2.7348 22.0002 3.00002 22.0002L12 22C12.5523 22 13 21.5523 13 21C13 20.4477 12.5523 20 12 20L4.02665 20.0001C4.25329 17.7982 5.90293 15.9733 8.11863 15.5578C9.61985 15.2764 11.152 15.2168 12.6663 15.3791C13.2155 15.4379 13.7083 15.0405 13.7672 14.4914C13.8261 13.9422 13.4286 13.4493 12.8795 13.3905ZM17.9995 14C18.5518 14 18.9995 14.4477 18.9995 15V16.999H20.9989C21.5512 16.999 21.9989 17.4467 21.9989 17.999C21.9989 18.5513 21.5512 18.999 20.9989 18.999H18.9995V20.9989C18.9995 21.5512 18.5518 21.9989 17.9995 21.9989C17.4472 21.9989 16.9995 21.5512 16.9995 20.9989V18.999H15C14.4477 18.999 14 18.5513 14 17.999C14 17.4467 14.4477 16.999 15 16.999H16.9995V15C16.9995 14.4477 17.4472 14 17.9995 14Z" />
</svg>
