<svg width="1em" height="1em" viewBox="0 0 24 24" fill="none" xmlns="http://www.w3.org/2000/svg">
<path fill="currentColor" fill-rule="evenodd" clip-rule="evenodd" d="M5 5.5C3.34315 5.5 2 6.84315 2 8.5V15.5C2 17.1569 3.34315 18.5 5 18.5H14C15.6569 18.5 17 17.1569 17 15.5V15.1503L18.9299 16.3725C20.2616 17.2158 22 16.2591 22 14.6829V9.31689C22 7.74063 20.2615 6.78386 18.9299 7.62728L17 8.8496V8.5C17 6.84315 15.6569 5.5 14 5.5H5ZM17 11.217V12.783L20 14.6829V9.31689L17 11.217ZM15 11.217V8.5C15 7.94772 14.5523 7.5 14 7.5H5C4.44772 7.5 4 7.94772 4 8.5V15.5C4 16.0523 4.44772 16.5 5 16.5H14C14.5523 16.5 15 16.0523 15 15.5V12.783V11.217Z" />
</svg>
