<svg width="1em" height="1em" viewBox="0 0 24 24" fill="none" xmlns="http://www.w3.org/2000/svg">
<path fill="currentColor" fill-rule="evenodd" clip-rule="evenodd" d="M2 8.5C2 6.84315 3.34315 5.5 5 5.5H12C13.6569 5.5 15 6.84315 15 8.5V15.5C15 17.1569 13.6569 18.5 12 18.5H5C3.34315 18.5 2 17.1569 2 15.5V8.5ZM16.9611 14.6898C16.6738 14.506 16.5 14.1885 16.5 13.8474V10.1524C16.5 9.81136 16.6738 9.49383 16.9611 9.31004L19.6916 7.56312C20.6901 6.92436 22 7.64139 22 8.82666V15.173C22 16.3582 20.6901 17.0752 19.6917 16.4365L16.9611 14.6898Z" />
</svg>
