<svg width="24" height="24" viewBox="0 0 24 24" fill="none" xmlns="http://www.w3.org/2000/svg">
<path fill-rule="evenodd" clip-rule="evenodd" d="M15.6897 4.05173C14.1718 3.83265 12.5737 4.30767 11.407 5.47436C9.85834 7.02301 9.52839 9.33182 10.4228 11.2042C10.6055 11.5866 10.5272 12.0426 10.2276 12.3423L4.29618 18.2737C3.90127 18.6686 3.90127 19.3089 4.29618 19.7038C4.69109 20.0988 5.33136 20.0988 5.72627 19.7038L11.6576 13.7725C11.9573 13.4728 12.4133 13.3946 12.7958 13.5773C14.6681 14.4717 16.977 14.1418 18.5257 12.5931C19.6924 11.4264 20.1674 9.82817 19.9483 8.31019L17.0954 11.1631C16.3122 11.9463 15.0423 11.9463 14.259 11.1631L12.8369 9.74092C12.0536 8.95768 12.0536 7.68779 12.8369 6.90455L15.6897 4.05173ZM18.2561 4.31368C18.3426 4.23172 18.4158 4.13283 18.4702 4.01892C18.7082 3.52058 18.4972 2.9236 17.9989 2.68554C15.3857 1.43719 12.1594 1.89351 9.99276 4.06015C8.00696 6.04597 7.4579 8.92199 8.34123 11.4002L2.88197 16.8595C1.70601 18.0355 1.70601 19.9421 2.88197 21.118C4.05792 22.294 5.96453 22.294 7.14049 21.118L12.5997 15.6588C15.0779 16.5422 17.954 15.9932 19.9399 14.0073C22.1065 11.8407 22.5628 8.61435 21.3145 6.00114C21.0764 5.5028 20.4795 5.2918 19.9811 5.52986C19.8695 5.58319 19.7723 5.65453 19.6913 5.73873L15.6812 9.74887L15.6799 9.75008L15.6772 9.75051L15.6746 9.75018L15.6732 9.74887L14.2511 8.32671L14.2499 8.3254L14.2494 8.32274L14.2498 8.32013L14.2511 8.31876L18.2561 4.31368Z" fill="currentColor"/>
</svg>
